<svg xmlns="http://www.w3.org/2000/svg">
<defs>
<font id="HomeEducationDEMO-Regular" horiz-adv-x="710" >
  <font-face 
    font-family="Home Education DEMO"
    font-weight="400"
    font-stretch="normal"
    units-per-em="2048"
    panose-1="0 0 0 0 0 0 0 0 0 0"
    ascent="1638"
    descent="-410"
    x-height="1071"
    cap-height="1165"
    bbox="-86.2791 -217 1161 1737"
    underline-thickness="0"
    underline-position="0"
    unicode-range="U+000D-20AC"
  />
<missing-glyph horiz-adv-x="1222" 
d="M76 61q-13 18 -13 60q0 272 25 467q6 12 6 33q12 38 45 71l211 336q10 10 21.5 33t24 38t30.5 15q23 0 45.5 -12t39.5 -29.5t32 -35t31 -31.5t30 -17q4 0 6.5 11.5t5 26t12.5 27.5t27 15q20 -8 66 -8q25 0 43 6q27 -2 49 -33q0 -1 -1 -2t-1 -2q0 -2 4 -6q0 -12 -2 -14
q0 -11 -35 -127.5t-35 -122.5q0 -16 20.5 -53.5t22.5 -53.5q0 -46 19.5 -189.5t19.5 -182.5v-19l-2 -12q0 -1 -0.5 -4t-1 -8.5t-0.5 -10.5q0 -86 8 -102q-2 -33 -96 -33q-22 0 -52.5 2t-33.5 2q-17 -2 -51.5 -12t-52.5 -10q-6 0 -15 0.5t-24.5 3t-26 9t-10.5 15.5
q0 16 8 43.5t10 40.5q2 20 4.5 64.5t4.5 64.5q-15 19 -15 21l2 2q-31 -10 -45 -24t-16 -27.5t-5.5 -49t-11.5 -67.5q0 -14 9.5 -38t9.5 -38q0 -9 -6.5 -16.5t-16.5 -7.5q-7 0 -41 3t-41 3q-33 0 -96 -13t-92 -16q-8 1 -26 7t-27 7zM178 426l-12 -244q0 -49 27 -49h8
q18 0 27 0.5t27.5 3.5t27.5 10t17.5 21t8.5 35q4 26 6.5 79.5t6.5 79.5q3 19 49.5 33.5t70.5 14.5l35 3q35 3 41 3q34 0 57 -23.5t23 -58.5l-20 -148q0 -26 7.5 -33.5t32.5 -7.5q68 0 91.5 18t23.5 83q0 24 -10 137q0 55 -4.5 95t-15.5 64.5t-22 39t-33 21t-38.5 8
t-48.5 1.5q-31 0 -92 -5t-92 -5h-109q-33 0 -51.5 -9.5t-25 -28.5t-7 -38.5t-1.5 -49t-5 -50.5zM768 1200q0 13 15.5 46t53 71t83.5 47q21 0 67.5 9t69.5 9q7 0 18.5 -1.5t34 -7.5t37 -22t14.5 -40q0 -9 -6.5 -18.5t-16.5 -21t-14 -18.5q-6 -12 -19 -39t-23 -44t-25 -37.5
t-34.5 -30.5t-43.5 -10q-22 0 -51.5 10t-48.5 26q-11 18 -54.5 34.5t-56.5 37.5zM528 688l129 -10q5 -1 8 3t3 9v8q-59 128 -172 279q-2 4 -10 11.5t-13 8.5q-28 -4 -69.5 -65.5t-83 -139.5t-54.5 -94q5 -5 37 -6t225 -4zM946 1163h8q2 -3 6.5 -6.5t4.5 -5.5q24 14 46 44.5

<glyph glyph-name=".notdef" horiz-adv-x="1222" 
d="M76 61q-13 18 -13 60q0 272 25 467q6 12 6 33q12 38 45 71l211 336q10 10 21.5 33t24 38t30.5 15q23 0 45.5 -12t39.5 -29.5t32 -35t31 -31.5t30 -17q4 0 6.5 11.5t5 26t12.5 27.5t27 15q20 -8 66 -8q25 0 43 6q27 -2 49 -33q0 -1 -1 -2t-1 -2q0 -2 4 -6q0 -12 -2 -14
q0 -11 -35 -127.5t-35 -122.5q0 -16 20.5 -53.5t22.5 -53.5q0 -46 19.5 -189.5t19.5 -182.5v-19l-2 -12q0 -1 -0.5 -4t-1 -8.5t-0.5 -10.5q0 -86 8 -102q-2 -33 -96 -33q-22 0 -52.5 2t-33.5 2q-17 -2 -51.5 -12t-52.5 -10q-6 0 -15 0.5t-24.5 3t-26 9t-10.5 15.5
q0 16 8 43.5t10 40.5q2 20 4.5 64.5t4.5 64.5q-15 19 -15 21l2 2q-31 -10 -45 -24t-16 -27.5t-5.5 -49t-11.5 -67.5q0 -14 9.5 -38t9.5 -38q0 -9 -6.5 -16.5t-16.5 -7.5q-7 0 -41 3t-41 3q-33 0 -96 -13t-92 -16q-8 1 -26 7t-27 7zM178 426l-12 -244q0 -49 27 -49h8
q18 0 27 0.5t27.5 3.5t27.5 10t17.5 21t8.5 35q4 26 6.5 79.5t6.5 79.5q3 19 49.5 33.5t70.5 14.5l35 3q35 3 41 3q34 0 57 -23.5t23 -58.5l-20 -148q0 -26 7.5 -33.5t32.5 -7.5q68 0 91.5 18t23.5 83q0 24 -10 137q0 55 -4.5 95t-15.5 64.5t-22 39t-33 21t-38.5 8
t-48.5 1.5q-31 0 -92 -5t-92 -5h-109q-33 0 -51.5 -9.5t-25 -28.5t-7 -38.5t-1.5 -49t-5 -50.5zM768 1200q0 13 15.5 46t53 71t83.5 47q21 0 67.5 9t69.5 9q7 0 18.5 -1.5t34 -7.5t37 -22t14.5 -40q0 -9 -6.5 -18.5t-16.5 -21t-14 -18.5q-6 -12 -19 -39t-23 -44t-25 -37.5
t-34.5 -30.5t-43.5 -10q-22 0 -51.5 10t-48.5 26q-11 18 -54.5 34.5t-56.5 37.5zM528 688l129 -10q5 -1 8 3t3 9v8q-59 128 -172 279q-2 4 -10 11.5t-13 8.5q-28 -4 -69.5 -65.5t-83 -139.5t-54.5 -94q5 -5 37 -6t225 -4zM946 1163h8q2 -3 6.5 -6.5t4.5 -5.5q24 14 46 44.5
t25 57.5q0 4 -2 12.5t-2 12.5q0 23 39 45l4 16h-6v4q-15 3 -29 3q-28 0 -45.5 -18.5t-42.5 -18.5q-2 0 -9.5 -5.5t-8.5 -5.5l-47 -59v-10q59 -8 59 -53v-13zM668 881q0 -1 16 -33q24 0 34.5 37.5t20.5 113.5h-8l6 9q-1 0 -4 -1t-4 -1q-8 4 -16 4q-28 0 -36.5 -28.5
t-8.5 -100.5z" />
    <glyph glyph-name=".null" horiz-adv-x="0" 
 />
    <glyph glyph-name="nonmarkingreturn" horiz-adv-x="682" 
 />
    <glyph glyph-name="NULL" horiz-adv-x="0" 
 />
    <glyph glyph-name="NULL" horiz-adv-x="0" 
 />
    <glyph glyph-name="CR" unicode="&#xd;" horiz-adv-x="450" 
 />
    <glyph glyph-name="space" unicode=" " horiz-adv-x="450" 
 />
    <glyph glyph-name="exclam" unicode="!" horiz-adv-x="370" 
d="M123 242q0 4 1 11l1 7l10 14l141 -2q9 0 14 -36.5t9 -80.5t10 -55q0 -59 -59 -59q-35 0 -59.5 13.5t-37.5 32t-20 49t-8.5 52.5t-1.5 54zM104 643q-7 34 -12.5 74t-8 67.5t-4 78t-1.5 68.5v78v70q0 126 -15 205q0 19 7 19h127q20 0 32.5 -45.5t12.5 -73.5l-4 -420
q12 -37 12 -66q-2 -39 -17.5 -70.5t-48.5 -31.5q-21 0 -45.5 15.5t-34.5 31.5z" />
    <glyph glyph-name="quotedbl" unicode="&#x22;" horiz-adv-x="446" 
d="M61 1448q0 16 13 16q109 0 116 -43q13 -120 13 -309q0 -123 -51 -123q-38 0 -56 32.5t-20 78.5q-15 342 -15 348zM244 1374q0 70 18 70q21 0 67 -11.5t46 -29.5l10 -277q0 -25 -11 -47t-32 -22q-31 0 -52.5 31.5t-30.5 82t-12 89t-3 77.5v37z" />
    <glyph glyph-name="dollar" unicode="$" horiz-adv-x="694" 
d="M385 106l-66 -8q-204 0 -204 88q0 11 10 15v-11q21 0 63.5 -12t63.5 -12q65 0 140 66.5t75 121.5q0 26 -22.5 47t-58 37t-79 33t-87 41t-79 54.5t-58 79t-22.5 110.5q0 82 32 161.5t89 141.5q28 30 86.5 81t83.5 77q0 34 -16.5 98.5t-16.5 99.5q0 17 7.5 24t27.5 7
q51 0 80 -16.5t38.5 -44.5t12.5 -57t8 -62t19 -52q13 -18 44.5 -33t53 -32t21.5 -47q0 -12 1 -44.5t0.5 -46t-4.5 -36.5t-12.5 -33t-25 -18.5t-41.5 -8.5q-94 0 -94 68q0 15 9 40t9 38q0 19 -6 20l6 6q-3 9 -10 9h-6t-5 -0.5l-4 -1t-3 -1t-3.5 -2.5t-4 -3l-4.5 -3t-5 -4
q-213 -184 -213 -356q0 -51 23 -89t59.5 -60.5t81 -41t89 -35.5t81 -37.5t59.5 -53.5t23 -78q0 -32 -36 -83.5t-36 -80.5q0 -34 6 -104.5t6 -106.5v-4q0 -13 -2 -19.5t-17 -14t-46 -7.5q-42 4 -63 21.5t-24.5 42t-3.5 49.5t-5.5 48.5t-24.5 34.5z" />
    <glyph glyph-name="quotesingle" unicode="'" horiz-adv-x="272" 
d="M63 1333q0 25 2.5 75t2.5 75v39q8 6 22 6q38 0 79.5 -16t41.5 -46q0 -46 -3 -133.5t-3 -134.5v-35q-8 -71 -51 -71q-22 0 -38.5 11t-26 33t-15.5 41.5t-8 51.5t-2.5 47.5t-0.5 42.5v14z" />
    <glyph glyph-name="parenleft" unicode="(" horiz-adv-x="524" 
d="M336 41q-57 0 -103 27.5t-77.5 77t-52 105t-33.5 122.5q-9 47 -9 110q0 438 236 756q15 22 40 39.5t48 17.5q1 -1 18 -12t28 -19.5t21.5 -24.5t10.5 -32q0 -19 -21 -44t-46.5 -48.5t-30.5 -32.5q-100 -175 -139.5 -315.5t-39.5 -364.5q9 -52 27.5 -106t50.5 -99.5
t66 -45.5q14 0 44 8t46 8q39 0 39 -37q-28 -46 -56.5 -68t-66.5 -22z" />
    <glyph glyph-name="parenright" unicode=")" horiz-adv-x="575" 
d="M61 49v2q0 10 9.5 23t23.5 26t15 15q48 63 95.5 138.5t95 169.5t74.5 194t21 182q-8 107 -65.5 206.5t-143.5 151.5q-12 7 -37.5 13t-42.5 11.5t-31 28.5t-14 64q0 14 3 22.5t10.5 12t12.5 4t15 0.5q63 0 136.5 -51.5t134 -129.5t101 -179t40.5 -191q0 -65 -14.5 -125.5
t-48 -149.5t-41.5 -114l-99 -156q-119 -190 -202 -190q-42 0 -48 22z" />
    <glyph glyph-name="comma" unicode="," horiz-adv-x="286" 
d="M111 -121q-6 109 -50 240v39q0 12 23 12q68 0 104.5 -64t36.5 -139q0 -119 -61 -119q-16 0 -31.5 8.5t-21.5 22.5z" />
    <glyph glyph-name="hyphen" unicode="-" horiz-adv-x="573" 
d="M113 674q-52 17 -52 61q0 20 19 45q1 1 24.5 4t66 6t83.5 3q258 0 258 -86q0 -31 -31.5 -41.5t-87.5 -10.5h-55h-51.5t-40.5 1t-45 3t-39.5 5.5t-48.5 9.5z" />
    <glyph glyph-name="period" unicode="." horiz-adv-x="276" 
d="M61 96q0 17 1 24.5t8 14t22 6.5q30 0 76.5 -22.5t46.5 -52.5q0 -56 -63 -56q-38 0 -64.5 23.5t-26.5 62.5z" />
    <glyph glyph-name="slash" unicode="/" horiz-adv-x="686" 
d="M66 176q10 43 45 118.5t45 106.5l264 658q7 24 30 77t42 94l20 42q65 -3 113 -37q-7 -35 -15.5 -54t-9.5 -22q-15 -37 -128.5 -323.5t-256.5 -616.5q0 -1 -1 -3t-1 -3q-10 -43 -45.5 -88.5t-48.5 -40.5q-68 20 -53 92z" />
    <glyph glyph-name="zero" unicode="0" horiz-adv-x="573" 
d="M61 537q0 44 4 95t16.5 116.5t32 117t54 87.5t78.5 36q28 0 48 -12.5t45.5 -43.5t35.5 -40q10 -10 34 -17.5t33 -13.5q70 -65 70 -227q0 -118 -31.5 -218.5t-95.5 -234.5q-30 -40 -56 -54.5t-71 -14.5q-38 0 -69 16t-51.5 41t-35 63t-22.5 73.5t-12.5 81.5t-5.5 78t-1 71
zM205 498v-13q0 -229 43 -229q24 0 39 39q67 161 80.5 213t13.5 135v25q0 194 -78 206q-29 0 -57 -85.5t-35 -143.5q-6 -70 -6 -147z" />
    <glyph glyph-name="one" unicode="1" horiz-adv-x="315" 
d="M61 1116q0 17 19.5 21t54.5 4h15q58 0 69 -21q35 -301 35 -663q-10 -334 -12 -400q-9 -18 -41 -18h-15q-16 0 -25 0.5t-23 3t-22 7.5t-14 15t-6 25v658q0 136 -24 307q0 3 -5.5 29.5t-5.5 29.5v2z" />
    <glyph glyph-name="two" unicode="2" horiz-adv-x="454" 
d="M61 164v18q59 154 128 384.5t69 316.5q0 39 -14 39q-1 -1 -6 -9.5t-9 -15t-10.5 -16t-12.5 -17t-12 -14.5t-12.5 -10.5t-11.5 -3.5q-42 0 -70 25t-28 67q0 71 38.5 122.5t98.5 51.5q112 0 148 -52t36 -182q0 -148 -35 -252l-102 -313q-1 -2 -3.5 -8.5t-4.5 -11.5t-2 -7
q0 -14 20 -19t44.5 -4.5t44.5 -9.5t20 -32q0 -35 -10 -47q-82 -57 -187 -82q-117 0 -117 82z" />
    <glyph glyph-name="three" unicode="3" horiz-adv-x="591" 
d="M70 176q-9 27 -9 47q0 29 19 29q15 0 40.5 -16.5t39.5 -16.5q77 0 152 73t75 159q0 39 -41.5 67.5t-77.5 28.5l-9 -1q-9 -2 -21 -3.5t-19 -1.5q-49 0 -76.5 21.5t-27.5 78.5q0 11 30 24t35 19q123 130 123 266q0 58 -22 58q-14 0 -49 -27t-70 -27q-74 0 -74 76
q0 109 166 109q103 0 153 -51t50 -170q0 -42 -15 -84.5t-39 -92t-34 -77.5q0 -18 12 -23q4 -2 29.5 -17.5t31.5 -20t26 -19t26.5 -24.5t17.5 -26.5t14.5 -34.5t3.5 -40q0 -92 -55.5 -168t-134.5 -115t-158 -39q-49 0 -112 39z" />
    <glyph glyph-name="colon" unicode=":" horiz-adv-x="315" 
d="M80 70q0 51 35 51q30 0 57.5 -4t54.5 -21t27 -45q0 -51 -59 -51q-40 0 -77.5 17.5t-37.5 52.5zM61 780q0 29 7.5 36t37.5 7q142 0 142 -69q0 -35 -26.5 -68t-59.5 -33q-50 0 -75.5 39t-25.5 88z" />
    <glyph glyph-name="semicolon" unicode=";" horiz-adv-x="321" 
d="M111 -150q0 15 3 41t3 39q0 42 -16.5 125t-16.5 125q0 22 6 27q58 -4 92 -17q78 -29 78 -253q0 -29 -2.5 -51t-10.5 -48t-27 -40.5t-48 -14.5q-28 0 -44.5 19.5t-16.5 47.5zM61 788q0 17 7 26t14 10t20 1h4q78 0 125 -53v-6q0 -19 -1 -31t-5.5 -30t-17 -27.5t-31.5 -9.5
q-45 0 -80 38t-35 82z" />
    <glyph glyph-name="question" unicode="?" horiz-adv-x="505" 
d="M176 113q0 43 105 43q29 0 48 -16t19 -44q0 -67 -53 -67q-47 0 -83 22t-36 62zM123 592q0 44 18 90.5t48 103t42 88.5q60 159 60 254q0 91 -39 91q-19 0 -26 -16t-6.5 -35.5t-10.5 -35.5t-37 -16q-39 0 -75 28.5t-36 67.5q0 52 31.5 85.5t85.5 33.5q136 0 201 -53.5
t65 -175.5q0 -51 -8.5 -103t-27.5 -108.5t-33.5 -94.5t-42.5 -103.5t-39 -92.5q-4 -15 12 -84q-18 -33 -65 -33q-48 0 -82.5 32t-34.5 77z" />
    <glyph glyph-name="at" unicode="@" horiz-adv-x="1085" 
d="M61 627q2 214 83.5 388t236.5 267q145 88 246 88q61 0 149 -35q51 -20 90 -47.5t65 -55t44 -67.5t27.5 -72t14.5 -82.5t6 -85t1 -91.5q0 -18 -3 -52t-3 -39q-49 -288 -189 -288q-34 0 -66 24t-51.5 53.5t-37 53.5t-25.5 24q-22 -20 -48.5 -53t-43.5 -53t-47 -35.5
t-68 -15.5q-71 0 -123.5 69.5t-50.5 157.5q15 78 54.5 163t105 151.5t133.5 66.5q70 0 119 -50.5t76 -131.5q0 -240 65 -246q29 0 48.5 105t19.5 194q0 58 -10.5 113t-33 105t-63.5 80t-96 30q-135 0 -249 -95.5t-176 -242t-62 -301.5q0 -158 36.5 -271t123.5 -180.5
t221 -67.5q56 0 122 37q6 3 23.5 15t31 18t27.5 6q18 0 47 -13t29 -32q-42 -68 -104.5 -107.5t-132.5 -39.5h-158q-12 0 -28 5.5t-53.5 22t-64.5 27.5q-70 28 -122 93t-80.5 149t-42 170.5t-13.5 173.5zM410 655q0 -18 6.5 -36.5t19.5 -18.5q14 0 27 25l2 2q12 19 42.5 59
t47 66.5t32 77.5t15.5 112q-39 0 -85 -53.5t-76 -121t-31 -112.5z" />
    <glyph glyph-name="A" unicode="A" horiz-adv-x="821" 
d="M162 213q0 38 11 113.5t11 113.5q0 25 -12.5 39t-30.5 21t-35.5 15t-30 28t-12.5 53q0 25 5 25l41 24h96q2 0 8 15.5t6 19.5l6 25q26 161 39.5 238t42 186.5t64.5 191.5q14 20 67 20q61 0 76 -63l238 -956q0 -2 3 -14t3 -17q2 -13 -5 -21t-23.5 -10.5t-29 -3t-32 0.5
t-21.5 1q-15 0 -32.5 70t-36 140.5t-37.5 70.5l-6 -2q-15 -4 -45.5 -13.5t-49 -14.5t-45 -11t-49.5 -9q-22 -24 -30.5 -70t-8.5 -92t-3 -89t-20.5 -70t-52.5 -27q-69 0 -69 72zM356 670q0 -13 4 -20.5t14 -10.5t17.5 -3.5t23.5 0.5t23 1q82 0 82 33l-11 47q-43 195 -63 264
q0 20 -3.5 25.5t-14.5 5.5q-21 0 -46.5 -143.5t-25.5 -198.5z" />
    <glyph glyph-name="B" unicode="B" horiz-adv-x="684" 
d="M104 90q-43 336 -43 731q0 177 7 309q10 23 55 23q27 0 49 -14.5t37 -14.5q8 0 15.5 2.5t18 8.5t15.5 8q59 20 127 20q57 0 109 -18.5t90.5 -62.5t38.5 -107t-66 -152q-7 -9 -30 -24.5t-41.5 -29t-18.5 -21.5v-19q44 -39 68 -75.5t24 -82.5q0 -54 -27 -111t-57 -93.5
t-89 -100.5t-85 -96q-11 -13 -29 -44.5t-36 -51t-43 -23.5h-13q-17 0 -25.5 0.5t-20.5 4t-19 12t-11 22.5zM209 756v-4q16 9 60 31t73.5 39.5t64 43.5t52.5 59.5t18 71.5q0 29 -20.5 64t-48.5 35q-44 0 -129.5 -44t-85.5 -61v-14q0 -3 -4.5 -36.5t-4.5 -35.5v-135zM193 588
q0 -185 12 -383q70 94 131 196l10 17q4 7 22 35t27 43.5t18 40t9 43.5q0 28 -23 66t-49 38q-23 -14 -76 -35q-8 -3 -26.5 -8.5t-28 -9t-18 -15t-8.5 -28.5z" />
    <glyph glyph-name="C" unicode="C" horiz-adv-x="675" 
d="M61 606q0 65 12.5 141t39 157.5t76.5 145t116 85.5q32 11 62.5 13.5t55.5 -5.5t32.5 -30.5t-6.5 -61.5q-12 -9 -39 -16.5t-39 -14.5q-48 -26 -83 -103t-49 -155t-14 -144q0 -44 5.5 -94t19.5 -112t45.5 -102t75.5 -40q27 0 58 17.5t54 39t50.5 39t48.5 17.5q18 0 25 -9
t7 -30q0 -61 -47 -107t-105 -65.5t-110 -19.5q-66 0 -118 26t-84 68t-52.5 102.5t-28.5 123t-8 134.5z" />
    <glyph glyph-name="D" unicode="D" horiz-adv-x="727" 
d="M76 481l-8 291v25q-8 137 0 233q8 47 20 72q4 4 11.5 8t18.5 7.5t17 6.5q44 26 75.5 41.5t78.5 27t88 5.5q96 -12 162 -68t94 -147q20 -41 16 -94q-2 -4 -2 -10q26 -117 15 -230q-6 -68 -52 -180l-4 -12q-33 -80 -186 -193l-10 -8l-11 -8l-16 -12q-2 0 -28 -13
t-60.5 -29.5t-50.5 -23.5q-22 -13 -74 -4q-41 4 -56.5 20t-21.5 54q-20 188 -14 235zM221 377q2 -18 11 -36.5t22 -21.5q-2 -2 1 0q1 0 4 2q21 13 32 17q93 53 160 152.5t77 205.5q2 27 2 146q-8 142 -94.5 208t-216.5 7l8 -15q-2 -17 -10 -54t-10 -56q-6 -80 5 -266.5
t9 -288.5z" />
    <glyph glyph-name="E" unicode="E" horiz-adv-x="708" 
d="M117 504q0 15 12 32.5t14 24.5q19 97 19 277q0 25 -16 41.5t-34.5 23.5t-34.5 23t-16 41q0 21 9 26l96 58q10 6 14 17t4.5 20.5t7.5 17t23 8.5q15 0 44 -8t44 -8q25 0 72.5 4t70.5 4h7q27 0 42 -1t36.5 -5t31.5 -15t10 -28q0 -27 -49 -41t-108.5 -26.5t-75.5 -33.5
q-12 -12 -12 -34v-7q-19 -176 -19 -217q0 -4 -1 -15t-1 -19.5t1 -18t6 -15t14 -5.5q30 0 84.5 30.5t83.5 30.5q25 0 39 -17t14 -40q0 -33 -26 -56t-63.5 -36.5l-75 -27t-63.5 -37.5t-26 -58q0 -23 0.5 -34t2 -39t6.5 -44t13.5 -35.5t23 -29t34.5 -9.5q46 0 100 43
q114 107 123 107q26 0 37.5 -18.5t11.5 -45.5q0 -20 -4.5 -31t-19.5 -30q-69 -71 -134 -100t-161 -29q-45 0 -77 15t-49 36.5t-27.5 56.5t-14 64t-8 71t-9.5 66q-26 60 -26 76z" />
    <glyph glyph-name="F" unicode="F" horiz-adv-x="790" 
d="M141 588l-22 223q-13 13 -13 186v17q-3 7 -24 35.5t-21 50.5q0 40 19 49q145 84 250 111.5t274 27.5q16 0 34 -2.5t40 -8t36.5 -18t14.5 -30.5q0 -24 -17.5 -31.5t-49.5 -7.5q-6 0 -18.5 1t-18.5 1q-1 0 -21 -5.5t-47.5 -12t-44.5 -9.5q-20 -4 -58 -9.5t-54 -9t-42.5 -13
t-47.5 -26.5t-44 -44q0 -175 6 -279q0 -67 62 -67q26 0 79 6t81 6q15 0 33 -2t38.5 -11t20.5 -24q0 -6 -13 -20.5t-24 -22.5q-31 -12 -121.5 -24.5t-132.5 -36.5q0 -213 45 -344q5 -20 -24 -29.5t-54 -9.5q-29 0 -46.5 7.5t-26 25.5t-11 33.5t-5 46.5t-5.5 49
q-4 5 -15.5 96.5t-11.5 105.5v19z" />
    <glyph glyph-name="G" unicode="G" horiz-adv-x="837" 
d="M61 565q19 311 289 559q101 93 199 93q77 0 143 -47t66 -119q0 -42 -35.5 -154.5t-56.5 -112.5h-99q-14 0 -28.5 11.5t-14.5 25.5q0 15 6 27q6 15 22.5 51t25.5 58.5t17.5 54.5t8.5 59q0 45 -31 45q-30 0 -67 -37q-297 -280 -297 -534q0 -210 174 -320q26 -20 59 -20
q56 0 125.5 70.5t69.5 123.5q0 47 -86 47h-27l-141 -43q-1 0 -10.5 -0.5t-17 -0.5t-18.5 1.5t-18 4.5t-12.5 9t-5.5 15q0 143 272 150q108 -4 155.5 -51t47.5 -115q0 -15 -18.5 -56t-18.5 -43q-24 -65 -86 -139q-1 -2 -4 -4t-4 -4q-48 -48 -93 -70t-99 -22
q-96 0 -187.5 63.5t-149 171t-57.5 226.5q0 4 1 12.5t1 13.5z" />
    <glyph glyph-name="H" unicode="H" horiz-adv-x="808" 
d="M180 205l-14 112q-1 8 -2 28t-2.5 33t-6 29t-12.5 25q-10 12 -32.5 23.5t-36 25t-13.5 37.5q0 18 16 28.5t32 21.5t16 30q0 75 -13.5 223t-13.5 221q0 6 1 32t1 30v4q0 16 33 16q63 0 87.5 -30.5t27.5 -92.5q1 -29 3.5 -98.5t4 -102t6 -87.5t10.5 -107q9 -26 47 -26
q74 0 160.5 13t93.5 38q2 38 9.5 249.5t9.5 249.5v13q0 17 1 26.5t4.5 23t13 20t24.5 6.5q43 0 73.5 -30.5t30.5 -72.5q0 -76 -9 -232t-9 -235q0 -107 13.5 -227t13.5 -186q0 -29 -7.5 -39.5t-33.5 -10.5q-84 7 -84 13l-13 12q-1 22 -4 44.5t-7.5 49t-6.5 41.5q-1 7 -1 29
t-1.5 40.5t-5.5 38t-15 31t-28 11.5q-20 0 -54.5 -2.5t-82 -8.5t-80.5 -19.5t-33 -31.5q0 -37 15.5 -108.5t15.5 -108.5q0 -19 -16.5 -28t-57.5 -9q-55 0 -68 25z" />
    <glyph glyph-name="I" unicode="I" horiz-adv-x="325" 
d="M74 166q-6 58 -8.5 129t-3 111.5t0 123.5t0.5 97l39 413v7q5 118 64 118q44 0 71 -20t27 -62q-65 -241 -65 -571q0 -193 24 -387q2 -25 -49 -25q-42 0 -67.5 14t-32.5 52z" />
    <glyph glyph-name="J" unicode="J" horiz-adv-x="968" 
d="M147 229q0 29 5 39q-2 0 -6.5 6t-4.5 11q4 4 6 4q15 0 46 -27.5t67.5 -55.5t63.5 -28q49 0 75 115q0 1 1 2t1 2q13 64 13 219v27l-37 430q-6 57 -33 57q-47 0 -151 -63q-21 0 -34 0.5t-34 4.5t-33 11t-21.5 21t-9.5 34q0 17 8 31t25.5 24t29.5 15.5t37.5 14l31.5 10.5
q152 57 331 57q28 0 68.5 -3t97.5 -13.5t104 -26t80 -43.5t33 -64q0 -22 -53 -22q-29 0 -93.5 20.5t-109.5 20.5q-7 0 -26 1t-30.5 0.5t-26 -2.5t-24 -9t-14.5 -19q0 -106 15.5 -310t15.5 -308q0 -36 -0.5 -56t-4 -58.5t-9.5 -62t-19 -54t-31.5 -47.5t-47.5 -29.5t-66 -12.5
q-30 0 -67 7.5t-76.5 22.5t-66 43t-26.5 64z" />
    <glyph glyph-name="K" unicode="K" horiz-adv-x="776" 
d="M78 84q0 30 7 91t7 91t-16 307l-15 490v4q0 29 17 29q12 0 21.5 -1t21 -3.5t18 -4t23 -7t24.5 -7.5q12 -4 20 -13t11 -23.5t3.5 -24t0.5 -25.5v-313l8 -17q2 7 7 7h6q6 0 12 6l229 395q3 7 10 23t10 21.5t9.5 14t15 11t21.5 2.5q18 0 36.5 -2.5t39 -9t33 -19.5t12.5 -31
q0 -13 -13 -39l-303 -491q-3 -1 -5.5 -9t-2.5 -10q0 -14 8 -18l213 -203q46 -28 97 -77.5t51 -86.5q0 -49 -70 -49q-12 0 -19.5 0.5t-15.5 4t-10.5 4.5t-14.5 9.5t-18 12.5q-12 8 -25 34.5t-16 30.5q-13 16 -43 38.5t-41 33.5q-25 19 -65 54t-68.5 61t-27.5 26
q-10 1 -25.5 -13t-15.5 -21v-256q-1 -4 -5.5 -20.5t-8 -24.5t-10 -20t-17 -17.5t-23.5 -5.5q-21 0 -59.5 20.5t-38.5 40.5z" />
    <glyph glyph-name="L" unicode="L" horiz-adv-x="686" 
d="M82 948q0 1 -10.5 51t-10.5 72q0 14 21 14t41.5 -2.5t46.5 -9t42 -22.5t17 -39l17 -723q1 -11 12.5 -17t22.5 -6q21 4 61 12t63 12.5t57 8.5t64 4q91 0 99 -37q-21 -29 -63.5 -51t-75 -31t-93 -22t-74.5 -17q-12 -3 -52 -18.5t-62 -15.5q-42 0 -74 29.5t-33 70.5z" />
    <glyph glyph-name="M" unicode="M" horiz-adv-x="1089" 
d="M61 53q0 11 9 29q1 68 9.5 147.5t16.5 130t26 150t25 137.5v-2l5 34q6 34 14.5 83t18.5 98t22.5 83t23.5 34q73 0 113 -26.5t68 -90.5l8 -20q71 -155 88 -303q0 -1 8.5 22t23.5 61.5t34 86t40.5 99t42.5 97.5t41 84.5t35 56.5q16 21 45 21q36 0 64.5 -10.5t45.5 -23
t34 -41t23.5 -45t21.5 -54.5q47 -128 55 -260q-2 -29 -2 -185q0 -88 4 -163t4 -101q0 -49 -61 -49q-26 0 -44 10.5t-26.5 23t-13.5 36t-5.5 37.5t-0.5 39q0 45 2 131t2 127v20q0 70 -2 113.5t-15 107.5t-39 109q-37 -2 -127 -197q-2 -3 -5 -11t-5 -11q-24 -50 -51.5 -147
t-32.5 -111q-12 -35 -15 -81t-13 -67.5t-46 -32.5q-24 0 -42 9.5t-28.5 23t-20 40.5t-14.5 50t-14.5 64t-17.5 71q-3 13 -11 48t-15.5 65.5t-16.5 62.5t-18 51t-17 19q-5 0 -11 -11.5t-11.5 -31.5t-10 -38.5t-9.5 -41t-7 -30.5q0 -100 -25.5 -259t-25.5 -204q0 -16 3 -42.5
t3 -39.5q0 -24 -18.5 -42t-44.5 -18q-28 0 -62.5 27t-34.5 51z" />
    <glyph glyph-name="N" unicode="N" horiz-adv-x="735" 
d="M61 201q0 93 8.5 277t8.5 276q0 5 -1.5 43.5t0 61.5t6 58t18.5 61.5t36 43.5q23 0 60.5 -8.5t44.5 -20.5l213 -463q5 -16 14 -16q4 0 8.5 3t9.5 7.5t7 5.5q3 51 15.5 205t18.5 258q4 17 31 17q41 0 78 -18.5t37 -55.5q0 -12 -7.5 -30t-7.5 -29l-38 -445
q-19 -105 -19 -145q0 -41 2 -47q-4 -18 -22.5 -28.5t-38.5 -10.5q-22 0 -46.5 19t-35.5 42l-160 311q-50 120 -63 142h-17q8 0 8 4q-2 2 -2 4q-7 0 -9.5 -0.5t-4.5 -4t-4 -11.5q0 -37 -5 -104.5t-5 -104.5q0 -21 1 -60.5t1.5 -67.5t-0.5 -65t-5 -63t-11 -49.5t-19.5 -35.5
t-30.5 -12q-13 3 -41 20t-33 36z" />
    <glyph glyph-name="O" unicode="O" 
d="M61 518q0 158 40.5 303.5t131.5 243.5q24 27 36 38.5t34.5 22.5t48.5 11q21 0 52.5 -8t60.5 -27t29 -43v-10q7 -19 30 -47.5t29 -40.5q96 -181 96 -367q0 -54 -11.5 -114t-36.5 -120.5t-60 -109t-87 -79t-112 -30.5q-36 0 -81 17.5t-62 34.5q-85 82 -111.5 144.5
t-26.5 180.5zM203 524v-8q0 -47 1.5 -76t13 -72t34.5 -67q2 -2 11.5 -14t15 -17.5t15.5 -11.5t19 -6q38 0 78.5 51t64 105.5t33.5 95.5q17 69 17 153q0 104 -35 224t-84 120q-22 0 -41 -28v-2q-143 -201 -143 -447z" />
    <glyph glyph-name="P" unicode="P" horiz-adv-x="706" 
d="M61 1010q0 42 40 78.5t90 54.5t90 18q49 0 98.5 -9.5t97.5 -31t85.5 -52t60 -75.5t22.5 -98q0 -116 -83.5 -221.5t-196.5 -141.5q-3 -1 -30 -9t-44 -20t-17 -30q0 -55 12.5 -160.5t12.5 -158.5q0 -42 -11.5 -64t-47.5 -22q-26 0 -56.5 18.5t-31.5 42.5l-54 764
q-2 22 -19.5 63.5t-17.5 53.5zM246 928v-37q0 -52 1 -83.5t4 -79t11.5 -71.5t22.5 -24q19 18 57 49t59.5 51.5t46.5 51t36.5 66t11.5 77.5q0 58 -39 92.5t-97 34.5q-114 0 -114 -127z" />
    <glyph glyph-name="Q" unicode="Q" horiz-adv-x="972" 
d="M670 225l-8 -2q-4 -2 -26.5 -13t-31 -15t-29.5 -13t-34 -13t-31 -7.5t-33 -3.5q-182 0 -299 120t-117 306q0 158 58 305.5t168 247.5q43 43 108 43q19 0 57 -6.5t58 -6.5q12 0 32.5 12.5t53.5 12.5q285 0 285 -440q0 -123 -25.5 -223t-87.5 -199v-25q41 -41 59 -57
q4 -5 27.5 -22t40 -36t16.5 -36q0 -22 -18 -37t-39 -15q-28 0 -54.5 19t-44.5 42.5t-41 42.5t-44 19zM203 573q0 -68 17 -130t60 -116.5t107 -72.5q12 -2 16 -2q40 0 97.5 28.5t60.5 61.5q-10 11 -57 51t-79 74t-32 53q0 25 27 25q86 0 117 -31l94 -82q29 -6 54 41t38.5 115
t21 125t7.5 82q0 30 -1 58.5t-7.5 76t-17 81.5t-31.5 59.5t-50 25.5q-18 0 -42 -41.5t-36 -48.5q-12 9 -29.5 28.5t-33.5 31t-35 11.5q-42 0 -85.5 -40.5t-75.5 -100.5t-53.5 -112t-31.5 -91q-20 -76 -20 -160z" />
    <glyph glyph-name="R" unicode="R" horiz-adv-x="835" 
d="M61 1020v22q53 55 78 78q43 40 106.5 62t125.5 22q106 0 192 -58t86 -159q0 -138 -71.5 -275.5t-182.5 -250.5l-2 -10q0 -21 31 -39l6 -4q32 -20 153.5 -91.5t161.5 -93.5q12 -9 20.5 -27.5t8.5 -33.5q0 -41 -63 -41q-30 0 -58.5 19.5t-58.5 48.5t-51 40
q-129 71 -215 113l-29 14q-9 2 -18.5 -3.5t-10.5 -14.5q0 -48 14.5 -128t14.5 -120q0 -45 -55 -45q-37 0 -62.5 27t-36.5 72.5t-16 85t-6 85.5t-2 52l-12 563q0 13 -48 90zM422 1092q-37 0 -101.5 -32t-64.5 -65v-372q0 -56 27 -56q5 0 8.5 0.5t7 3t4.5 3.5t6 8t8 10
q193 236 193 418q0 82 -88 82z" />
    <glyph glyph-name="S" unicode="S" horiz-adv-x="884" 
d="M377 158q4 16 21.5 32.5t35.5 28.5t31.5 30.5t11.5 39.5l-24 24q-47 24 -78.5 41.5t-76 45.5t-75 53t-63.5 59.5t-53 69.5t-33 79t-13 91q0 102 86 206t202.5 167t209.5 63q49 0 127 -38.5t111 -76.5q26 -33 26 -98q0 -31 -19 -65.5t-36 -53.5t-49 -51q-53 -52 -86.5 -82
t-80 -60t-77.5 -30q-26 0 -56 32t-30 56q0 13 17 24l16 13q46 31 80 57t79.5 66t71 80.5t25.5 76.5q0 27 -15.5 37t-56.5 10q-81 0 -176 -59.5t-161 -151.5t-66 -176q0 -67 45.5 -123.5t110 -94t129 -71t110 -69.5t45.5 -74q0 -65 -55 -115.5t-119 -50.5q-18 0 -34.5 8
t-24.5 16t-25 26z" />
    <glyph glyph-name="T" unicode="T" horiz-adv-x="929" 
d="M305 246q0 105 2 317.5t2 319.5l-16 16h-37q-65 0 -117 8q-8 4 -14 4h-4q-60 60 -60 95q0 12 5 15t16 3q21 0 66 -3t69 -3q60 0 76 12t16 49v35l13 6q48 -22 71 -30q13 -6 40 -28t42 -26q93 0 180 -6q22 -1 54 -6.5t69.5 -15t63.5 -27.5t26 -39q0 -13 -11.5 -25.5
t-25.5 -17.5q-69 19 -122 19q-111 0 -226 -7q-11 -2 -17.5 -7.5t-9 -17t-3 -18.5t-0.5 -24v-8q0 -17 -3.5 -162t-3.5 -160q0 -23 1.5 -62.5t2 -69t0.5 -66t-3.5 -63t-10.5 -50t-20.5 -35.5t-32.5 -12q-28 0 -53 31t-25 59z" />
    <glyph glyph-name="U" unicode="U" horiz-adv-x="743" 
d="M76 375v600q-1 4 -3.5 26.5t-5 43.5t-4.5 28v5.5v6.5t0.5 5.5t2 5.5t4 5t6.5 5h12q22 0 33.5 -0.5t32 -1.5t32.5 -4t25 -8t19 -13.5t6 -19.5q0 -17 -7 -45v-53q0 -71 -3 -212t-3 -210q0 -28 3 -73t9.5 -104.5t21 -101t34.5 -41.5q9 0 20 8.5t22 24.5t18.5 28.5t18.5 32
t13 23.5q86 192 116.5 291t30.5 215q0 65 -55 221v18q9 0 27.5 1t27.5 1q89 0 107 -57l6 -20q39 -106 39 -185q0 -19 -1 -36t-4.5 -37.5t-5.5 -31t-8 -37.5l-8 -36q-12 -52 -27 -102t-39 -118t-54 -123.5t-67.5 -105.5t-85.5 -78t-101 -28q-31 0 -56 7t-42.5 17t-32 30
t-23 35t-17.5 45t-12.5 47t-10.5 53t-11 53z" />
    <glyph glyph-name="V" unicode="V" horiz-adv-x="735" 
d="M61 977q0 10 3 12t14 2l106 -2h2q22 -18 25 -18l102 -385q0 -1 18 -67t25 -81q49 258 78 361q2 6 17 50t28 81t29 80t27.5 68.5t15.5 25.5h12q22 0 35 -1t34 -4.5t31.5 -13.5t10.5 -26q-14 -39 -54.5 -144.5t-64 -181t-35.5 -151.5q-6 -37 -16.5 -112t-16.5 -112
q-2 -12 -3.5 -36t-4 -39.5t-8 -32.5t-19 -26t-34.5 -9q-31 0 -58 12.5t-43.5 27.5t-34 45t-25 47.5t-21.5 51.5l-5 9q-33 80 -85.5 262.5t-84.5 306.5z" />
    <glyph glyph-name="W" unicode="W" horiz-adv-x="1134" 
d="M61 1096q0 20 25 20q13 0 40.5 -2.5t63 -12.5t35.5 -26q0 -3 -1 -14t-1 -12v-668q133 368 293 659q20 15 51 15q50 0 75.5 -8.5t36.5 -34t13 -53.5t10 -86t23 -113q28 -101 83.5 -248t82.5 -147q9 0 16.5 57.5t11.5 151t6.5 180.5t4 179.5t2.5 113.5q4 12 29 12
q33 0 72.5 -20.5t39.5 -59.5q0 -16 -5.5 -43.5l-6.5 -32.5q-4 -22 -15 -100.5t-20 -108.5q-6 -159 -6 -370v-5q0 -26 -1.5 -43t-6.5 -43.5t-20 -40.5t-38 -14q-74 0 -140.5 70.5t-106.5 161.5q-101 227 -148 376q-2 9 -14 9q-28 0 -78 -154q0 -1 -1 -2t-1 -2q0 -4 -121 -305
q-5 -13 -16.5 -60.5t-22.5 -85.5t-32 -71t-46 -33q-31 0 -54.5 13t-37.5 38.5t-23 49t-13 59.5t-5 53.5t-2 46.5v8q-5 178 -10 316t-8.5 208.5t-6.5 117.5t-4.5 68.5t-1.5 35.5z" />
    <glyph glyph-name="X" unicode="X" horiz-adv-x="782" 
d="M197 217v14l137 359q0 31 -10 47l-248 393q-15 24 -15 51h50q89 0 114 -41q1 -3 6 -10.5t7 -11.5l8 -17q23 -43 37.5 -68t37 -61t39.5 -53.5t29 -17.5q17 0 37.5 54.5t44 144.5t27.5 102q6 18 32 18q6 0 31 -6t54.5 -23t29.5 -40q0 -7 -9.5 -33t-18 -47.5t-7.5 -20.5
l-98 -303q-5 -32 14 -69t51 -73.5t64.5 -75t56 -85t23.5 -90.5q0 -29 -27 -59l-4 -5h-6q-6 0 -20.5 -7t-20.5 -7q-18 0 -32 13.5t-20 28.5t-14 39t-12 34q-13 13 -35 57q-6 6 -22.5 30t-32 43t-22.5 19q-19 0 -37.5 -46t-33 -101.5t-41 -101.5t-58.5 -46t-59 19.5t-27 52.5z
" />
    <glyph glyph-name="Y" unicode="Y" horiz-adv-x="714" 
d="M391 164q0 93 -31 301v14q0 75 -26 119l-74 127q-8 11 -60 126t-73 169q-3 8 -19 49.5t-30 78t-17 46.5q0 23 72 23h4q45 0 53 -19l144 -352q8 -23 22 -23q15 0 35 58t40 136t26 93q3 7 11.5 30.5t15 40.5t15.5 37t18.5 31t17.5 11q38 0 78 -7.5t40 -23.5
q-168 -368 -168 -598q0 -92 39 -334q0 -4 -1 -10.5t-1 -10.5q0 -16 4 -48t4 -48q0 -41 -12.5 -57.5t-42.5 -16.5q-23 0 -51.5 17t-32.5 41z" />
    <glyph glyph-name="Z" unicode="Z" horiz-adv-x="790" 
d="M154 248v8q190 413 254 637q2 8 10 34t11 43t3 36q0 15 -6.5 24t-19.5 13t-23.5 5t-26.5 1q-42 0 -98 -15q-10 -3 -42 -20t-50 -17q-40 0 -105 76q0 18 12.5 31.5t36.5 21.5t48 13t59.5 7t58 2.5t54.5 0.5q82 0 96 -2q23 -7 55 -12.5t49.5 -9t35.5 -13t26 -30.5t8 -56
q0 -39 -25 -145q-34 -97 -102.5 -268.5t-95.5 -243.5q-3 -3 -7.5 -15.5t-4.5 -17.5q-1 -8 1 -13.5t4 -8t8.5 -4t10 -2t12 0t11.5 0.5q37 0 111 8.5t112 8.5q94 0 94 -45q0 -19 -9.5 -30t-33.5 -22q-43 -4 -193.5 -29.5t-226.5 -25.5q-39 0 -75.5 18.5t-36.5 55.5z" />
    <glyph glyph-name="a" unicode="a" horiz-adv-x="763" 
d="M94 346q-1 21 14 63t17 50l29 82q3 15 -11 26t-32.5 16.5t-34 16.5t-15.5 27q0 11 18 17.5t40.5 10.5t44.5 20t29 44q17 72 44 175t40.5 157t24.5 128t11 144v20l11 11q0 -1 17.5 0.5t42 3.5t36.5 2q29 0 38 -17.5t11 -48.5l143 -575q2 -9 10.5 -26t10.5 -23
q1 -40 7.5 -83.5t14 -73t21 -81t20.5 -78.5q6 -24 6 -41q0 -16 -10 -31.5t-26 -15.5q-33 0 -52 5t-30.5 20.5t-16.5 29t-12 46.5q0 8 -2 14q-3 15 -9.5 50.5t-11.5 56.5t-14 46t-22.5 37.5t-32.5 12.5q-119 0 -154 -17q-22 -10 -33.5 -47t-14.5 -77.5t-17 -84t-39 -63.5h-12
q-99 0 -99 51zM317 694q0 -14 17 -24q1 0 24.5 -1t42.5 -1t38.5 2t23.5 8l10 8q2 2 2 16q0 33 -29.5 162t-54.5 129q-5 0 -10.5 -11t-11 -33t-9 -37t-8.5 -42t-6 -30q-3 -11 -11.5 -44t-13 -57t-4.5 -45z" />
    <glyph glyph-name="b" unicode="b" horiz-adv-x="751" 
d="M164 430q-8 58 -14 127t-9 112t-7 123.5t-5 106.5q0 5 2 49.5t2 77.5q0 186 -72 256q0 20 75.5 28.5t139.5 8.5q414 0 414 -123q0 -36 -22 -77.5t-42.5 -66t-62.5 -67.5t-49 -51q0 -20 14 -36t34 -29t39.5 -29t33.5 -45t14 -68q0 -27 -27 -117t-65 -129l-178 -266
q-7 -31 -51 -31q-25 0 -46 7t-35.5 16.5t-26.5 28.5t-19 33t-14 40t-9.5 39.5t-7 42.5t-6.5 39zM279 752q0 -55 16 -235.5t39 -180.5q8 0 86 196.5t78 221.5q0 29 -17.5 66.5t-46.5 37.5q-28 0 -87.5 -20t-67.5 -41v-45zM279 971q11 -19 22 -19q77 41 122.5 83.5t90.5 115.5
q2 2 11.5 19t9.5 20q-7 53 -160 53h-13q-86 0 -96 -16q3 -2 8 -100t5 -156z" />
    <glyph glyph-name="c" unicode="c" horiz-adv-x="630" 
d="M61 686q0 73 10 155t33.5 169.5t57 157t86.5 114.5t117 45q95 0 143.5 -44t48.5 -140q0 -17 -10.5 -32t-26.5 -15q-32 0 -61.5 30t-49.5 60.5t-28 30.5q-32 0 -74 -83.5t-53 -127.5q-45 -173 -45 -312q0 -99 18.5 -168.5t75.5 -119.5q38 -33 59 -33q24 0 59 34.5t62 34.5
q5 0 16.5 -6t16.5 -6q6 0 20 2t15 2q18 0 18 -26q0 -42 -40.5 -75.5t-89.5 -49t-89 -15.5q-68 0 -120.5 27t-83.5 69t-51 99.5t-27 111t-7 111.5z" />
    <glyph glyph-name="d" unicode="d" horiz-adv-x="696" 
d="M184 121q-12 7 -25.5 22.5t-21.5 26.5l-8 12q0 15 1 47.5t1 49.5q0 113 -16.5 344t-16.5 346q0 51 -18.5 86.5t-18.5 52.5q0 14 8.5 42.5t10.5 39.5q0 -1 54.5 9t131 21.5t119.5 14.5q50 0 89.5 -14t65.5 -35.5t44 -58t27.5 -68t14.5 -80t6 -80t1 -80.5v-31
q2 -35 0 -87.5t-4.5 -108.5t-14.5 -118t-29 -116.5t-48 -103t-72 -78.5q-28 -21 -107.5 -45.5t-111.5 -24.5q-24 0 -62 15zM266 510q2 -14 6.5 -94t15 -124t31.5 -44q28 0 66 63q64 123 81 230t17 284q0 14 1 54t0.5 62.5t-3 59.5t-10 58.5t-20.5 44.5t-34.5 34t-51.5 11
q-36 0 -72 -11.5t-45 -39.5v-88z" />
    <glyph glyph-name="e" unicode="e" horiz-adv-x="663" 
d="M84 565q0 18 11 26.5t22 15t10 20.5l-12 293q-1 35 -10 58t-18.5 30.5t-17.5 17t-8 21.5t24.5 20t68 12t84.5 6.5t94.5 4.5t77.5 4h20q36 0 96 -12t60 -38q0 -10 -11 -19t-22 -11l-248 -33q-16 -2 -30.5 -15t-14.5 -28v-25q0 -95 12.5 -184.5t38.5 -89.5q33 0 92 24.5
t78 24.5q121 0 121 -47q0 -34 -46 -54t-102 -26.5t-107.5 -20.5t-59.5 -36v-35q0 -46 17 -136.5t50 -90.5q28 0 53.5 27l51 54t53.5 27q26 0 52 -17.5t26 -43.5q0 -59 -80 -114.5t-150 -55.5q-48 0 -84.5 17t-58.5 42t-37.5 64.5t-22 73.5t-12.5 81q0 55 -13 94t-48 74z" />
    <glyph glyph-name="f" unicode="f" horiz-adv-x="772" 
d="M174 168l-43 862q-1 21 -35.5 53t-34.5 54q0 15 36 23.5t38 10.5l309 37l18 1q17 1 23 1q226 0 226 -69q0 -22 -16.5 -35.5t-39.5 -13.5q-18 0 -52 10t-54 10q-17 0 -51 -2.5t-83 -8t-83.5 -18t-34.5 -30.5v-289l18 -25l187 31h33q104 0 104 -41q0 -32 -83 -57.5
t-173 -38.5q-9 -1 -26.5 -2t-24 -3t-16 -11t-12.5 -29.5t-3 -55.5q0 -250 39 -407q20 -28 20 -55q0 -21 -18 -35.5t-41 -14.5q-53 0 -90 44.5t-37 99.5v4z" />
    <glyph glyph-name="g" unicode="g" horiz-adv-x="755" 
d="M63 602q0 196 33.5 343.5t122.5 297.5q61 100 156 100l123 -36q23 -7 38 -26t20.5 -48.5t7 -49.5t1.5 -50q0 -26 -5 -54.5t-9.5 -46.5t-15.5 -52.5t-15 -49.5q-2 -7 -7.5 -31t-10.5 -37t-14 -30.5t-23.5 -26t-34.5 -8.5q-29 0 -54 26t-30 58q2 5 18 49t19 54t14 46t14 55
t7 49t4 58q0 3 0.5 13.5t0 15t-2.5 11t-8 9t-15 2.5q-50 -49 -86 -111.5t-56 -122t-31 -136t-14 -136.5t-3 -141q0 -128 12 -236q4 -35 36 -96t62 -61q33 0 119 108.5t86 147.5q0 18 -37 18q-19 0 -56 -14t-56 -14q-30 0 -65.5 24.5t-35.5 50.5q132 47 224 47q198 0 198 -79
q0 -19 -6 -33q-1 -3 -4 -7.5t-4 -7.5q-19 -39 -32 -63.5t-36.5 -65t-43 -67.5t-48.5 -59t-56 -50.5t-61.5 -31.5t-70.5 -13q-51 0 -123 39q-35 20 -61.5 49.5t-42 70.5t-24.5 75t-13 87t-4.5 81t-0.5 82v24z" />
    <glyph glyph-name="h" unicode="h" horiz-adv-x="784" 
d="M61 438q0 16 15.5 20t34 2t34 12.5t15.5 49.5l-56 426q-12 31 -32 144q0 19 6 24.5t24 5.5h17q22 0 35 -1t32.5 -4.5t31 -13t15.5 -24.5q20 -89 37 -235q2 -16 6 -68t8.5 -96t12.5 -92t21.5 -76.5t31.5 -28.5q45 0 106.5 13.5t61.5 31.5l12 19q-1 0 1 50.5t4 115t2 88.5
q0 43 18 358q1 8 10 13.5t17 5.5q36 0 88.5 -13t52.5 -37l-39 -520q0 -3 -1 -29t-1 -67.5t2 -96t10.5 -130t22.5 -154.5q4 -22 -20 -32.5t-50 -10.5q-40 0 -61.5 31t-26.5 75t-8 87.5t-14 74.5t-37 31h-6q-27 0 -44.5 -1t-47 -6.5t-45 -20t-15.5 -37.5q0 -2 1 -11.5t1 -11.5
q17 -58 31 -146.5t14 -109.5q0 -20 -15 -31.5t-38 -11.5q-57 0 -75 18.5t-28 75.5q-2 11 -8 58t-11 81t-18 70t-30 47q-3 2 -36.5 17t-51 31.5t-17.5 39.5z" />
    <glyph glyph-name="i" unicode="i" horiz-adv-x="309" 
d="M63 317q-2 27 -2 170q0 94 10.5 282.5t10.5 281.5v65q6 6 20 6q46 0 96 -14t50 -47q0 -27 -6 -45q-21 -279 -21 -539q0 -46 5 -127t5 -90q0 -59 -55 -59q-49 0 -80 34.5t-33 81.5z" />
    <glyph glyph-name="j" unicode="j" horiz-adv-x="841" 
d="M70 154q0 10 4 10l76 -25q22 -22 30 -26l13 8q8 -12 27 -34t34 -38t16 -16q103 0 103 526q0 15 0.5 67.5t0.5 89.5t-1 92.5t-5.5 94t-11.5 76t-19.5 57t-29.5 19.5q-27 0 -74.5 -9.5t-64.5 -11.5q-40 0 -73.5 34.5t-33.5 74.5q0 7 3 11t9.5 6t11.5 3t14 1.5t12 0.5
q204 6 452 6h10q27 0 41 -0.5t43.5 -2t47 -6t37 -11.5t29 -19.5t9.5 -29.5q0 -18 -16.5 -35.5t-34.5 -17.5h-197q-12 0 -19 -11.5t-7 -25.5q0 -72 10 -218.5t10 -220.5q0 -44 1 -108t0.5 -90t-3.5 -66.5t-10 -83.5q-1 -5 -6 -52.5t-13 -84.5t-24 -82.5t-45.5 -71.5
t-69.5 -26q-54 0 -121 36t-116 94.5t-49 115.5z" />
    <glyph glyph-name="k" unicode="k" horiz-adv-x="827" 
d="M70 1100q-9 22 -9 53q0 18 6.5 23.5t24.5 5.5h17q29 0 42 -0.5t30.5 -5t24.5 -14t13 -26.5t8 -44q2 -32 5 -90q17 -313 28 -318l203 356q4 7 21.5 46t36.5 64.5t40 25.5q117 0 117 -76q0 -16 -5 -27t-15.5 -23t-14.5 -20q-21 -35 -43 -70t-48.5 -74.5t-44.5 -65
t-51.5 -73t-47.5 -67.5q-10 -15 -28.5 -36t-27 -36t-12.5 -37q39 -24 156 -73t193.5 -93t76.5 -83q0 -17 -28 -24t-48 -7q-5 0 -27 3t-26 3q-88 43 -328 141q-12 8 -14 8q-14 0 -23.5 -12t-9.5 -26q0 -37 10.5 -110t10.5 -110q0 -36 -80 -36q-25 0 -37.5 2t-22.5 12.5
t-10 30.5z" />
    <glyph glyph-name="l" unicode="l" horiz-adv-x="636" 
d="M68 393q0 59 4 177t4 178q0 40 -7.5 116t-7.5 113q0 39 13.5 51t52.5 12q68 0 91.5 -50.5t23.5 -145.5q0 -65 -4.5 -196.5t-4.5 -198.5q0 -14 -1 -43t-1 -51t0.5 -51t4.5 -49.5t10.5 -39.5t19 -29t29.5 -10q41 0 132.5 31t113.5 31q13 0 23.5 -8t10.5 -21q0 -4 -8 -12
q-43 -55 -137 -91t-172 -36q-89 0 -119 25.5t-49 113.5q-22 94 -22 184z" />
    <glyph glyph-name="m" unicode="m" horiz-adv-x="1155" 
d="M63 240q-1 26 13 78.5t16 68.5l35 248q1 4 3.5 13.5t2.5 15.5q0 2 -1 6.5t-1 7.5l43 242q4 13 9 36.5t9 40.5t12 37.5t18 33t27 21.5t40 9q65 0 121.5 -63.5t85.5 -143.5q6 -16 21.5 -77.5t30 -101.5t27.5 -40q15 0 15 12q4 12 25.5 82.5t27.5 90t25 77t31.5 88.5
t31.5 76.5t39 85.5q14 16 49 16q79 0 103 -53l71 -156q26 -65 63.5 -230t37.5 -210q0 -17 -2 -118t-2 -118q0 -10 -13.5 -17t-33.5 -10t-34 -4t-24 -1q-22 0 -29 12q1 25 -3.5 143t-4.5 131q0 95 -45.5 252.5t-71.5 157.5q-10 0 -18 -8l-2 -2q-7 -53 -23 -111t-38.5 -127
t-32.5 -108q-14 -51 -33.5 -154.5t-34.5 -153.5q-4 -20 -96 -20q-56 0 -66 37l-49 203q-4 18 -18 98t-29 129.5t-41 91.5q-4 6 -10 6q-19 0 -28.5 -33t-14.5 -83t-10 -66l-54 -412v-65q0 -16 -27 -22.5t-52 -6.5q-45 0 -68 13.5t-23 54.5z" />
    <glyph glyph-name="n" unicode="n" horiz-adv-x="905" 
d="M680 281q-14 0 -25 16l-344 547l-43 57l-6 2q-20 0 -20 -33q0 -28 9 -271t9 -269q0 -28 -19 -39.5t-44 -11.5q-89 0 -101 38q0 17 1 49.5t1 49.5q0 84 -3.5 176t-10 216t-8.5 175q-15 58 -15 119q0 53 68 53q48 0 110.5 -45.5t116 -106.5t120 -155.5t105.5 -156.5
t89 -146q2 72 0.5 127.5t3 131.5t18.5 148q1 8 2 23t2.5 23t6 18t14.5 14t26 4q101 0 101 -112q-25 -115 -25 -244v-80q0 -72 -3.5 -119t-14.5 -98t-36 -76.5t-65 -25.5q-14 0 -20 2z" />
    <glyph glyph-name="o" unicode="o" horiz-adv-x="765" 
d="M61 537q0 186 60.5 373t181.5 294q10 6 19.5 9.5t20 4.5t17 1.5t20 0t19.5 -0.5q91 -26 151.5 -62.5t94 -87.5t47 -109t13.5 -137q0 -23 -1.5 -45.5t-5.5 -50.5t-6.5 -42t-9.5 -49.5t-8 -43.5l-4 -21l-6 -24q-11 -51 -45 -111.5t-62 -95.5t-76 -92q-22 -25 -61 -39
t-74 -14q-17 0 -31.5 2.5t-39 9.5t-27.5 8q-62 18 -100.5 47.5t-57 74.5t-24 88.5t-5.5 111.5zM215 438q0 -1 1 -3.5t1 -4.5q25 -133 80 -133q60 0 141 129q36 61 51 93.5t37 94.5q33 100 33 230q0 23 -4 62t-14 91t-32 88.5t-52 36.5q-21 0 -46.5 -26t-42.5 -53.5
t-41.5 -73t-31.5 -56.5q-3 -18 -31 -102t-28 -98q-8 -40 -12.5 -66.5t-6.5 -55.5t-2.5 -40.5t0 -52.5t0.5 -60z" />
    <glyph glyph-name="p" unicode="p" horiz-adv-x="741" 
d="M178 160q-2 42 -19.5 135t-17.5 143q0 10 0.5 24.5t1 25.5t0.5 12q-2 60 -7.5 154t-10 160t-4.5 63q0 28 7 37.5t36 19.5v6q0 10 8 18h-2q-21 0 -65 24.5t-44 45.5q0 34 40.5 69t85 56t79.5 29q62 0 115.5 -6t110 -24.5t96.5 -47.5t66 -79.5t26 -117.5q0 -61 -45 -137.5
t-113.5 -132t-128.5 -55.5q-10 0 -31.5 5t-33.5 5q-28 0 -33 -21q0 -113 18 -286q0 -3 1 -10.5t1 -10.5q19 -55 19 -114q0 -16 -4.5 -19.5t-16.5 -3.5h-14q-25 0 -71 9t-50 24zM172 926q111 -22 111 -82v-121q0 -7 9 -23t17 -20q73 33 146 117.5t73 158.5q0 51 -39.5 78
t-91.5 27q-101 0 -186 -115v-4q0 -9 -19 -10t-20 -6z" />
    <glyph glyph-name="q" unicode="q" horiz-adv-x="1040" 
d="M696 172q-9 0 -18 -4.5t-19.5 -12t-15.5 -10.5q-87 -49 -176 -49q-63 0 -136 24.5t-114 57.5q-79 51 -117.5 162t-38.5 221q0 78 15.5 163t50 170t83 152.5t121.5 109.5t158 42q34 0 62.5 -13t60 -34t56.5 -31q6 0 46.5 -12.5t47.5 -15.5q110 -42 163.5 -143t53.5 -226
q0 -85 -25.5 -172.5t-70.5 -157.5q-11 -17 -33 -49.5t-38.5 -56t-16.5 -25.5q0 -20 21 -40.5t45.5 -36.5t45.5 -39.5t21 -47.5q0 -16 -19 -16q-72 -4 -114 27q-10 7 -27 20.5t-27 21.5t-23 14.5t-22 6.5zM217 449q10 -40 17.5 -66t24.5 -65.5t36 -63t49.5 -41.5t67.5 -18
q42 0 108 28t66 58q-15 24 -49 64.5t-57 72t-23 47.5q0 17 8.5 25t26.5 16q1 0 2 1t2 1q67 -13 82 -25q13 -11 34.5 -38t40.5 -43.5t41 -16.5q6 0 11 8q135 199 135 398q0 99 -46.5 172t-138.5 73q-4 0 -12 -1t-12 -1q-10 4 -35 17t-45.5 20.5t-38.5 7.5q-39 0 -100 -49
q-99 -93 -148 -222.5t-49 -275.5q0 -6 1 -41t1 -42z" />
    <glyph glyph-name="r" unicode="r" horiz-adv-x="808" 
d="M82 184q-21 279 -21 828v18q0 54 40.5 95t101.5 63t120.5 32.5t110.5 10.5q109 0 202 -71.5t93 -176.5q0 -42 -23 -82.5t-55.5 -83.5t-44.5 -76q-30 -32 -98 -93t-111 -102t-37 -46q16 -15 82.5 -53.5t132 -76t119.5 -80.5t54 -69q0 -14 -5.5 -20t-19.5 -6
q-47 0 -75.5 11.5t-62 38t-59.5 40.5q-37 21 -105.5 56t-119 60t-51.5 25q-18 0 -31 -18q0 -36 4.5 -117.5t3.5 -124.5l-12 -14q-10 0 -35 2t-59.5 10t-38.5 20zM485 1110q-38 0 -98.5 -17t-114 -52.5t-53.5 -75.5v-357q0 -7 8.5 -12.5t16.5 -5.5q-1 -4 9 2q3 2 10 8
q10 7 13 8q55 52 90.5 87.5t86 92.5t83 113t46.5 109q2 10 2 16q0 37 -29.5 60.5t-69.5 23.5z" />
    <glyph glyph-name="s" unicode="s" horiz-adv-x="907" 
d="M276 125q0 2 30 18t60.5 48.5t30.5 74.5q0 7 -6 19q-32 41 -81.5 85.5t-89.5 78.5t-78 77t-59.5 99.5t-21.5 126.5q0 82 64 169.5t155.5 151.5t193 105t175.5 41q69 0 133 -56t64 -127q0 -62 -55 -147l-9 -15q-21 -22 -56 -60.5t-60.5 -67t-54.5 -57.5t-51 -44.5
t-36 -15.5t-73.5 23t-59.5 44q0 22 54.5 63t68.5 46q52 49 75 72.5t61 65.5t54.5 74t16.5 58q0 21 -5.5 31.5t-11.5 12t-18 1.5q-38 2 -100 -30l-8 -5l-7 -4q-4 -2 -28 -16l-35 -16q-39 -18 -58 -27.5t-56.5 -30.5t-58 -36t-48.5 -40t-42.5 -49t-25 -55.5t-10.5 -65.5
q0 -53 22 -99.5t56 -79t78 -69t84.5 -68.5t79 -80t59.5 -101q4 -10 4 -25q0 -41 -39 -72.5t-84 -45t-80 -13.5q-8 0 -20 0.5t-36.5 3.5t-40.5 10.5t-16 18.5z" />
    <glyph glyph-name="t" unicode="t" horiz-adv-x="839" 
d="M322 203q-23 575 -23 669v23q0 264 -31 264q-92 -35 -110 -35q-36 0 -66.5 21.5t-30.5 62.5t117.5 71t236 41t195.5 11q23 0 47 -3.5t53.5 -12.5t48.5 -29t19 -49q0 -57 -65 -57q-10 0 -28.5 7t-27.5 7h-176q-9 0 -21 -8.5t-18 -18.5q0 -144 13.5 -466.5t13.5 -462.5
q0 -34 -2.5 -53t-11.5 -28t-17 -10.5t-28 -1.5h-7q-38 0 -56 10t-25 48z" />
    <glyph glyph-name="u" unicode="u" horiz-adv-x="724" 
d="M203 229q-140 110 -140 359v20q0 166 29 258l2 2l-2 4l47 156q2 5 6.5 8.5t14 4.5t15.5 1.5t19.5 0t16.5 -0.5q90 0 90 -53q0 -27 -23 -77t-26 -62q-31 -110 -31 -262v-13q0 -249 92 -249q34 0 68 43q75 99 103 219t28 268q0 10 -0.5 29.5t-1.5 34.5v16q0 21 -11.5 60.5
t-11.5 58.5q0 16 62 16q27 0 47.5 -11t32.5 -32t19.5 -42t10.5 -51.5t4 -48.5t1 -44q0 -47 -3.5 -98.5t-13.5 -116t-25 -122.5t-41 -115t-59.5 -98.5t-81.5 -67t-106 -25.5t-131 30z" />
    <glyph glyph-name="v" unicode="v" horiz-adv-x="720" 
d="M160 485q-20 116 -53.5 341.5t-45.5 281.5q0 31 5.5 44.5t13.5 16t29 2.5q70 0 90 -20q12 -13 22 -78.5t17.5 -152t9.5 -97.5q3 -18 14 -112.5t21 -163t16 -68.5q17 11 49 144t74.5 306t77.5 253q0 35 10.5 53t38.5 18q47 0 78.5 -21.5t31.5 -68.5
q-77 -196 -112.5 -308.5t-104.5 -377.5q-7 -25 -20 -70.5t-23.5 -83t-17.5 -71.5q-27 -19 -72 -19q-24 0 -43.5 8.5t-33.5 27t-24 35t-18.5 46.5t-12 45.5t-9.5 49t-8 40.5z" />
    <glyph glyph-name="w" unicode="w" horiz-adv-x="1181" 
d="M61 1034q0 20 16.5 29.5t37.5 9.5q38 0 59.5 -5t32.5 -22t14 -34.5t6 -57.5q0 -6 3 -59.5t7.5 -106.5t10.5 -111.5t15.5 -95t21.5 -36.5l1 7q0 6 3 22.5t8 39t16 59t26 79.5t40.5 104t56.5 129q0 2 3 10.5t3 10.5q7 12 20 40.5t22 44.5t24.5 30t34.5 14q26 0 64 -16.5
t46 -39.5l123 -336q88 -239 90 -239v2q0 165 95 702q20 45 55 45q41 0 72.5 -22.5t31.5 -65.5q0 -3 -7 -36.5t-16 -81t-12 -78.5q-5 -37 -30 -130t-25 -153q0 -12 2 -18l-47 -193q-1 0 -3.5 -4t-2.5 -6q0 -5 -1 -16t-1 -15q-2 -39 -5.5 -58.5t-14.5 -40t-35 -28.5t-64 -8
q-61 0 -67 27l-50 100l-141 391q-5 14 -15.5 31.5t-19.5 17.5q-5 0 -9.5 -5t-9 -15t-8.5 -19t-9 -22t-7 -19q-5 -16 -162 -385l-4 -18q-6 -25 -9.5 -37t-12 -25t-22.5 -17.5t-36 -4.5q-31 0 -54 13t-36.5 30t-24 47.5t-15 52.5t-9.5 58l-47 317q-10 99 -16 137q-1 39 -13 80
z" />
    <glyph glyph-name="x" unicode="x" 
d="M86 344q0 13 4 23l166 407l2 8q0 18 -12 33l-172 250q-13 21 -13 51q0 28 13 37.5t41 9.5q38 0 71.5 -30.5t52 -67.5t39.5 -67.5t37 -30.5t23 14l119 272q2 7 16 7q38 0 79.5 -22.5t41.5 -63.5q0 -10 -3.5 -19.5t-6.5 -15.5t-10.5 -17t-10.5 -16l-129 -311
q15 -51 52 -99.5t83.5 -99t69.5 -88.5q10 -20 10 -39q0 -35 -45 -35q-12 0 -32.5 1t-34.5 1q-14 4 -32 27t-36.5 54t-24.5 38q-6 13 -36 43.5t-35 30.5q-13 0 -19 -11l-121 -292q0 -33 -53 -33q-51 0 -72.5 9.5t-21.5 41.5z" />
    <glyph glyph-name="y" unicode="y" 
d="M276 125q0 39 7.5 120t7.5 130q0 66 -9.5 113t-41.5 79q-23 24 -43 52t-36 66.5t-26.5 62.5t-23.5 76.5t-17 69t-16.5 78.5t-14.5 70q0 1 -1 10.5t-1 10.5q0 47 37 47q32 0 60.5 -17.5t38.5 -50.5q1 -5 8.5 -49t15.5 -81t19 -80.5t23.5 -69t25.5 -25.5q20 0 28 23
q8 22 58.5 125t52.5 108l6 13q9 16 43.5 82t56.5 98.5t37 32.5q30 0 54 -27t24 -62q0 -18 -20.5 -53t-22.5 -39q-130 -270 -205 -456q0 -44 10.5 -140.5t10.5 -146.5v-8v-37t-1.5 -42t-6 -48.5t-11 -39t-19 -32t-28.5 -10.5t-32.5 3t-32 14.5t-15.5 29.5z" />
    <glyph glyph-name="z" unicode="z" horiz-adv-x="819" 
d="M100 426q0 3 15 33q68 88 127 187.5t124 223t109 197.5q5 9 12 20.5t9.5 16.5t5 13t2.5 18q0 28 -31 28q-50 0 -143 -22.5t-142 -22.5h-4q-24 0 -39.5 1.5t-37.5 6t-34 17.5t-12 33t4.5 32.5t17 20t21.5 10.5t31 8l15 4q31 7 84 19.5t82 19t72.5 12t86.5 5.5
q56 0 101.5 -15t70.5 -51t10 -86q-53 -191 -274 -524q-4 -8 -30 -41.5t-47 -65t-21 -45.5q3 -6 26.5 -5.5t64 6t79 12t72 11t42.5 3.5q57 14 123 14t66 -59q0 -15 -23 -23h-6q-105 -29 -174.5 -42t-174 -25t-155.5 -19q-44 -5 -84.5 13t-40.5 61z" />
    <glyph glyph-name="Agrave" unicode="&#xc0;" horiz-adv-x="821" 
d="M162 213q0 38 11 113.5t11 113.5q0 25 -12.5 39t-30.5 21t-35.5 15t-30 28t-12.5 53q0 25 5 25l41 24h96q2 0 8 15.5t6 19.5l6 25q26 161 39.5 238t42 186.5t64.5 191.5q14 20 67 20q61 0 76 -63l238 -956q0 -2 3 -14t3 -17q2 -13 -5 -21t-23.5 -10.5t-29 -3t-32 0.5
t-21.5 1q-15 0 -32.5 70t-36 140.5t-37.5 70.5l-6 -2q-15 -4 -45.5 -13.5t-49 -14.5t-45 -11t-49.5 -9q-22 -24 -30.5 -70t-8.5 -92t-3 -89t-20.5 -70t-52.5 -27q-69 0 -69 72zM356 670q0 -13 4 -20.5t14 -10.5t17.5 -3.5t23.5 0.5t23 1q82 0 82 33l-11 47q-43 195 -63 264
q0 20 -3.5 25.5t-14.5 5.5q-21 0 -46.5 -143.5t-25.5 -198.5zM528 1452q2 -15 -9 -22.5t-40 -8.5q-18 -3 -37 2l-32 27q-25 6 -111 112l-18 21q-3 19 21.5 33t47.5 16q20 2 33.5 -8.5t25 -29t17.5 -23.5q67 -61 102 -119z" />
    <glyph glyph-name="Aacute" unicode="&#xc1;" horiz-adv-x="821" 
d="M162 213q0 38 11 113.5t11 113.5q0 25 -12.5 39t-30.5 21t-35.5 15t-30 28t-12.5 53q0 25 5 25l41 24h96q2 0 8 15.5t6 19.5l6 25q26 161 39.5 238t42 186.5t64.5 191.5q14 20 67 20q61 0 76 -63l238 -956q0 -2 3 -14t3 -17q2 -13 -5 -21t-23.5 -10.5t-29 -3t-32 0.5
t-21.5 1q-15 0 -32.5 70t-36 140.5t-37.5 70.5l-6 -2q-15 -4 -45.5 -13.5t-49 -14.5t-45 -11t-49.5 -9q-22 -24 -30.5 -70t-8.5 -92t-3 -89t-20.5 -70t-52.5 -27q-69 0 -69 72zM356 670q0 -13 4 -20.5t14 -10.5t17.5 -3.5t23.5 0.5t23 1q82 0 82 33l-11 47q-43 195 -63 264
q0 20 -3.5 25.5t-14.5 5.5q-21 0 -46.5 -143.5t-25.5 -198.5zM281 1452q35 58 102 119q6 5 17.5 23.5t25 29t33.5 8.5q23 -2 47.5 -16t21.5 -33l-18 -21q-86 -106 -111 -112l-32 -27q-19 -5 -37 -2q-29 1 -40 8.5t-9 22.5z" />
    <glyph glyph-name="Acircumflex" unicode="&#xc2;" horiz-adv-x="821" 
d="M162 213q0 38 11 113.5t11 113.5q0 25 -12.5 39t-30.5 21t-35.5 15t-30 28t-12.5 53q0 25 5 25l41 24h96q2 0 8 15.5t6 19.5l6 25q26 161 39.5 238t42 186.5t64.5 191.5q14 20 67 20q61 0 76 -63l238 -956q0 -2 3 -14t3 -17q2 -13 -5 -21t-23.5 -10.5t-29 -3t-32 0.5
t-21.5 1q-15 0 -32.5 70t-36 140.5t-37.5 70.5l-6 -2q-15 -4 -45.5 -13.5t-49 -14.5t-45 -11t-49.5 -9q-22 -24 -30.5 -70t-8.5 -92t-3 -89t-20.5 -70t-52.5 -27q-69 0 -69 72zM174 1452q59 66 139.5 135t106.5 68h10q93 -76 94 -78q6 -13 21 -31q9 -14 34 -33t41.5 -35
t12.5 -30q-11 -32 -45 -29q-23 2 -42 9t-37 22.5t-28.5 26t-30.5 35.5t-28 34q-17 4 -36.5 -9t-39 -34.5t-39 -43.5t-42.5 -37t-44 -13q-25 2 -39.5 13t-7.5 30zM356 670q0 -13 4 -20.5t14 -10.5t17.5 -3.5t23.5 0.5t23 1q82 0 82 33l-11 47q-43 195 -63 264q0 20 -3.5 25.5
t-14.5 5.5q-21 0 -46.5 -143.5t-25.5 -198.5z" />
    <glyph glyph-name="Atilde" unicode="&#xc3;" horiz-adv-x="821" 
d="M162 213q0 38 11 113.5t11 113.5q0 25 -12.5 39t-30.5 21t-35.5 15t-30 28t-12.5 53q0 25 5 25l41 24h96q2 0 8 15.5t6 19.5l6 25q26 161 39.5 238t42 186.5t64.5 191.5q14 20 67 20q61 0 76 -63l238 -956q0 -2 3 -14t3 -17q2 -13 -5 -21t-23.5 -10.5t-29 -3t-32 0.5
t-21.5 1q-15 0 -32.5 70t-36 140.5t-37.5 70.5l-6 -2q-15 -4 -45.5 -13.5t-49 -14.5t-45 -11t-49.5 -9q-22 -24 -30.5 -70t-8.5 -92t-3 -89t-20.5 -70t-52.5 -27q-69 0 -69 72zM346 1561q-21 28 -45 28q-22 0 -34 -23.5t-15.5 -52t-19 -52t-44.5 -23.5q-14 0 -22.5 6
t-11.5 18.5t-3.5 20.5t-0.5 24q0 41 12 80t42 69t72 30q39 0 83.5 -16.5t68.5 -43.5q9 -10 22 -38.5t26.5 -48t29.5 -19.5q30 0 44.5 29.5t14.5 62.5q0 14 -5 40t-5 40q0 20 18 20q35 0 64 -37.5t29 -72.5q0 -69 -53.5 -123t-123.5 -54q-93 0 -143 136zM356 670
q0 -13 4 -20.5t14 -10.5t17.5 -3.5t23.5 0.5t23 1q82 0 82 33l-11 47q-43 195 -63 264q0 20 -3.5 25.5t-14.5 5.5q-21 0 -46.5 -143.5t-25.5 -198.5z" />
    <glyph glyph-name="Adieresis" unicode="&#xc4;" horiz-adv-x="821" 
d="M162 213q0 38 11 113.5t11 113.5q0 25 -12.5 39t-30.5 21t-35.5 15t-30 28t-12.5 53q0 25 5 25l41 24h96q2 0 8 15.5t6 19.5l6 25q26 161 39.5 238t42 186.5t64.5 191.5q14 20 67 20q61 0 76 -63l238 -956q0 -2 3 -14t3 -17q2 -13 -5 -21t-23.5 -10.5t-29 -3t-32 0.5
t-21.5 1q-15 0 -32.5 70t-36 140.5t-37.5 70.5l-6 -2q-15 -4 -45.5 -13.5t-49 -14.5t-45 -11t-49.5 -9q-22 -24 -30.5 -70t-8.5 -92t-3 -89t-20.5 -70t-52.5 -27q-69 0 -69 72zM356 670q0 -13 4 -20.5t14 -10.5t17.5 -3.5t23.5 0.5t23 1q82 0 82 33l-11 47q-43 195 -63 264
q0 20 -3.5 25.5t-14.5 5.5q-21 0 -46.5 -143.5t-25.5 -198.5zM225 1491q0 35 11 50t43 15q33 0 63.5 -17t30.5 -46q0 -30 -25 -52t-55 -22q-32 0 -50 20t-18 52zM467 1513q0 24 7 33.5t30 9.5q37 0 64.5 -21t27.5 -56q0 -27 -10.5 -40.5t-38.5 -13.5q-32 0 -56 28t-24 60z
" />
    <glyph glyph-name="Aring" unicode="&#xc5;" horiz-adv-x="821" 
d="M162 213q0 38 11 113.5t11 113.5q0 25 -12.5 39t-30.5 21t-35.5 15t-30 28t-12.5 53q0 25 5 25l41 24h96q2 0 8 15.5t6 19.5l6 25q26 161 39.5 238t42 186.5t64.5 191.5q14 20 67 20q61 0 76 -63l238 -956q0 -2 3 -14t3 -17q2 -13 -5 -21t-23.5 -10.5t-29 -3t-32 0.5
t-21.5 1q-15 0 -32.5 70t-36 140.5t-37.5 70.5l-6 -2q-15 -4 -45.5 -13.5t-49 -14.5t-45 -11t-49.5 -9q-22 -24 -30.5 -70t-8.5 -92t-3 -89t-20.5 -70t-52.5 -27q-69 0 -69 72zM285 1516q0 47 33.5 93.5t84.5 53.5q73 9 111.5 -27.5t38.5 -99.5q0 -47 -52.5 -81t-103.5 -34
q-46 0 -79 26t-33 69zM356 670q0 -13 4 -20.5t14 -10.5t17.5 -3.5t23.5 0.5t23 1q82 0 82 33l-11 47q-43 195 -63 264q0 20 -3.5 25.5t-14.5 5.5q-21 0 -46.5 -143.5t-25.5 -198.5zM360 1520q0 -17 13 -31t30 -14q29 0 55.5 23.5t26.5 47.5q0 22 -20.5 47t-42.5 25
q-34 -23 -48 -43.5t-14 -54.5z" />
    <glyph glyph-name="AE" unicode="&#xc6;" horiz-adv-x="1081" 
d="M555 1223q61 0 66 -64l2 -35q45 -10 53 -10q25 0 72.5 4t70.5 4h6q27 0 42.5 -1t37 -5t31.5 -15t10 -28q0 -27 -49 -41t-108.5 -26t-75.5 -33q-13 -13 -13 -35v-6q-18 -166 -18 -217q0 -4 -1 -15t-1.5 -20t0.5 -18.5t6 -15t14 -5.5q30 0 84 30.5t84 30.5q25 0 39.5 -17
t14.5 -40q0 -33 -26 -56t-63.5 -36.5l-75 -27t-63.5 -37.5t-26 -58q0 -23 0.5 -34t2 -38.5t6.5 -44t13.5 -35.5t23 -28.5t34.5 -9.5q46 0 100 43q113 106 123 106q49 0 49 -63q0 -20 -5 -31.5t-20 -30.5q-69 -71 -134 -100t-161 -29q-25 0 -45.5 4.5t-36 10.5t-28.5 19.5
t-21 23t-15.5 29.5t-11 31t-7.5 36t-5 35.5t-4 37.5l-4 37q-75 -15 -192 -28q-31 -29 -48 -91.5t-23.5 -117t-30 -97t-66.5 -42.5q-70 0 -60 71q6 38 30 114t30 114q3 25 -7.5 39t-27.5 20.5t-33.5 15t-26 28t-4.5 52.5q1 1 2 8t2.5 12t4.5 5l45 24h96q1 0 9.5 15t10.5 20
l11 25q50 161 75.5 238t71 186.5t94.5 191.5q8 10 30 15.5t40 5.5zM369 551q-1 -11 1.5 -18t7 -10.5t13.5 -5t16 -1t19.5 1t19.5 0.5q29 0 43 2q0 15 12.5 33t14.5 25q19 97 19 276q0 24 -15 39h-26q-21 0 -69 -144t-56 -198z" />
    <glyph glyph-name="Ccedilla" unicode="&#xc7;" horiz-adv-x="675" 
d="M299 -141q0 14 20.5 23.5t45 15.5t46 25.5t23.5 51.5q-8 13 -35 13q-8 0 -24 -2t-25 -2q-43 0 -53 26q0 25 -10 148q-63 14 -109 56.5t-70.5 106t-35.5 133.5t-11 152q0 65 12.5 141t39 157.5t76.5 145t116 85.5q32 11 62.5 13.5t55.5 -5.5t32.5 -30.5t-6.5 -61.5
q-12 -9 -39 -16.5t-39 -14.5q-48 -26 -83 -103t-49 -155t-14 -144q0 -44 5.5 -94t19.5 -112t45.5 -102t75.5 -40q27 0 58 17.5t54 39t50.5 39t48.5 17.5q18 0 25 -9t7 -30q0 -75 -63 -123.5t-145 -64.5q2 -13 2 -84q5 -12 26 -18.5t43 -9.5t40 -16t18 -36q0 -62 -38.5 -97.5
t-140.5 -62.5q-18 0 -27.5 1t-19.5 7t-10 19z" />
    <glyph glyph-name="Egrave" unicode="&#xc8;" horiz-adv-x="708" 
d="M117 504q0 15 12 32.5t14 24.5q19 97 19 277q0 25 -16 41.5t-34.5 23.5t-34.5 23t-16 41q0 21 9 26l96 58q10 6 14 17t4.5 20.5t7.5 17t23 8.5q15 0 44 -8t44 -8q25 0 72.5 4t70.5 4h7q27 0 42 -1t36.5 -5t31.5 -15t10 -28q0 -27 -49 -41t-108.5 -26.5t-75.5 -33.5
q-12 -12 -12 -34v-7q-19 -176 -19 -217q0 -4 -1 -15t-1 -19.5t1 -18t6 -15t14 -5.5q30 0 84.5 30.5t83.5 30.5q25 0 39 -17t14 -40q0 -33 -26 -56t-63.5 -36.5l-75 -27t-63.5 -37.5t-26 -58q0 -23 0.5 -34t2 -39t6.5 -44t13.5 -35.5t23 -29t34.5 -9.5q46 0 100 43
q114 107 123 107q26 0 37.5 -18.5t11.5 -45.5q0 -20 -4.5 -31t-19.5 -30q-69 -71 -134 -100t-161 -29q-45 0 -77 15t-49 36.5t-27.5 56.5t-14 64t-8 71t-9.5 66q-26 60 -26 76zM414 1219q2 -15 -9 -22.5t-40 -8.5q-18 -3 -37 2l-33 27q-25 6 -111 112l-18 21q-3 19 22 33
t48 16q20 2 33.5 -9t24.5 -29.5t17 -23.5q71 -64 103 -118z" />
    <glyph glyph-name="Eacute" unicode="&#xc9;" horiz-adv-x="708" 
d="M117 504q0 15 12 32.5t14 24.5q19 97 19 277q0 25 -16 41.5t-34.5 23.5t-34.5 23t-16 41q0 21 9 26l96 58q10 6 14 17t4.5 20.5t7.5 17t23 8.5q15 0 44 -8t44 -8q25 0 72.5 4t70.5 4h7q27 0 42 -1t36.5 -5t31.5 -15t10 -28q0 -27 -49 -41t-108.5 -26.5t-75.5 -33.5
q-12 -12 -12 -34v-7q-19 -176 -19 -217q0 -4 -1 -15t-1 -19.5t1 -18t6 -15t14 -5.5q30 0 84.5 30.5t83.5 30.5q25 0 39 -17t14 -40q0 -33 -26 -56t-63.5 -36.5l-75 -27t-63.5 -37.5t-26 -58q0 -23 0.5 -34t2 -39t6.5 -44t13.5 -35.5t23 -29t34.5 -9.5q46 0 100 43
q114 107 123 107q26 0 37.5 -18.5t11.5 -45.5q0 -20 -4.5 -31t-19.5 -30q-69 -71 -134 -100t-161 -29q-45 0 -77 15t-49 36.5t-27.5 56.5t-14 64t-8 71t-9.5 66q-26 60 -26 76zM166 1219q34 56 102 118q6 5 17.5 23.5t25 29.5t33.5 9q23 -2 48 -16t22 -33l-18 -21
q-86 -106 -111 -112l-33 -27q-19 -5 -37 -2q-29 1 -40 8.5t-9 22.5z" />
    <glyph glyph-name="Ecircumflex" unicode="&#xca;" horiz-adv-x="708" 
d="M117 504q0 15 12 32.5t14 24.5q19 97 19 277q0 25 -16 41.5t-34.5 23.5t-34.5 23t-16 41q0 21 9 26l96 58q10 6 14 17t4.5 20.5t7.5 17t23 8.5q15 0 44 -8t44 -8q25 0 72.5 4t70.5 4h7q27 0 42 -1t36.5 -5t31.5 -15t10 -28q0 -27 -49 -41t-108.5 -26.5t-75.5 -33.5
q-12 -12 -12 -34v-7q-19 -176 -19 -217q0 -4 -1 -15t-1 -19.5t1 -18t6 -15t14 -5.5q30 0 84.5 30.5t83.5 30.5q25 0 39 -17t14 -40q0 -33 -26 -56t-63.5 -36.5l-75 -27t-63.5 -37.5t-26 -58q0 -23 0.5 -34t2 -39t6.5 -44t13.5 -35.5t23 -29t34.5 -9.5q46 0 100 43
q114 107 123 107q26 0 37.5 -18.5t11.5 -45.5q0 -20 -4.5 -31t-19.5 -30q-69 -71 -134 -100t-161 -29q-45 0 -77 15t-49 36.5t-27.5 56.5t-14 64t-8 71t-9.5 66q-26 60 -26 76zM59 1219q58 65 139 134t107 68h10l95 -78q7 -13 20 -30q9 -14 34 -33t41.5 -35.5t12.5 -30.5
q-10 -31 -45 -28q-23 2 -42 9t-37 22.5t-28.5 26t-30.5 35.5t-28 34q-17 4 -36.5 -9t-39 -34.5t-39 -43.5t-42.5 -37t-44 -13q-25 2 -39.5 13t-7.5 30z" />
    <glyph glyph-name="Edieresis" unicode="&#xcb;" horiz-adv-x="708" 
d="M117 504q0 15 12 32.5t14 24.5q19 97 19 277q0 25 -16 41.5t-34.5 23.5t-34.5 23t-16 41q0 21 9 26l96 58q10 6 14 17t4.5 20.5t7.5 17t23 8.5q15 0 44 -8t44 -8q25 0 72.5 4t70.5 4h7q27 0 42 -1t36.5 -5t31.5 -15t10 -28q0 -27 -49 -41t-108.5 -26.5t-75.5 -33.5
q-12 -12 -12 -34v-7q-19 -176 -19 -217q0 -4 -1 -15t-1 -19.5t1 -18t6 -15t14 -5.5q30 0 84.5 30.5t83.5 30.5q25 0 39 -17t14 -40q0 -33 -26 -56t-63.5 -36.5l-75 -27t-63.5 -37.5t-26 -58q0 -23 0.5 -34t2 -39t6.5 -44t13.5 -35.5t23 -29t34.5 -9.5q46 0 100 43
q114 107 123 107q26 0 37.5 -18.5t11.5 -45.5q0 -20 -4.5 -31t-19.5 -30q-69 -71 -134 -100t-161 -29q-45 0 -77 15t-49 36.5t-27.5 56.5t-14 64t-8 71t-9.5 66q-26 60 -26 76zM111 1257q0 35 10.5 50.5t42.5 15.5q33 0 63.5 -17t30.5 -46q0 -30 -25 -52t-55 -22
q-31 0 -49 19.5t-18 51.5zM352 1280q0 24 7 33.5t30 9.5q37 0 64.5 -21.5t27.5 -56.5q0 -27 -10.5 -40t-38.5 -13q-32 0 -56 28t-24 60z" />
    <glyph glyph-name="Igrave" unicode="&#xcc;" horiz-adv-x="325" 
d="M74 166q-6 58 -8.5 129t-3 111.5t0 123.5t0.5 97l39 413v7q5 118 64 118q44 0 71 -20t27 -62q-65 -241 -65 -571q0 -193 24 -387q2 -25 -49 -25q-42 0 -67.5 14t-32.5 52zM303 1296q2 -15 -9 -22t-40 -8q-18 -3 -37 2l-33 26q-25 6 -111 112l-18 21q-3 19 22.5 33.5
t47.5 16.5q20 2 33.5 -9t25 -29.5t17.5 -23.5q67 -61 102 -119z" />
    <glyph glyph-name="Iacute" unicode="&#xcd;" horiz-adv-x="325" 
d="M74 166q-6 58 -8.5 129t-3 111.5t0 123.5t0.5 97l39 413v7q5 118 64 118q44 0 71 -20t27 -62q-65 -241 -65 -571q0 -193 24 -387q2 -25 -49 -25q-42 0 -67.5 14t-32.5 52zM55 1296q34 56 103 119q6 5 17 23.5t24.5 29.5t33.5 9q22 -2 47.5 -16.5t22.5 -33.5l-18 -21
q-86 -106 -111 -112l-33 -26q-19 -5 -37 -2q-29 1 -40 8t-9 22z" />
    <glyph glyph-name="Icircumflex" unicode="&#xce;" horiz-adv-x="325" 
d="M74 166q-6 58 -8.5 129t-3 111.5t0 123.5t0.5 97l39 413v7q5 118 64 118q44 0 71 -20t27 -62q-65 -241 -65 -571q0 -193 24 -387q2 -25 -49 -25q-42 0 -67.5 14t-32.5 52zM-51 1296q59 66 139.5 135t106.5 68h10q93 -76 94 -78q7 -13 20 -30q9 -14 34.5 -33t42 -35.5
t12.5 -30.5q-10 -31 -46 -28q-23 2 -42 9t-37 22.5t-28 26t-29.5 35t-28.5 34.5q-20 5 -46.5 -16t-48.5 -49.5t-51.5 -51.5t-54.5 -21t-39.5 13t-7.5 30z" />
    <glyph glyph-name="Idieresis" unicode="&#xcf;" horiz-adv-x="325" 
d="M74 166q-6 58 -8.5 129t-3 111.5t0 123.5t0.5 97l39 413v7q5 118 64 118q44 0 71 -20t27 -62q-65 -241 -65 -571q0 -193 24 -387q2 -25 -49 -25q-42 0 -67.5 14t-32.5 52zM0 1335q0 35 10.5 50.5t42.5 15.5q33 0 63.5 -17.5t30.5 -46.5q0 -30 -24.5 -51.5t-54.5 -21.5
q-32 0 -50 20t-18 51zM242 1358q0 24 7 33.5t30 9.5q37 0 64.5 -21.5t27.5 -56.5q0 -27 -10.5 -40t-38.5 -13q-32 0 -56 28t-24 60z" />
    <glyph glyph-name="Ograve" unicode="&#xd2;" 
d="M61 518q0 158 40.5 303.5t131.5 243.5q24 27 36 38.5t34.5 22.5t48.5 11q21 0 52.5 -8t60.5 -27t29 -43v-10q7 -19 30 -47.5t29 -40.5q96 -181 96 -367q0 -54 -11.5 -114t-36.5 -120.5t-60 -109t-87 -79t-112 -30.5q-36 0 -81 17.5t-62 34.5q-85 82 -111.5 144.5
t-26.5 180.5zM203 524v-8q0 -47 1.5 -76t13 -72t34.5 -67q2 -2 11.5 -14t15 -17.5t15.5 -11.5t19 -6q38 0 78.5 51t64 105.5t33.5 95.5q17 69 17 153q0 104 -35 224t-84 120q-22 0 -41 -28v-2q-143 -201 -143 -447zM467 1251q2 -15 -9 -22t-40 -8q-18 -3 -37 2l-33 26
q-25 6 -111 112l-18 21q-3 19 22.5 33.5t47.5 16.5q20 2 33.5 -9t25 -29.5t17.5 -23.5q67 -61 102 -119z" />
    <glyph glyph-name="Oacute" unicode="&#xd3;" 
d="M61 518q0 158 40.5 303.5t131.5 243.5q24 27 36 38.5t34.5 22.5t48.5 11q21 0 52.5 -8t60.5 -27t29 -43v-10q7 -19 30 -47.5t29 -40.5q96 -181 96 -367q0 -54 -11.5 -114t-36.5 -120.5t-60 -109t-87 -79t-112 -30.5q-36 0 -81 17.5t-62 34.5q-85 82 -111.5 144.5
t-26.5 180.5zM203 524v-8q0 -47 1.5 -76t13 -72t34.5 -67q2 -2 11.5 -14t15 -17.5t15.5 -11.5t19 -6q38 0 78.5 51t64 105.5t33.5 95.5q17 69 17 153q0 104 -35 224t-84 120q-22 0 -41 -28v-2q-143 -201 -143 -447zM219 1251q34 56 103 119q6 5 17 23.5t24.5 29.5t33.5 9
q22 -2 47.5 -16.5t22.5 -33.5l-18 -21q-86 -106 -111 -112l-33 -26q-19 -5 -37 -2q-29 1 -40 8t-9 22z" />
    <glyph glyph-name="Ocircumflex" unicode="&#xd4;" 
d="M61 518q0 158 40.5 303.5t131.5 243.5q24 27 36 38.5t34.5 22.5t48.5 11q21 0 52.5 -8t60.5 -27t29 -43v-10q7 -19 30 -47.5t29 -40.5q96 -181 96 -367q0 -54 -11.5 -114t-36.5 -120.5t-60 -109t-87 -79t-112 -30.5q-36 0 -81 17.5t-62 34.5q-85 82 -111.5 144.5
t-26.5 180.5zM203 524v-8q0 -47 1.5 -76t13 -72t34.5 -67q2 -2 11.5 -14t15 -17.5t15.5 -11.5t19 -6q38 0 78.5 51t64 105.5t33.5 95.5q17 69 17 153q0 104 -35 224t-84 120q-22 0 -41 -28v-2q-143 -201 -143 -447zM113 1251q59 66 139.5 135t105.5 68h11q93 -76 94 -78
q7 -13 20 -30q9 -14 34 -33t41.5 -35.5t12.5 -30.5q-10 -31 -45 -28q-23 2 -42 9t-37 22.5t-28.5 26t-30.5 35.5t-28 34q-17 4 -36.5 -9t-38.5 -34.5t-38.5 -43.5t-42.5 -37.5t-44 -13.5q-25 2 -39.5 13t-7.5 30z" />
    <glyph glyph-name="Otilde" unicode="&#xd5;" 
d="M61 518q0 158 40.5 303.5t131.5 243.5q24 27 36 38.5t34.5 22.5t48.5 11q21 0 52.5 -8t60.5 -27t29 -43v-10q7 -19 30 -47.5t29 -40.5q96 -181 96 -367q0 -54 -11.5 -114t-36.5 -120.5t-60 -109t-87 -79t-112 -30.5q-36 0 -81 17.5t-62 34.5q-85 82 -111.5 144.5
t-26.5 180.5zM203 524v-8q0 -47 1.5 -76t13 -72t34.5 -67q2 -2 11.5 -14t15 -17.5t15.5 -11.5t19 -6q38 0 78.5 51t64 105.5t33.5 95.5q17 69 17 153q0 104 -35 224t-84 120q-22 0 -41 -28v-2q-143 -201 -143 -447zM285 1360q-22 29 -45 29q-22 0 -34 -23.5t-15.5 -52.5
t-19 -52.5t-44.5 -23.5q-18 0 -27.5 13t-10.5 24.5t-1 32.5q0 41 12.5 80t42.5 68.5t72 29.5q39 0 83.5 -16.5t68.5 -43.5q9 -10 21.5 -38.5t26 -48t29.5 -19.5q30 0 45 29.5t15 62.5q0 15 -5 40t-5 40q0 20 18 20q35 0 63.5 -37.5t28.5 -72.5q0 -69 -53 -122.5t-123 -53.5
q-94 0 -143 135z" />
    <glyph glyph-name="Odieresis" unicode="&#xd6;" 
d="M61 518q0 158 40.5 303.5t131.5 243.5q24 27 36 38.5t34.5 22.5t48.5 11q21 0 52.5 -8t60.5 -27t29 -43v-10q7 -19 30 -47.5t29 -40.5q96 -181 96 -367q0 -54 -11.5 -114t-36.5 -120.5t-60 -109t-87 -79t-112 -30.5q-36 0 -81 17.5t-62 34.5q-85 82 -111.5 144.5
t-26.5 180.5zM203 524v-8q0 -47 1.5 -76t13 -72t34.5 -67q2 -2 11.5 -14t15 -17.5t15.5 -11.5t19 -6q38 0 78.5 51t64 105.5t33.5 95.5q17 69 17 153q0 104 -35 224t-84 120q-22 0 -41 -28v-2q-143 -201 -143 -447zM164 1290q0 35 10.5 50.5t42.5 15.5q33 0 63.5 -17.5
t30.5 -46.5q0 -30 -25 -51.5t-55 -21.5q-31 0 -49 19.5t-18 51.5zM406 1313q0 24 6.5 33.5t29.5 9.5q37 0 65 -21.5t28 -56.5q0 -26 -11 -39.5t-39 -13.5q-32 0 -55.5 28t-23.5 60z" />
    <glyph glyph-name="Oslash" unicode="&#xd8;" 
d="M147 150q4 27 19 73q-62 67 -83.5 127.5t-21.5 167.5q0 158 40.5 303.5t131.5 243.5q24 27 36 38.5t34.5 22.5t48.5 11q42 0 94 -25l43 123q52 -3 89 -37q-6 -34 -12 -52t-7 -24l-39 -118q25 -30 33 -43q96 -181 96 -367q0 -54 -11.5 -114t-36.5 -120.5t-60 -109t-87 -79
t-112 -30.5q-37 0 -88 19q-8 -25 -22 -50.5t-26.5 -39.5t-17.5 -11q-53 19 -41 91zM506 657q0 91 -29 201q-80 -264 -192 -596q13 -10 28 -10q38 0 78.5 51t64 105.5t33.5 95.5q17 69 17 153zM203 524v-8q0 -100 12 -147q2 2 2 4l193 620q-12 8 -23 8q-22 0 -41 -28v-2
q-143 -201 -143 -447z" />
    <glyph glyph-name="Ugrave" unicode="&#xd9;" horiz-adv-x="743" 
d="M76 375v600q-1 4 -3.5 26.5t-5 43.5t-4.5 28v5.5v6.5t0.5 5.5t2 5.5t4 5t6.5 5h12q22 0 33.5 -0.5t32 -1.5t32.5 -4t25 -8t19 -13.5t6 -19.5q0 -17 -7 -45v-53q0 -71 -3 -212t-3 -210q0 -28 3 -73t9.5 -104.5t21 -101t34.5 -41.5q9 0 20 8.5t22 24.5t18.5 28.5t18.5 32
t13 23.5q86 192 116.5 291t30.5 215q0 65 -55 221v18q9 0 27.5 1t27.5 1q89 0 107 -57l6 -20q39 -106 39 -185q0 -19 -1 -36t-4.5 -37.5t-5.5 -31t-8 -37.5l-8 -36q-12 -52 -27 -102t-39 -118t-54 -123.5t-67.5 -105.5t-85.5 -78t-101 -28q-31 0 -56 7t-42.5 17t-32 30
t-23 35t-17.5 45t-12.5 47t-10.5 53t-11 53zM467 1194q2 -15 -9 -22.5t-40 -8.5q-18 -3 -37 2l-33 27q-25 6 -111 112l-18 21q-3 19 22 33t48 16q20 2 33.5 -8.5t25 -29t17.5 -23.5q67 -61 102 -119z" />
    <glyph glyph-name="Uacute" unicode="&#xda;" horiz-adv-x="743" 
d="M76 375v600q-1 4 -3.5 26.5t-5 43.5t-4.5 28v5.5v6.5t0.5 5.5t2 5.5t4 5t6.5 5h12q22 0 33.5 -0.5t32 -1.5t32.5 -4t25 -8t19 -13.5t6 -19.5q0 -17 -7 -45v-53q0 -71 -3 -212t-3 -210q0 -28 3 -73t9.5 -104.5t21 -101t34.5 -41.5q9 0 20 8.5t22 24.5t18.5 28.5t18.5 32
t13 23.5q86 192 116.5 291t30.5 215q0 65 -55 221v18q9 0 27.5 1t27.5 1q89 0 107 -57l6 -20q39 -106 39 -185q0 -19 -1 -36t-4.5 -37.5t-5.5 -31t-8 -37.5l-8 -36q-12 -52 -27 -102t-39 -118t-54 -123.5t-67.5 -105.5t-85.5 -78t-101 -28q-31 0 -56 7t-42.5 17t-32 30
t-23 35t-17.5 45t-12.5 47t-10.5 53t-11 53zM219 1194q34 56 103 119q6 5 17 23.5t24.5 29t33.5 8.5q23 -2 48 -16t22 -33l-18 -21q-86 -106 -111 -112l-33 -27q-19 -5 -37 -2q-29 1 -40 8.5t-9 22.5z" />
    <glyph glyph-name="Ucircumflex" unicode="&#xdb;" horiz-adv-x="743" 
d="M76 375v600q-1 4 -3.5 26.5t-5 43.5t-4.5 28v5.5v6.5t0.5 5.5t2 5.5t4 5t6.5 5h12q22 0 33.5 -0.5t32 -1.5t32.5 -4t25 -8t19 -13.5t6 -19.5q0 -17 -7 -45v-53q0 -71 -3 -212t-3 -210q0 -28 3 -73t9.5 -104.5t21 -101t34.5 -41.5q9 0 20 8.5t22 24.5t18.5 28.5t18.5 32
t13 23.5q86 192 116.5 291t30.5 215q0 65 -55 221v18q9 0 27.5 1t27.5 1q89 0 107 -57l6 -20q39 -106 39 -185q0 -19 -1 -36t-4.5 -37.5t-5.5 -31t-8 -37.5l-8 -36q-12 -52 -27 -102t-39 -118t-54 -123.5t-67.5 -105.5t-85.5 -78t-101 -28q-31 0 -56 7t-42.5 17t-32 30
t-23 35t-17.5 45t-12.5 47t-10.5 53t-11 53zM113 1194q59 66 139.5 135t105.5 68h11q93 -76 94 -78q8 -16 20 -31q9 -14 34 -33t41.5 -35t12.5 -30q-11 -32 -45 -29q-23 2 -42 9t-37 22.5t-28.5 26t-30.5 35.5t-28 34q-20 5 -46 -15.5t-48 -49t-51.5 -51.5t-54.5 -21
t-39.5 13t-7.5 30z" />
    <glyph glyph-name="Udieresis" unicode="&#xdc;" horiz-adv-x="743" 
d="M76 375v600q-1 4 -3.5 26.5t-5 43.5t-4.5 28v5.5v6.5t0.5 5.5t2 5.5t4 5t6.5 5h12q22 0 33.5 -0.5t32 -1.5t32.5 -4t25 -8t19 -13.5t6 -19.5q0 -17 -7 -45v-53q0 -71 -3 -212t-3 -210q0 -28 3 -73t9.5 -104.5t21 -101t34.5 -41.5q9 0 20 8.5t22 24.5t18.5 28.5t18.5 32
t13 23.5q86 192 116.5 291t30.5 215q0 65 -55 221v18q9 0 27.5 1t27.5 1q89 0 107 -57l6 -20q39 -106 39 -185q0 -19 -1 -36t-4.5 -37.5t-5.5 -31t-8 -37.5l-8 -36q-12 -52 -27 -102t-39 -118t-54 -123.5t-67.5 -105.5t-85.5 -78t-101 -28q-31 0 -56 7t-42.5 17t-32 30
t-23 35t-17.5 45t-12.5 47t-10.5 53t-11 53zM164 1233q0 35 10.5 50t42.5 15q33 0 63.5 -17t30.5 -46q0 -30 -25 -52t-55 -22q-31 0 -49 20t-18 52zM406 1255q0 24 6.5 33.5t29.5 9.5q37 0 65 -21t28 -56q0 -54 -50 -54q-32 0 -55.5 28t-23.5 60z" />
    <glyph glyph-name="agrave" unicode="&#xe0;" horiz-adv-x="763" 
d="M94 346q-1 21 14 63t17 50l29 82q3 15 -11 26t-32.5 16.5t-34 16.5t-15.5 27q0 11 18 17.5t40.5 10.5t44.5 20t29 44q17 72 44 175t40.5 157t24.5 128t11 144v20l11 11q0 -1 17.5 0.5t42 3.5t36.5 2q29 0 38 -17.5t11 -48.5l143 -575q2 -9 10.5 -26t10.5 -23
q1 -40 7.5 -83.5t14 -73t21 -81t20.5 -78.5q6 -24 6 -41q0 -16 -10 -31.5t-26 -15.5q-33 0 -52 5t-30.5 20.5t-16.5 29t-12 46.5q0 8 -2 14q-3 15 -9.5 50.5t-11.5 56.5t-14 46t-22.5 37.5t-32.5 12.5q-119 0 -154 -17q-22 -10 -33.5 -47t-14.5 -77.5t-17 -84t-39 -63.5h-12
q-99 0 -99 51zM317 694q0 -14 17 -24q1 0 24.5 -1t42.5 -1t38.5 2t23.5 8l10 8q2 2 2 16q0 33 -29.5 162t-54.5 129q-5 0 -10.5 -11t-11 -33t-9 -37t-8.5 -42t-6 -30q-3 -11 -11.5 -44t-13 -57t-4.5 -45zM496 1477q2 -15 -9.5 -22.5t-40.5 -8.5q-18 -3 -36 2l-33 27
q-25 6 -111 112l-18 21q-3 19 21.5 33t47.5 16q20 2 33.5 -9t25 -29.5t17.5 -23.5q71 -64 103 -118z" />
    <glyph glyph-name="aacute" unicode="&#xe1;" horiz-adv-x="763" 
d="M94 346q-1 21 14 63t17 50l29 82q3 15 -11 26t-32.5 16.5t-34 16.5t-15.5 27q0 11 18 17.5t40.5 10.5t44.5 20t29 44q17 72 44 175t40.5 157t24.5 128t11 144v20l11 11q0 -1 17.5 0.5t42 3.5t36.5 2q29 0 38 -17.5t11 -48.5l143 -575q2 -9 10.5 -26t10.5 -23
q1 -40 7.5 -83.5t14 -73t21 -81t20.5 -78.5q6 -24 6 -41q0 -16 -10 -31.5t-26 -15.5q-33 0 -52 5t-30.5 20.5t-16.5 29t-12 46.5q0 8 -2 14q-3 15 -9.5 50.5t-11.5 56.5t-14 46t-22.5 37.5t-32.5 12.5q-119 0 -154 -17q-22 -10 -33.5 -47t-14.5 -77.5t-17 -84t-39 -63.5h-12
q-99 0 -99 51zM317 694q0 -14 17 -24q1 0 24.5 -1t42.5 -1t38.5 2t23.5 8l10 8q2 2 2 16q0 33 -29.5 162t-54.5 129q-5 0 -10.5 -11t-11 -33t-9 -37t-8.5 -42t-6 -30q-3 -11 -11.5 -44t-13 -57t-4.5 -45zM248 1477q34 56 102 118q6 5 17.5 23.5t25 29.5t33.5 9q23 -2 48 -16
t22 -33l-18 -21q-86 -106 -111 -112l-33 -27q-19 -5 -37 -2q-29 1 -40 8.5t-9 22.5z" />
    <glyph glyph-name="acircumflex" unicode="&#xe2;" horiz-adv-x="763" 
d="M94 346q-1 21 14 63t17 50l29 82q3 15 -11 26t-32.5 16.5t-34 16.5t-15.5 27q0 11 18 17.5t40.5 10.5t44.5 20t29 44q17 72 44 175t40.5 157t24.5 128t11 144v20l11 11q0 -1 17.5 0.5t42 3.5t36.5 2q29 0 38 -17.5t11 -48.5l143 -575q2 -9 10.5 -26t10.5 -23
q1 -40 7.5 -83.5t14 -73t21 -81t20.5 -78.5q6 -24 6 -41q0 -16 -10 -31.5t-26 -15.5q-33 0 -52 5t-30.5 20.5t-16.5 29t-12 46.5q0 8 -2 14q-3 15 -9.5 50.5t-11.5 56.5t-14 46t-22.5 37.5t-32.5 12.5q-119 0 -154 -17q-22 -10 -33.5 -47t-14.5 -77.5t-17 -84t-39 -63.5h-12
q-99 0 -99 51zM141 1477q58 65 139 134t107 68h10q48 -39 83 -66q11 -9 12 -11q8 -16 20 -31q9 -14 34 -33t41.5 -35t12.5 -30q-11 -32 -45 -29q-23 2 -42 9t-37 22.5t-28.5 26t-30.5 35.5t-28 34q-17 4 -36.5 -9t-39 -34.5t-39 -43.5t-42.5 -37t-44 -13q-25 2 -39.5 13
t-7.5 30zM317 694q0 -14 17 -24q1 0 24.5 -1t42.5 -1t38.5 2t23.5 8l10 8q2 2 2 16q0 33 -29.5 162t-54.5 129q-5 0 -10.5 -11t-11 -33t-9 -37t-8.5 -42t-6 -30q-3 -11 -11.5 -44t-13 -57t-4.5 -45z" />
    <glyph glyph-name="atilde" unicode="&#xe3;" horiz-adv-x="763" 
d="M94 346q-1 21 14 63t17 50l29 82q3 15 -11 26t-32.5 16.5t-34 16.5t-15.5 27q0 11 18 17.5t40.5 10.5t44.5 20t29 44q17 72 44 175t40.5 157t24.5 128t11 144v20l11 11q0 -1 17.5 0.5t42 3.5t36.5 2q29 0 38 -17.5t11 -48.5l143 -575q2 -9 10.5 -26t10.5 -23
q1 -40 7.5 -83.5t14 -73t21 -81t20.5 -78.5q6 -24 6 -41q0 -16 -10 -31.5t-26 -15.5q-33 0 -52 5t-30.5 20.5t-16.5 29t-12 46.5q0 8 -2 14q-3 15 -9.5 50.5t-11.5 56.5t-14 46t-22.5 37.5t-32.5 12.5q-119 0 -154 -17q-22 -10 -33.5 -47t-14.5 -77.5t-17 -84t-39 -63.5h-12
q-99 0 -99 51zM313 1585q-22 29 -45 29q-22 0 -34 -24t-15.5 -52t-18.5 -52t-44 -24q-18 0 -27.5 13t-10.5 24.5t-1 32.5q0 41 12.5 80t42.5 68.5t72 29.5q39 0 83 -16.5t68 -42.5q9 -10 22 -39t26.5 -48.5t29.5 -19.5q30 0 44.5 29.5t14.5 62.5q0 14 -5 40t-5 40
q0 21 19 21q35 0 63.5 -38t28.5 -73q0 -69 -53 -122.5t-123 -53.5q-52 0 -87.5 39t-56.5 96zM317 694q0 -14 17 -24q1 0 24.5 -1t42.5 -1t38.5 2t23.5 8l10 8q2 2 2 16q0 33 -29.5 162t-54.5 129q-5 0 -10.5 -11t-11 -33t-9 -37t-8.5 -42t-6 -30q-3 -11 -11.5 -44t-13 -57
t-4.5 -45z" />
    <glyph glyph-name="adieresis" unicode="&#xe4;" horiz-adv-x="763" 
d="M94 346q-1 21 14 63t17 50l29 82q3 15 -11 26t-32.5 16.5t-34 16.5t-15.5 27q0 11 18 17.5t40.5 10.5t44.5 20t29 44q17 72 44 175t40.5 157t24.5 128t11 144v20l11 11q0 -1 17.5 0.5t42 3.5t36.5 2q29 0 38 -17.5t11 -48.5l143 -575q2 -9 10.5 -26t10.5 -23
q1 -40 7.5 -83.5t14 -73t21 -81t20.5 -78.5q6 -24 6 -41q0 -16 -10 -31.5t-26 -15.5q-33 0 -52 5t-30.5 20.5t-16.5 29t-12 46.5q0 8 -2 14q-3 15 -9.5 50.5t-11.5 56.5t-14 46t-22.5 37.5t-32.5 12.5q-119 0 -154 -17q-22 -10 -33.5 -47t-14.5 -77.5t-17 -84t-39 -63.5h-12
q-99 0 -99 51zM317 694q0 -14 17 -24q1 0 24.5 -1t42.5 -1t38.5 2t23.5 8l10 8q2 2 2 16q0 33 -29.5 162t-54.5 129q-5 0 -10.5 -11t-11 -33t-9 -37t-8.5 -42t-6 -30q-3 -11 -11.5 -44t-13 -57t-4.5 -45zM193 1516q0 35 10.5 50t42.5 15q33 0 63.5 -17t30.5 -46
q0 -30 -25 -52t-55 -22q-31 0 -49 20t-18 52zM434 1538q0 24 7 33.5t30 9.5q37 0 64.5 -21.5t27.5 -56.5q0 -27 -10.5 -40t-38.5 -13q-32 0 -56 28t-24 60z" />
    <glyph glyph-name="aring" unicode="&#xe5;" horiz-adv-x="763" 
d="M94 346q-1 21 14 63t17 50l29 82q3 15 -11 26t-32.5 16.5t-34 16.5t-15.5 27q0 11 18 17.5t40.5 10.5t44.5 20t29 44q17 72 44 175t40.5 157t24.5 128t11 144v20l11 11q0 -1 17.5 0.5t42 3.5t36.5 2q29 0 38 -17.5t11 -48.5l143 -575q2 -9 10.5 -26t10.5 -23
q1 -40 7.5 -83.5t14 -73t21 -81t20.5 -78.5q6 -24 6 -41q0 -16 -10 -31.5t-26 -15.5q-33 0 -52 5t-30.5 20.5t-16.5 29t-12 46.5q0 8 -2 14q-3 15 -9.5 50.5t-11.5 56.5t-14 46t-22.5 37.5t-32.5 12.5q-119 0 -154 -17q-22 -10 -33.5 -47t-14.5 -77.5t-17 -84t-39 -63.5h-12
q-99 0 -99 51zM252 1540q0 47 34 94t85 54q73 9 111 -27t38 -100q0 -47 -52 -81t-103 -34q-46 0 -79.5 25.5t-33.5 68.5zM317 694q0 -14 17 -24q1 0 24.5 -1t42.5 -1t38.5 2t23.5 8l10 8q2 2 2 16q0 33 -29.5 162t-54.5 129q-5 0 -10.5 -11t-11 -33t-9 -37t-8.5 -42t-6 -30
q-3 -11 -11.5 -44t-13 -57t-4.5 -45zM328 1544q0 -17 13 -31t30 -14q29 0 55.5 24t26.5 48q0 21 -21 46t-43 25q-34 -23 -47.5 -43.5t-13.5 -54.5z" />
    <glyph glyph-name="ae" unicode="&#xe6;" horiz-adv-x="1024" 
d="M63 215q1 20 22 61.5t24 51.5l38 82q4 15 -8.5 26t-29.5 16.5t-31 16.5t-12 27q1 11 19.5 17.5t40.5 10.5t45.5 20t33.5 44l10 30q35 98 63 181t42 128.5t39 130t40 134.5l4 20l11 11q0 -1 18 0.5t43 3.5t37 2q20 0 30 -11t11 -23t0 -32l18 -149q38 3 107.5 5.5t91.5 4.5
h21q36 0 95.5 -11.5t59.5 -37.5q0 -10 -11 -19.5t-22 -11.5l-247 -33q-16 -2 -30.5 -15t-14.5 -28v-24q0 -95 12.5 -185t38.5 -90q33 0 92 24.5t78 24.5q121 0 121 -47q0 -34 -46 -54t-102.5 -26.5t-108 -20.5t-59.5 -36v-35q0 -19 5.5 -67t22 -104t40.5 -56q22 0 43 17
t35.5 37.5t35.5 37.5t43 17q26 0 52 -18t26 -44q0 -59 -79.5 -114.5t-149.5 -55.5q-48 0 -84.5 17t-58.5 42t-37.5 65t-22 74t-12.5 81q0 69 -25 118q-11 7 -20 7q-118 0 -156 -17q-23 -10 -39 -47t-24 -77.5t-27 -84t-47 -63.5h-12q-17 0 -28.5 1t-30 5t-27.5 15.5t-7 29.5
zM330 563q-3 -14 12 -24q1 0 24.5 -1t42.5 -1t39 2t25 8l10 8q2 6 4 10q-18 297 -49 297q-16 0 -63 -153q-4 -10 -13 -34t-14.5 -39t-11 -36t-6.5 -37z" />
    <glyph glyph-name="ccedilla" unicode="&#xe7;" horiz-adv-x="630" 
d="M256 -43q0 14 20.5 23.5t45 15.5t46 26t23.5 52q-7 12 -35 12q-8 0 -24 -2t-25 -2q-42 0 -53 27q0 29 -5 90t-5 90q-52 22 -89.5 66.5t-57 101.5t-28 113.5t-8.5 115.5q0 73 10 155t33.5 169.5t57 157t86.5 114.5t117 45q95 0 143.5 -44t48.5 -140q0 -17 -10.5 -32
t-26.5 -15q-32 0 -61.5 30t-49.5 60.5t-28 30.5q-32 0 -74 -83.5t-53 -127.5q-45 -173 -45 -312q0 -99 18.5 -168.5t75.5 -119.5q38 -33 59 -33q24 0 59 34.5t62 34.5q5 0 16.5 -6t16.5 -6q6 0 20 2t15 2q18 0 18 -26q0 -40 -37.5 -73t-83.5 -49t-88 -18q5 -24 5 -98
q5 -12 26 -18.5t43 -9.5t40 -16t18 -36q0 -62 -38.5 -97.5t-140.5 -62.5q-18 0 -27.5 1t-19.5 7t-10 19z" />
    <glyph glyph-name="egrave" unicode="&#xe8;" horiz-adv-x="663" 
d="M84 565q0 18 11 26.5t22 15t10 20.5l-12 293q-1 35 -10 58t-18.5 30.5t-17.5 17t-8 21.5t24.5 20t68 12t84.5 6.5t94.5 4.5t77.5 4h20q36 0 96 -12t60 -38q0 -10 -11 -19t-22 -11l-248 -33q-16 -2 -30.5 -15t-14.5 -28v-25q0 -95 12.5 -184.5t38.5 -89.5q33 0 92 24.5
t78 24.5q121 0 121 -47q0 -34 -46 -54t-102 -26.5t-107.5 -20.5t-59.5 -36v-35q0 -46 17 -136.5t50 -90.5q28 0 53.5 27l51 54t53.5 27q26 0 52 -17.5t26 -43.5q0 -59 -80 -114.5t-150 -55.5q-48 0 -84.5 17t-58.5 42t-37.5 64.5t-22 73.5t-12.5 81q0 55 -13 94t-48 74z
M410 1202q2 -15 -9.5 -22.5t-40.5 -8.5q-15 -2 -36 3l-33 26q-25 6 -111 112l-18 21q-3 19 21.5 33t47.5 16q20 2 33.5 -8.5t25 -29t17.5 -23.5q69 -63 103 -119z" />
    <glyph glyph-name="eacute" unicode="&#xe9;" horiz-adv-x="663" 
d="M84 565q0 18 11 26.5t22 15t10 20.5l-12 293q-1 35 -10 58t-18.5 30.5t-17.5 17t-8 21.5t24.5 20t68 12t84.5 6.5t94.5 4.5t77.5 4h20q36 0 96 -12t60 -38q0 -10 -11 -19t-22 -11l-248 -33q-16 -2 -30.5 -15t-14.5 -28v-25q0 -95 12.5 -184.5t38.5 -89.5q33 0 92 24.5
t78 24.5q121 0 121 -47q0 -34 -46 -54t-102 -26.5t-107.5 -20.5t-59.5 -36v-35q0 -46 17 -136.5t50 -90.5q28 0 53.5 27l51 54t53.5 27q26 0 52 -17.5t26 -43.5q0 -59 -80 -114.5t-150 -55.5q-48 0 -84.5 17t-58.5 42t-37.5 64.5t-22 73.5t-12.5 81q0 55 -13 94t-48 74z
M162 1202q35 58 102 119q6 5 17.5 23.5t25 29t33.5 8.5q23 -2 48 -16t22 -33l-18 -21q-86 -106 -111 -112l-33 -26q-21 -5 -37 -3q-29 1 -40 8.5t-9 22.5z" />
    <glyph glyph-name="ecircumflex" unicode="&#xea;" horiz-adv-x="663" 
d="M84 565q0 18 11 26.5t22 15t10 20.5l-12 293q-1 35 -10 58t-18.5 30.5t-17.5 17t-8 21.5t24.5 20t68 12t84.5 6.5t94.5 4.5t77.5 4h20q36 0 96 -12t60 -38q0 -10 -11 -19t-22 -11l-248 -33q-16 -2 -30.5 -15t-14.5 -28v-25q0 -95 12.5 -184.5t38.5 -89.5q33 0 92 24.5
t78 24.5q121 0 121 -47q0 -34 -46 -54t-102 -26.5t-107.5 -20.5t-59.5 -36v-35q0 -46 17 -136.5t50 -90.5q28 0 53.5 27l51 54t53.5 27q26 0 52 -17.5t26 -43.5q0 -59 -80 -114.5t-150 -55.5q-48 0 -84.5 17t-58.5 42t-37.5 64.5t-22 73.5t-12.5 81q0 55 -13 94t-48 74z
M55 1202q59 66 139.5 135t106.5 68h10l95 -78q8 -16 20 -31q9 -14 34 -33t41.5 -35t12.5 -30q-11 -32 -45 -29q-23 2 -42 9t-37 22.5t-28.5 26t-30.5 35.5t-28 34q-17 4 -36.5 -9t-39 -34.5t-39 -43.5t-42.5 -37t-44 -13q-25 2 -39.5 13t-7.5 30z" />
    <glyph glyph-name="edieresis" unicode="&#xeb;" horiz-adv-x="663" 
d="M84 565q0 18 11 26.5t22 15t10 20.5l-12 293q-1 35 -10 58t-18.5 30.5t-17.5 17t-8 21.5t24.5 20t68 12t84.5 6.5t94.5 4.5t77.5 4h20q36 0 96 -12t60 -38q0 -10 -11 -19t-22 -11l-248 -33q-16 -2 -30.5 -15t-14.5 -28v-25q0 -95 12.5 -184.5t38.5 -89.5q33 0 92 24.5
t78 24.5q121 0 121 -47q0 -34 -46 -54t-102 -26.5t-107.5 -20.5t-59.5 -36v-35q0 -46 17 -136.5t50 -90.5q28 0 53.5 27l51 54t53.5 27q26 0 52 -17.5t26 -43.5q0 -59 -80 -114.5t-150 -55.5q-48 0 -84.5 17t-58.5 42t-37.5 64.5t-22 73.5t-12.5 81q0 55 -13 94t-48 74z
M106 1241q0 35 11 50.5t43 15.5q33 0 63.5 -17.5t30.5 -46.5q0 -30 -25 -52t-55 -22q-32 0 -50 20t-18 52zM348 1264q0 24 7 33.5t30 9.5q37 0 64.5 -21.5t27.5 -56.5q0 -27 -10.5 -40t-38.5 -13q-32 0 -56 28t-24 60z" />
    <glyph glyph-name="igrave" unicode="&#xec;" horiz-adv-x="309" 
d="M63 317q-2 27 -2 170q0 94 10.5 282.5t10.5 281.5v65q6 6 20 6q46 0 96 -14t50 -47q0 -27 -6 -45q-21 -279 -21 -539q0 -46 5 -127t5 -90q0 -59 -55 -59q-49 0 -80 34.5t-33 81.5zM270 1255q2 -15 -9 -22t-40 -8q-18 -3 -37 2l-32 26q-25 6 -111 112l-18 21
q-3 19 22 33.5t47 16.5q20 2 33.5 -9t25 -29.5t17.5 -23.5q67 -61 102 -119z" />
    <glyph glyph-name="iacute" unicode="&#xed;" horiz-adv-x="309" 
d="M63 317q-2 27 -2 170q0 94 10.5 282.5t10.5 281.5v65q6 6 20 6q46 0 96 -14t50 -47q0 -27 -6 -45q-21 -279 -21 -539q0 -46 5 -127t5 -90q0 -59 -55 -59q-49 0 -80 34.5t-33 81.5zM23 1255q35 58 102 119q6 5 17.5 23.5t25 29.5t33.5 9q22 -2 47 -16.5t22 -33.5l-18 -21
q-86 -106 -111 -112l-32 -26q-19 -5 -37 -2q-29 1 -40 8t-9 22z" />
    <glyph glyph-name="icircumflex" unicode="&#xee;" horiz-adv-x="309" 
d="M63 317q-2 27 -2 170q0 94 10.5 282.5t10.5 281.5v65q6 6 20 6q46 0 96 -14t50 -47q0 -27 -6 -45q-21 -279 -21 -539q0 -46 5 -127t5 -90q0 -59 -55 -59q-49 0 -80 34.5t-33 81.5zM-84 1255q59 66 139.5 135t106.5 68h10q93 -76 94 -78q5 -10 21 -30q9 -14 34 -33
t41.5 -35.5t12.5 -30.5q-10 -31 -45 -28q-23 2 -42 9t-37 22.5t-28.5 26t-30.5 35.5t-28 34q-20 5 -46.5 -16t-48.5 -49.5t-51.5 -51.5t-54.5 -21t-39.5 13t-7.5 30z" />
    <glyph glyph-name="idieresis" unicode="&#xef;" horiz-adv-x="309" 
d="M63 317q-2 27 -2 170q0 94 10.5 282.5t10.5 281.5v65q6 6 20 6q46 0 96 -14t50 -47q0 -27 -6 -45q-21 -279 -21 -539q0 -46 5 -127t5 -90q0 -59 -55 -59q-49 0 -80 34.5t-33 81.5zM-33 1294q0 35 10.5 50.5t42.5 15.5q33 0 64 -17.5t31 -46.5q0 -30 -25 -51.5t-55 -21.5
q-32 0 -50 20t-18 51zM209 1317q0 24 7 33.5t30 9.5q37 0 64.5 -21.5t27.5 -56.5q0 -27 -10.5 -40t-38.5 -13q-32 0 -56 28t-24 60z" />
    <glyph glyph-name="ograve" unicode="&#xf2;" horiz-adv-x="765" 
d="M61 537q0 186 60.5 373t181.5 294q10 6 19.5 9.5t20 4.5t17 1.5t20 0t19.5 -0.5q91 -26 151.5 -62.5t94 -87.5t47 -109t13.5 -137q0 -23 -1.5 -45.5t-5.5 -50.5t-6.5 -42t-9.5 -49.5t-8 -43.5l-4 -21l-6 -24q-11 -51 -45 -111.5t-62 -95.5t-76 -92q-22 -25 -61 -39
t-74 -14q-17 0 -31.5 2.5t-39 9.5t-27.5 8q-62 18 -100.5 47.5t-57 74.5t-24 88.5t-5.5 111.5zM215 438q0 -1 1 -3.5t1 -4.5q25 -133 80 -133q60 0 141 129q36 61 51 93.5t37 94.5q33 100 33 230q0 23 -4 62t-14 91t-32 88.5t-52 36.5q-21 0 -46.5 -26t-42.5 -53.5
t-41.5 -73t-31.5 -56.5q-3 -18 -31 -102t-28 -98q-8 -40 -12.5 -66.5t-6.5 -55.5t-2.5 -40.5t0 -52.5t0.5 -60zM541 1337q2 -15 -9 -22t-40 -8q-18 -3 -37 2l-33 26q-25 6 -111 112l-18 21q-3 19 22 33.5t47 16.5q20 2 33.5 -9t25 -29.5t17.5 -23.5q69 -63 103 -119z" />
    <glyph glyph-name="oacute" unicode="&#xf3;" horiz-adv-x="765" 
d="M61 537q0 186 60.5 373t181.5 294q10 6 19.5 9.5t20 4.5t17 1.5t20 0t19.5 -0.5q91 -26 151.5 -62.5t94 -87.5t47 -109t13.5 -137q0 -23 -1.5 -45.5t-5.5 -50.5t-6.5 -42t-9.5 -49.5t-8 -43.5l-4 -21l-6 -24q-11 -51 -45 -111.5t-62 -95.5t-76 -92q-22 -25 -61 -39
t-74 -14q-17 0 -31.5 2.5t-39 9.5t-27.5 8q-62 18 -100.5 47.5t-57 74.5t-24 88.5t-5.5 111.5zM215 438q0 -1 1 -3.5t1 -4.5q25 -133 80 -133q60 0 141 129q36 61 51 93.5t37 94.5q33 100 33 230q0 23 -4 62t-14 91t-32 88.5t-52 36.5q-21 0 -46.5 -26t-42.5 -53.5
t-41.5 -73t-31.5 -56.5q-3 -18 -31 -102t-28 -98q-8 -40 -12.5 -66.5t-6.5 -55.5t-2.5 -40.5t0 -52.5t0.5 -60zM293 1337q35 58 102 119q6 5 17.5 23.5t25 29.5t33.5 9q22 -2 47.5 -16.5t22.5 -33.5l-18 -21q-86 -106 -111 -112l-33 -26q-19 -5 -37 -2q-29 1 -40 8t-9 22z
" />
    <glyph glyph-name="ocircumflex" unicode="&#xf4;" horiz-adv-x="765" 
d="M61 537q0 186 60.5 373t181.5 294q10 6 19.5 9.5t20 4.5t17 1.5t20 0t19.5 -0.5q91 -26 151.5 -62.5t94 -87.5t47 -109t13.5 -137q0 -23 -1.5 -45.5t-5.5 -50.5t-6.5 -42t-9.5 -49.5t-8 -43.5l-4 -21l-6 -24q-11 -51 -45 -111.5t-62 -95.5t-76 -92q-22 -25 -61 -39
t-74 -14q-17 0 -31.5 2.5t-39 9.5t-27.5 8q-62 18 -100.5 47.5t-57 74.5t-24 88.5t-5.5 111.5zM215 438q0 -1 1 -3.5t1 -4.5q25 -133 80 -133q60 0 141 129q36 61 51 93.5t37 94.5q33 100 33 230q0 23 -4 62t-14 91t-32 88.5t-52 36.5q-21 0 -46.5 -26t-42.5 -53.5
t-41.5 -73t-31.5 -56.5q-3 -18 -31 -102t-28 -98q-8 -40 -12.5 -66.5t-6.5 -55.5t-2.5 -40.5t0 -52.5t0.5 -60zM186 1337q59 66 139.5 135t106.5 68h10l95 -78q7 -13 20 -30q9 -14 34 -33t41.5 -35.5t12.5 -30.5q-10 -31 -45 -28q-23 2 -42 9t-37 22.5t-28.5 26t-30.5 35.5
t-28 34q-20 5 -46.5 -16t-48.5 -49.5t-51.5 -51.5t-54.5 -21t-39.5 13t-7.5 30z" />
    <glyph glyph-name="otilde" unicode="&#xf5;" horiz-adv-x="765" 
d="M61 537q0 186 60.5 373t181.5 294q10 6 19.5 9.5t20 4.5t17 1.5t20 0t19.5 -0.5q91 -26 151.5 -62.5t94 -87.5t47 -109t13.5 -137q0 -23 -1.5 -45.5t-5.5 -50.5t-6.5 -42t-9.5 -49.5t-8 -43.5l-4 -21l-6 -24q-11 -51 -45 -111.5t-62 -95.5t-76 -92q-22 -25 -61 -39
t-74 -14q-17 0 -31.5 2.5t-39 9.5t-27.5 8q-62 18 -100.5 47.5t-57 74.5t-24 88.5t-5.5 111.5zM215 438q0 -1 1 -3.5t1 -4.5q25 -133 80 -133q60 0 141 129q36 61 51 93.5t37 94.5q33 100 33 230q0 23 -4 62t-14 91t-32 88.5t-52 36.5q-21 0 -46.5 -26t-42.5 -53.5
t-41.5 -73t-31.5 -56.5q-3 -18 -31 -102t-28 -98q-8 -40 -12.5 -66.5t-6.5 -55.5t-2.5 -40.5t0 -52.5t0.5 -60zM358 1446q-22 29 -45 29q-22 0 -34 -23.5t-15.5 -52.5t-18.5 -52.5t-44 -23.5q-18 0 -27.5 13t-10.5 24.5t-1 32.5q0 41 12.5 80t42.5 68.5t72 29.5
q39 0 83 -16.5t68 -43.5q9 -10 22 -38.5t26.5 -48t29.5 -19.5q30 0 45 29.5t15 62.5q0 14 -5.5 39.5t-5.5 40.5q0 20 19 20q35 0 63.5 -37.5t28.5 -72.5q0 -69 -53 -122.5t-123 -53.5q-52 0 -87.5 39t-56.5 96z" />
    <glyph glyph-name="odieresis" unicode="&#xf6;" horiz-adv-x="765" 
d="M61 537q0 186 60.5 373t181.5 294q10 6 19.5 9.5t20 4.5t17 1.5t20 0t19.5 -0.5q91 -26 151.5 -62.5t94 -87.5t47 -109t13.5 -137q0 -23 -1.5 -45.5t-5.5 -50.5t-6.5 -42t-9.5 -49.5t-8 -43.5l-4 -21l-6 -24q-11 -51 -45 -111.5t-62 -95.5t-76 -92q-22 -25 -61 -39
t-74 -14q-17 0 -31.5 2.5t-39 9.5t-27.5 8q-62 18 -100.5 47.5t-57 74.5t-24 88.5t-5.5 111.5zM215 438q0 -1 1 -3.5t1 -4.5q25 -133 80 -133q60 0 141 129q36 61 51 93.5t37 94.5q33 100 33 230q0 23 -4 62t-14 91t-32 88.5t-52 36.5q-21 0 -46.5 -26t-42.5 -53.5
t-41.5 -73t-31.5 -56.5q-3 -18 -31 -102t-28 -98q-8 -40 -12.5 -66.5t-6.5 -55.5t-2.5 -40.5t0 -52.5t0.5 -60zM238 1376q0 35 10.5 50.5t42.5 15.5q33 0 63.5 -17.5t30.5 -46.5q0 -30 -25 -51.5t-55 -21.5q-31 0 -49 19.5t-18 51.5zM479 1399q0 24 7 33.5t30 9.5
q37 0 64.5 -21.5t27.5 -56.5q0 -27 -10.5 -40t-38.5 -13q-32 0 -56 28t-24 60z" />
    <glyph glyph-name="oslash" unicode="&#xf8;" horiz-adv-x="765" 
d="M190 156q1 6 17 73q-48 20 -78 49.5t-44.5 72t-19 83.5t-4.5 103q0 186 60.5 373t181.5 294q10 6 19.5 9.5t20 4.5t17 1.5t20 0t19.5 -0.5l72 -25l31 102q44 -3 80 -39q-5 -36 -12 -57t-7 -22l-8 -27q83 -53 116.5 -132.5t33.5 -195.5q0 -23 -1.5 -45.5t-5.5 -50.5
t-6.5 -42t-9.5 -49.5t-8 -43.5l-10 -45q-11 -51 -45 -111.5t-62 -95.5t-76 -92q-22 -25 -61 -39t-74 -14q-27 0 -51 6v-8q-5 -30 -19 -63.5t-28.5 -53.5t-20.5 -17q-46 20 -37 97zM215 438q0 -1 1 -3.5t1 -4.5v-4q9 -54 25 -84l209 780q-21 -3 -45.5 -30t-40.5 -53.5
t-40 -71t-30 -54.5q-3 -18 -31 -102t-28 -98q-8 -40 -12.5 -66.5t-6.5 -55.5t-2.5 -40.5t0 -52.5t0.5 -60zM559 844q0 32 -7.5 92t-25.5 108q-8 -29 -41.5 -160t-70.5 -268.5t-88 -312.5q48 21 112 123q36 61 51 93.5t37 94.5q33 100 33 230z" />
    <glyph glyph-name="ugrave" unicode="&#xf9;" horiz-adv-x="724" 
d="M203 229q-140 110 -140 359v20q0 166 29 258l2 2l-2 4l47 156q2 5 6.5 8.5t14 4.5t15.5 1.5t19.5 0t16.5 -0.5q90 0 90 -53q0 -27 -23 -77t-26 -62q-31 -110 -31 -262v-13q0 -249 92 -249q34 0 68 43q75 99 103 219t28 268q0 10 -0.5 29.5t-1.5 34.5v16q0 21 -11.5 60.5
t-11.5 58.5q0 16 62 16q27 0 47.5 -11t32.5 -32t19.5 -42t10.5 -51.5t4 -48.5t1 -44q0 -47 -3.5 -98.5t-13.5 -116t-25 -122.5t-41 -115t-59.5 -98.5t-81.5 -67t-106 -25.5t-131 30zM492 1227q2 -15 -9.5 -22.5t-40.5 -8.5q-18 -3 -36 2l-33 27q-25 6 -111 112l-18 21
q-3 19 21.5 33t47.5 16q20 2 33.5 -8.5t25 -29t17.5 -23.5q69 -63 103 -119z" />
    <glyph glyph-name="uacute" unicode="&#xfa;" horiz-adv-x="724" 
d="M203 229q-140 110 -140 359v20q0 166 29 258l2 2l-2 4l47 156q2 5 6.5 8.5t14 4.5t15.5 1.5t19.5 0t16.5 -0.5q90 0 90 -53q0 -27 -23 -77t-26 -62q-31 -110 -31 -262v-13q0 -249 92 -249q34 0 68 43q75 99 103 219t28 268q0 10 -0.5 29.5t-1.5 34.5v16q0 21 -11.5 60.5
t-11.5 58.5q0 16 62 16q27 0 47.5 -11t32.5 -32t19.5 -42t10.5 -51.5t4 -48.5t1 -44q0 -47 -3.5 -98.5t-13.5 -116t-25 -122.5t-41 -115t-59.5 -98.5t-81.5 -67t-106 -25.5t-131 30zM244 1227q35 58 102 119q6 5 17.5 23.5t25 29t33.5 8.5q23 -2 48 -16t22 -33l-19 -21
q-86 -105 -111 -112l-32 -27q-19 -5 -37 -2q-29 1 -40 8.5t-9 22.5z" />
    <glyph glyph-name="ucircumflex" unicode="&#xfb;" horiz-adv-x="724" 
d="M203 229q-140 110 -140 359v20q0 166 29 258l2 2l-2 4l47 156q2 5 6.5 8.5t14 4.5t15.5 1.5t19.5 0t16.5 -0.5q90 0 90 -53q0 -27 -23 -77t-26 -62q-31 -110 -31 -262v-13q0 -249 92 -249q34 0 68 43q75 99 103 219t28 268q0 10 -0.5 29.5t-1.5 34.5v16q0 21 -11.5 60.5
t-11.5 58.5q0 16 62 16q27 0 47.5 -11t32.5 -32t19.5 -42t10.5 -51.5t4 -48.5t1 -44q0 -47 -3.5 -98.5t-13.5 -116t-25 -122.5t-41 -115t-59.5 -98.5t-81.5 -67t-106 -25.5t-131 30zM137 1227q59 66 139.5 135t106.5 68h10q93 -76 94 -78q6 -13 21 -31q9 -14 34 -33
t41.5 -35t12.5 -30q-11 -32 -45 -29q-23 2 -42 9t-37 22.5t-28.5 26t-30.5 35.5t-28 34q-17 4 -36.5 -9t-39 -34.5t-39 -43.5t-42.5 -37t-44 -13q-25 2 -39.5 13t-7.5 30z" />
    <glyph glyph-name="udieresis" unicode="&#xfc;" horiz-adv-x="724" 
d="M203 229q-140 110 -140 359v20q0 166 29 258l2 2l-2 4l47 156q2 5 6.5 8.5t14 4.5t15.5 1.5t19.5 0t16.5 -0.5q90 0 90 -53q0 -27 -23 -77t-26 -62q-31 -110 -31 -262v-13q0 -249 92 -249q34 0 68 43q75 99 103 219t28 268q0 10 -0.5 29.5t-1.5 34.5v16q0 21 -11.5 60.5
t-11.5 58.5q0 16 62 16q27 0 47.5 -11t32.5 -32t19.5 -42t10.5 -51.5t4 -48.5t1 -44q0 -47 -3.5 -98.5t-13.5 -116t-25 -122.5t-41 -115t-59.5 -98.5t-81.5 -67t-106 -25.5t-131 30zM188 1266q0 35 11 50t43 15q33 0 63.5 -17t30.5 -46q0 -30 -25 -52t-55 -22q-32 0 -50 20
t-18 52zM430 1288q0 24 7 33.5t30 9.5q37 0 64.5 -21.5t27.5 -56.5q0 -27 -10.5 -40t-38.5 -13q-32 0 -56 28t-24 60z" />
    <glyph glyph-name="Euro" unicode="&#x20ac;" horiz-adv-x="911" 
d="M150 463q-8 13 -30 24t-38 25t-16 39q0 15 11 22.5t24.5 10.5t24.5 15t11 34q0 29 -38 64t-38 61q0 17 16.5 23t39.5 8t30 8q15 6 22.5 18t13.5 33t10 29q22 45 40 78t49 77t61.5 71.5t73 47.5t87.5 20q198 0 198 -102q0 -14 -57 -14q-12 0 -32 5t-27 5q-35 0 -77 -31.5
t-74 -73.5t-53.5 -81t-21.5 -56q5 -12 7 -12q25 -2 59 -4t56 -3.5t48 -4t41.5 -6t30 -9.5t21 -15t6.5 -21q0 -19 -49.5 -30t-109.5 -15.5t-110 -21.5t-51 -46q0 -10 5.5 -18.5t13.5 -8.5l174 -18q24 -7 24 -39q1 -19 -29.5 -28t-67 -11t-67 -14.5t-30.5 -36.5q0 -60 58 -109
t120 -49q46 0 92 21t73.5 43t74.5 65l8 8q4 4 18 4q25 0 38.5 -2t24.5 -13.5t11 -33.5q0 -55 -45 -94q-74 -64 -135.5 -85t-163.5 -21q-120 0 -210.5 75t-145.5 193z" />
    </font>
</defs>
</svg>
