<svg xmlns="http://www.w3.org/2000/svg" width="16.789" height="23.5" viewBox="0 0 16.789 23.5">
  <path id="Icon_ionic-logo-bitcoin" data-name="Icon ionic-logo-bitcoin" d="M23.247,15.217a3.144,3.144,0,0,0-1.474-1.579,5.148,5.148,0,0,0-1.332-.525,3.264,3.264,0,0,0,.855-.577,2.957,2.957,0,0,0,.818-1.222A4.045,4.045,0,0,0,22.3,9.835a4.4,4.4,0,0,0-.692-2.35,4.325,4.325,0,0,0-1.972-1.416A7.407,7.407,0,0,0,17.246,5.6V2.25h-2.1V5.607H13.47V2.25H11.319V5.607H6.75V8.125H8.214a2.367,2.367,0,0,1,.923.121.694.694,0,0,1,.341.315,2.523,2.523,0,0,1,.1.918v9.085a2.527,2.527,0,0,1-.1.913c-.068.136-.1.257-.268.33s-.168.068-.619.068H7.206L6.75,22.393h4.564V25.75h2.151V22.393h1.679V25.75h2.1V22.372a10.257,10.257,0,0,0,3.116-.54A5.117,5.117,0,0,0,22.7,20.179a5.115,5.115,0,0,0,.829-2.686A5.91,5.91,0,0,0,23.247,15.217ZM13.464,8.44h1.679v3.882H13.464Zm0,11.121V14.839h1.679V19.56ZM17.241,8.644a1.837,1.837,0,0,1,.724.666,1.863,1.863,0,0,1,.341,1.123,1.736,1.736,0,0,1-.393,1.075,1.687,1.687,0,0,1-.671.582Zm1.511,9.793a3.183,3.183,0,0,1-1.159.724,2.941,2.941,0,0,1-.351.1V14.918a2.137,2.137,0,0,1,.593.178,2.358,2.358,0,0,1,1.039.692,2.3,2.3,0,0,1,.42,1.3A1.659,1.659,0,0,1,18.752,18.438Z" transform="translate(-6.75 -2.25)" fill="#ddb8dc"/>
</svg>
