<svg xmlns="http://www.w3.org/2000/svg" width="22.504" height="31.5" viewBox="0 0 22.504 31.5">
  <path id="Icon_ionic-logo-bitcoin" data-name="Icon ionic-logo-bitcoin" d="M28.863,19.631a4.215,4.215,0,0,0-1.976-2.116,6.9,6.9,0,0,0-1.786-.7,4.375,4.375,0,0,0,1.146-.773,3.963,3.963,0,0,0,1.1-1.638,5.422,5.422,0,0,0,.246-1.983,5.9,5.9,0,0,0-.928-3.15,5.8,5.8,0,0,0-2.644-1.9,9.928,9.928,0,0,0-3.2-.626V2.25H18.007v4.5h-2.25V2.25H12.874v4.5H6.75v3.375H8.712a3.173,3.173,0,0,1,1.238.162.93.93,0,0,1,.457.422,3.382,3.382,0,0,1,.134,1.23V24.117a3.387,3.387,0,0,1-.134,1.223c-.091.183-.141.345-.359.443s-.225.091-.83.091H7.362L6.75,29.25h6.117v4.5H15.75v-4.5H18v4.5h2.813V29.222a13.748,13.748,0,0,0,4.177-.724,6.859,6.859,0,0,0,3.143-2.215,6.857,6.857,0,0,0,1.111-3.6A7.922,7.922,0,0,0,28.863,19.631ZM15.75,10.547H18v5.2H15.75Zm0,14.906V19.125H18v6.328Zm5.063-14.632a2.463,2.463,0,0,1,.97.893,2.5,2.5,0,0,1,.457,1.5,2.327,2.327,0,0,1-.527,1.441,2.262,2.262,0,0,1-.9.78Zm2.025,13.127a4.266,4.266,0,0,1-1.554.97,3.942,3.942,0,0,1-.471.134V19.23a2.864,2.864,0,0,1,.795.239A3.161,3.161,0,0,1,23,20.4a3.081,3.081,0,0,1,.563,1.737A2.224,2.224,0,0,1,22.837,23.948Z" transform="translate(-6.75 -2.25)" fill="#fff"/>
</svg>
