<?xml version="1.0" encoding="UTF-8"?>
<svg width="35px" height="24px" viewBox="0 0 35 24" version="1.1" xmlns="http://www.w3.org/2000/svg" xmlns:xlink="http://www.w3.org/1999/xlink">
    <title>Group</title>
    <g id="Page-1" stroke="none" stroke-width="1" fill="none" fill-rule="evenodd">
        <g id="Group" fill="#DDB8DC" fill-rule="nonzero">
            <g id="bitcoin-1-copy">
                <path d="M16.497,12.967 C16.207568,12.2831032 15.6853958,11.7237342 15.023,11.388 C14.6056211,11.1518116 14.1572863,10.9751031 13.691,10.863 C14.004781,10.7171995 14.2933839,10.5224348 14.546,10.286 C14.9172157,9.95404522 15.1985824,9.53371489 15.364,9.064 C15.5170884,8.58677972 15.5801591,8.08526561 15.55,7.585 C15.5464478,6.75195296 15.3064791,5.93703027 14.858,5.235 C14.3493369,4.58440826 13.6650414,4.09304798 12.886,3.819 C12.12067,3.53185971 11.313088,3.37338441 10.496,3.35 L10.496,0 L8.396,0 L8.396,3.357 L6.72,3.357 L6.72,0 L4.569,0 L4.569,3.357 L0,3.357 L0,5.875 L1.464,5.875 C1.77664292,5.85383946 2.09037581,5.89496805 2.387,5.996 C2.53345582,6.05874321 2.65386251,6.16996933 2.728,6.311 C2.81752511,6.60824217 2.85142615,6.91945377 2.828,7.229 L2.828,16.314 C2.85071715,16.6218868 2.81682411,16.9313302 2.728,17.227 C2.66,17.363 2.628,17.484 2.46,17.557 C2.292,17.63 2.292,17.625 1.841,17.625 L0.456,17.625 L0,20.143 L4.564,20.143 L4.564,23.5 L6.715,23.5 L6.715,20.143 L8.394,20.143 L8.394,23.5 L10.494,23.5 L10.494,20.122 C11.5543369,20.1041663 12.6054946,19.9220016 13.61,19.582 C14.5314847,19.2650523 15.3433086,18.6915716 15.95,17.929 C16.47176,17.1286586 16.7589391,16.1981845 16.779,15.243 C16.834516,14.4731978 16.7387125,13.6999752 16.497,12.967 Z M6.714,6.19 L8.393,6.19 L8.393,10.072 L6.714,10.072 L6.714,6.19 Z M6.714,17.311 L6.714,12.589 L8.393,12.589 L8.393,17.31 L6.714,17.311 Z M10.491,6.394 C10.7883926,6.5460517 11.0387016,6.77630835 11.215,7.06 C11.4466865,7.38781891 11.5662903,7.7817046 11.556,8.183 C11.5502922,8.5754572 11.4117586,8.95439763 11.163,9.258 C10.9953383,9.50845642 10.7636402,9.70942262 10.492,9.84 L10.491,6.394 Z M12.002,16.187 C11.6726394,16.509397 11.2771936,16.7564226 10.843,16.911 C10.7281831,16.9515678 10.6109574,16.9849654 10.492,17.011 L10.492,12.668 C10.6972593,12.6982326 10.8970221,12.7581951 11.085,12.846 C11.4872118,12.9791367 11.8461234,13.2181808 12.124,13.538 C12.3924356,13.9187932 12.5388982,14.3721298 12.544,14.838 C12.580783,15.3474414 12.3808506,15.8454278 12.002,16.188 L12.002,16.187 Z" id="Icon_ionic-logo-bitcoin"></path>
            </g>
            <g id="bitcoin-1-copy-2" transform="translate(18.000000, 0.000000)">
                <path d="M16.497,12.967 C16.207568,12.2831032 15.6853958,11.7237342 15.023,11.388 C14.6056211,11.1518116 14.1572863,10.9751031 13.691,10.863 C14.004781,10.7171995 14.2933839,10.5224348 14.546,10.286 C14.9172157,9.95404522 15.1985824,9.53371489 15.364,9.064 C15.5170884,8.58677972 15.5801591,8.08526561 15.55,7.585 C15.5464478,6.75195296 15.3064791,5.93703027 14.858,5.235 C14.3493369,4.58440826 13.6650414,4.09304798 12.886,3.819 C12.12067,3.53185971 11.313088,3.37338441 10.496,3.35 L10.496,0 L8.396,0 L8.396,3.357 L6.72,3.357 L6.72,0 L4.569,0 L4.569,3.357 L0,3.357 L0,5.875 L1.464,5.875 C1.77664292,5.85383946 2.09037581,5.89496805 2.387,5.996 C2.53345582,6.05874321 2.65386251,6.16996933 2.728,6.311 C2.81752511,6.60824217 2.85142615,6.91945377 2.828,7.229 L2.828,16.314 C2.85071715,16.6218868 2.81682411,16.9313302 2.728,17.227 C2.66,17.363 2.628,17.484 2.46,17.557 C2.292,17.63 2.292,17.625 1.841,17.625 L0.456,17.625 L0,20.143 L4.564,20.143 L4.564,23.5 L6.715,23.5 L6.715,20.143 L8.394,20.143 L8.394,23.5 L10.494,23.5 L10.494,20.122 C11.5543369,20.1041663 12.6054946,19.9220016 13.61,19.582 C14.5314847,19.2650523 15.3433086,18.6915716 15.95,17.929 C16.47176,17.1286586 16.7589391,16.1981845 16.779,15.243 C16.834516,14.4731978 16.7387125,13.6999752 16.497,12.967 Z M6.714,6.19 L8.393,6.19 L8.393,10.072 L6.714,10.072 L6.714,6.19 Z M6.714,17.311 L6.714,12.589 L8.393,12.589 L8.393,17.31 L6.714,17.311 Z M10.491,6.394 C10.7883926,6.5460517 11.0387016,6.77630835 11.215,7.06 C11.4466865,7.38781891 11.5662903,7.7817046 11.556,8.183 C11.5502922,8.5754572 11.4117586,8.95439763 11.163,9.258 C10.9953383,9.50845642 10.7636402,9.70942262 10.492,9.84 L10.491,6.394 Z M12.002,16.187 C11.6726394,16.509397 11.2771936,16.7564226 10.843,16.911 C10.7281831,16.9515678 10.6109574,16.9849654 10.492,17.011 L10.492,12.668 C10.6972593,12.6982326 10.8970221,12.7581951 11.085,12.846 C11.4872118,12.9791367 11.8461234,13.2181808 12.124,13.538 C12.3924356,13.9187932 12.5388982,14.3721298 12.544,14.838 C12.580783,15.3474414 12.3808506,15.8454278 12.002,16.188 L12.002,16.187 Z" id="Icon_ionic-logo-bitcoin"></path>
            </g>
        </g>
    </g>
</svg>