<?xml version="1.0" encoding="UTF-8"?>
<svg width="576px" height="752px" viewBox="0 0 576 752" version="1.1" xmlns="http://www.w3.org/2000/svg" xmlns:xlink="http://www.w3.org/1999/xlink">
    <title>Group</title>
    <g id="Page-1" stroke="none" stroke-width="1" fill="none" fill-rule="evenodd">
        <g id="Group" fill="#FFFFFF" fill-rule="nonzero">
            <g id="cc-apple-pay-brands">
                <path d="M302.2,187.4 C302.2,204.6 291.7,214.5 273.2,214.5 L248.9,214.5 L248.9,160.3 L273.3,160.3 C291.7,160.3 302.2,170.1 302.2,187.4 L302.2,187.4 Z M349.7,250 C349.7,258.3 356.9,263.7 368.2,263.7 C382.6,263.7 393.4,254.6 393.4,241.8 L393.4,234.1 L369.9,235.6 C356.6,236.5 349.7,241.4 349.7,250 Z M576,48 L576,400 C576,426.5 554.5,448 528,448 L48,448 C21.5,448 0,426.5 0,400 L0,48 C0,21.5 21.5,0 48,0 L528,0 C554.5,0 576,21.5 576,48 Z M127.8,166.2 C136.2,166.9 144.6,162 149.9,155.8 C155.1,149.4 158.5,140.8 157.6,132.1 C150.2,132.4 141,137 135.7,143.4 C130.9,148.9 126.8,157.8 127.8,166.2 L127.8,166.2 Z M188.4,240.7 C188.2,240.5 168.8,233.1 168.6,210.7 C168.4,192 183.9,183 184.6,182.5 C175.8,169.5 162.2,168.1 157.5,167.8 C145.3,167.1 134.9,174.7 129.1,174.7 C123.2,174.7 114.4,168.1 104.8,168.3 C92.3,168.5 80.6,175.6 74.3,186.9 C61.2,209.5 70.9,242.9 83.6,261.3 C89.8,270.4 97.3,280.4 107.1,280 C116.4,279.6 120.1,274 131.3,274 C142.6,274 145.8,280 155.6,279.9 C165.8,279.7 172.1,270.8 178.4,261.7 C185.3,251.3 188.2,241.3 188.4,240.7 Z M323.8,187.3 C323.8,160.7 305.3,142.5 278.9,142.5 L227.7,142.5 L227.7,278.9 L248.9,278.9 L248.9,232.3 L278.2,232.3 C305,232.3 323.8,213.9 323.8,187.3 L323.8,187.3 Z M413.8,211 C413.8,191.3 398,178.6 373.8,178.6 C351.3,178.6 334.7,191.5 334.1,209.1 L353.2,209.1 C354.8,200.7 362.6,195.2 373.2,195.2 C386.2,195.2 393.4,201.2 393.4,212.4 L393.4,219.9 L367,221.5 C342.4,223 329.1,233.1 329.1,250.6 C329.1,268.3 342.8,280 362.5,280 C375.8,280 388.1,273.3 393.7,262.6 L394.1,262.6 L394.1,279 L413.7,279 L413.7,211 L413.8,211 Z M516,179.9 L494.5,179.9 L469.6,260.5 L469.2,260.5 L444.3,179.9 L422,179.9 L457.9,279.2 L456,285.2 C452.8,295.4 447.5,299.4 438.1,299.4 C436.4,299.4 433.2,299.2 431.9,299.1 L431.9,315.5 C433.1,315.9 438.4,316 440,316 C460.7,316 470.4,308.1 478.9,284.2 L516,179.9 Z" id="Shape"></path>
            </g>
            <g id="google-pay-brands" transform="translate(0.000000, 520.000000)">
                <path d="M95.1478771,79.0798251 L95.1478771,116.213852 L146.53789,116.213852 C144.443848,128.174853 137.575439,138.769201 127.511885,145.560987 C118.925883,151.45742 107.96388,154.815236 95.1118771,154.815236 C70.2718708,154.815236 49.2748654,137.792098 41.7418635,115.007559 C37.8000211,103.02046 37.8000211,90.0856853 41.7418635,78.0985866 L41.7418635,78.0985866 C49.2748654,55.1790148 70.2718708,38.1558765 95.1118771,38.1558765 C108.712583,37.9024586 121.84644,43.1170653 131.570886,52.6313955 L158.822893,25.0666945 C141.659208,8.75533644 118.822056,-0.233225284 95.1478771,0.00460190953 C59.0215118,0.143263818 26.1006227,20.7665573 10.2058554,53.2165377 C-3.4019518,80.4727733 -3.4019518,112.54335 10.2058554,139.799586 L10.2058554,139.934619 C26.1055351,172.366834 59.0351449,192.957202 95.1478771,193.047531 C120.770884,193.047531 142.442889,184.468445 158.147893,169.72286 C176.147898,152.969788 186.417053,128.177761 186.417053,98.6865915 C186.427349,92.1189766 185.900591,85.5615149 184.8419,79.0798251 L95.1478771,79.0798251 Z M445.616967,75.4789497 C436.499964,67.034897 424.079961,62.7498553 408.365957,62.7498553 C388.151952,62.7498553 372.959948,70.2576804 362.915946,85.1292957 L381.68095,97.0661976 C388.550952,86.8637174 397.928954,81.7624773 409.814958,81.7624773 C417.382642,81.7809 424.67588,84.5994991 430.289963,89.6754009 C435.825371,94.4831635 439.006399,101.454231 439.010965,108.787047 L439.010965,113.747253 C430.820963,109.183143 420.51596,106.770557 407.834957,106.770557 C393.038953,106.770557 381.14995,110.263406 372.293948,117.366133 C363.437946,124.468859 358.955945,133.84914 358.955945,145.777039 C358.675469,156.573512 363.286257,166.918875 371.501948,173.926882 C379.82695,181.434708 390.401953,185.18862 402.812956,185.18862 C417.473959,185.18862 429.101962,178.617023 437.912965,165.48283 L438.812965,165.48283 L438.812965,181.434708 L459.162624,181.434708 L459.162624,110.587485 C459.22497,95.6888628 454.733969,83.8869937 445.616967,75.4789497 Z M428.309962,155.868492 C422.005283,162.284757 413.39125,165.903724 404.396956,165.914935 C398.411261,166.014708 392.57786,164.025204 387.899952,160.288567 C383.473176,156.97046 380.879214,151.751222 380.90673,146.218146 C380.90673,139.916615 383.804951,134.686343 389.492952,130.536334 C395.180954,126.386325 402.569956,124.234802 411.155958,124.234802 C422.999961,124.090767 432.269963,126.791424 438.875965,132.138724 C438.875965,141.257941 435.311964,149.161862 428.309962,155.868492 Z M344.024941,28.0374167 C334.374558,18.3875146 321.208865,13.0887507 307.565931,13.3638495 L251.162917,13.3638495 L251.162917,181.470716 L272.429922,181.470716 L272.429922,113.378163 L307.529931,113.378163 C321.929935,113.378163 334.079938,108.55299 343.988941,99.0376769 C344.780941,98.2364821 345.572941,97.4262851 346.373941,96.6250904 C364.414975,76.9312618 363.370393,46.4148687 344.024941,28.0014079 L344.024941,28.0374167 Z M329.102937,84.0580353 C323.679383,89.8488245 316.025904,93.0237891 308.096932,92.7721537 L272.429922,92.7721537 L272.429922,34.0686939 L308.096932,34.0686939 C315.708262,34.0413188 323.021014,37.0286241 328.436937,42.3779029 C339.893568,53.7898481 340.188785,72.2493921 329.102937,84.0220265 L329.102937,84.0580353 Z M552.878994,66.4767613 L519.992986,149.026829 L519.587986,149.026829 L485.909977,66.4767613 L462.788971,66.4767613 L509.399983,174.097924 L482.984976,232 L504.899982,232 L576,66.4767613 L552.878994,66.4767613 Z" id="Shape"></path>
            </g>
        </g>
    </g>
</svg>