<svg xmlns="http://www.w3.org/2000/svg" width="14.101" height="22.545" viewBox="0 0 14.101 22.545">
  <path id="Icon_open-dollar" data-name="Icon open-dollar" d="M5.612,0V2.815H3.5A3.556,3.556,0,0,0-.017,6.333V7.74a4.043,4.043,0,0,0,3.068,3.969l7.205,1.858a1.723,1.723,0,0,1,.957,1.238v1.407a.7.7,0,0,1-.7.7H3.473a1.575,1.575,0,0,1-.7-.169V14.1H-.045v2.815a2.644,2.644,0,0,0,1.238,2.2,3.974,3.974,0,0,0,2.28.619H5.584v2.815H8.4V19.73H10.51a3.52,3.52,0,0,0,3.518-3.518V14.8a4.043,4.043,0,0,0-3.068-3.969L3.755,8.979A1.723,1.723,0,0,1,2.8,7.74V6.333a.7.7,0,0,1,.7-.7h7.037a1.694,1.694,0,0,1,.7.169V8.444h2.815V5.629a2.644,2.644,0,0,0-1.238-2.2,3.974,3.974,0,0,0-2.28-.619H8.427V0H5.612Z" transform="translate(0.045)" fill="#ddb8dc"/>
</svg>
