<?xml version="1.0" encoding="UTF-8"?>
<svg width="609px" height="487px" preserveAspectRatio="none" viewBox="0 0 609 487" version="1.1" xmlns="http://www.w3.org/2000/svg" xmlns:xlink="http://www.w3.org/1999/xlink">
    <title>oldtv</title>
    <defs>
        <linearGradient x1="79.9352751%" y1="50.2393356%" x2="98.5760518%" y2="50.5589897%" id="linearGradient-1">
            <stop stop-color="#000000" offset="0%"></stop>
            <stop stop-color="#1A1A1A" offset="100%"></stop>
        </linearGradient>
        <linearGradient x1="79.9352751%" y1="50.1840476%" x2="98.5760518%" y2="50.4298598%" id="linearGradient-2">
            <stop stop-color="#000000" offset="0%"></stop>
            <stop stop-color="#1A1A1A" offset="100%"></stop>
        </linearGradient>
        <linearGradient x1="50.2129778%" y1="70.8717031%" x2="50.3455997%" y2="98.7477406%" id="linearGradient-3">
            <stop stop-color="#000000" offset="0%"></stop>
            <stop stop-color="#1A1A1A" offset="100%"></stop>
        </linearGradient>
        <linearGradient x1="-83.6522463%" y1="-0.39868676%" x2="-83.6522463%" y2="99.5157912%" id="linearGradient-4">
            <stop stop-color="#875824" offset="0%"></stop>
            <stop stop-color="#583917" offset="3.13%"></stop>
            <stop stop-color="#D49B5E" offset="6.25%"></stop>
            <stop stop-color="#5B3B18" offset="12.5%"></stop>
            <stop stop-color="#D6A065" offset="20.91%"></stop>
            <stop stop-color="#69451C" offset="50%"></stop>
            <stop stop-color="#36230F" offset="75%"></stop>
            <stop stop-color="#DAAA75" offset="80.5%"></stop>
            <stop stop-color="#875824" offset="100%"></stop>
        </linearGradient>
        <radialGradient cx="49.9994998%" cy="50.0012734%" fx="49.9994998%" fy="50.0012734%" r="600.877556%" gradientTransform="translate(0.499995,0.500013),scale(0.075872,1.000000),rotate(-0.000002),translate(-0.499995,-0.500013)" id="radialGradient-5">
            <stop stop-color="#BABBB3" offset="0%"></stop>
            <stop stop-color="#99958C" offset="100%"></stop>
        </radialGradient>
        <radialGradient cx="36.7599077%" cy="35.0210013%" fx="36.7599077%" fy="35.0210013%" r="203.323037%" gradientTransform="translate(0.367599,0.350210),scale(1.000000,0.133417),translate(-0.367599,-0.350210)" id="radialGradient-6">
            <stop stop-color="#EFF0E8" offset="0%"></stop>
            <stop stop-color="#BEBBB2" offset="100%"></stop>
        </radialGradient>
        <radialGradient cx="50.0003035%" cy="49.999248%" fx="50.0003035%" fy="49.999248%" r="929.867311%" gradientTransform="translate(0.500003,0.499992),scale(0.073234,1.000000),rotate(0.000002),translate(-0.500003,-0.499992)" id="radialGradient-7">
            <stop stop-color="#8D8D83" offset="0%"></stop>
            <stop stop-color="#514F42" offset="100%"></stop>
        </radialGradient>
        <radialGradient cx="72.0880029%" cy="49.9995937%" fx="72.0880029%" fy="49.9995937%" r="326.292%" gradientTransform="translate(0.720880,0.499996),scale(1.000000,0.132757),translate(-0.720880,-0.499996)" id="radialGradient-8">
            <stop stop-color="#FFFFFB" offset="0%"></stop>
            <stop stop-color="#CDCAC1" offset="100%"></stop>
        </radialGradient>
        <linearGradient x1="-67.2678691%" y1="-6.52538208%" x2="-67.2678691%" y2="82.6613689%" id="linearGradient-9">
            <stop stop-color="#FFFFFF" offset="0%"></stop>
            <stop stop-color="#FFFFFF" stop-opacity="0" offset="100%"></stop>
        </linearGradient>
    </defs>
    <g id="Page-1" stroke="none" stroke-width="1" fill="none" fill-rule="evenodd">
        <g id="oldtv" fill-rule="nonzero">
            <polygon id="path229" fill="url(#linearGradient-1)" points="0 0.38571 607 0.38571 607 65.38571 0 65.38571"></polygon>
            <polygon id="path229-copy-4" fill="url(#linearGradient-2)" points="0 429.38571 607 429.38571 607 486.38571 0 486.38571"></polygon>
            <polygon id="path229-copy" fill="url(#linearGradient-3)" points="0 0.38571 41 0.38571 41 486.46631 0 486.46631"></polygon>
            <polygon id="path229-copy-2" fill="url(#linearGradient-3)" points="566 0.38571 607 0.38571 607 486.46631 566 486.46631"></polygon>
            <polygon id="path229-copy-3" fill="url(#linearGradient-3)" points="566 0.38571 607 0.38571 607 486.46631 566 486.46631"></polygon>
            <path d="M36.6875,36.60447 C31.04678,36.60447 26.5,41.15124 26.5,46.79197 L26.5,448.96384 C26.5,454.60457 31.04678,459.15134 36.6875,459.15134 L576.3125,459.15134 C581.9533,459.15134 586.5,454.60457 586.5,448.96384 L586.5,46.79197 C586.5,41.15124 581.9533,36.60447 576.3125,36.60447 L36.6875,36.60447 Z M40.98437,40.3794978 C41.15529,40.3794978 41.32687,40.3794978 41.5,40.3794978 L571.5,40.3794978 C577.04,40.3794978 581.5,44.84572 581.5,50.38572 L581.5,445.38572 C581.5,450.92572 577.04,455.38572 571.5,455.38572 L41.5,455.38572 C35.96,455.38572 31.5,450.92572 31.5,445.38572 L31.5,50.38572 C31.5,45.01884 35.68609,40.65256 40.98437,40.3794978 Z" id="path239" fill="#ACAEA3"></path>
            <polygon id="path639" fill="#3D3729" points="5.5 0.3793 606.5 0.3793 606.5 14.3793 5.5 14.3793"></polygon>
            <path d="M5.5,15.88572 L5.5,480.38572 L606.5,480.38572 L606.5,15.88572 L5.5,15.88572 Z M31.85937,32.83884 L581.1406,32.83884 C586.8821,32.83884 591.5,37.45676 591.5,43.19822 L591.5,452.55759 C591.5,458.29905 586.8821,462.91697 581.1406,462.91697 L31.85937,462.91697 C26.11792,462.91697 21.5,458.29905 21.5,452.55759 L21.5,43.19822 C21.5,37.45676 26.11792,32.83884 31.85937,32.83884 Z" id="path987" fill="url(#linearGradient-4)"></path>
            <path d="M86.20312,414.16697 L34.89062,452.88572 C36.65094,454.4355 38.95956,455.38572 41.5,455.38572 L571.5,455.38572 C574.0607,455.38572 576.3908,454.42644 578.1563,452.85447 L527.0938,414.30759 C525.4478,414.88482 523.7033,415.30807 521.8594,415.55759 C370.32335,436.06429 228.17664,433.09776 91.85937,415.55759 C89.84643,415.29858 87.96107,414.82511 86.20312,414.16697 Z" id="path989" fill="url(#radialGradient-5)"></path>
            <path d="M34.875,42.87009 C32.80169,44.70334 31.5,47.39052 31.5,50.38572 L31.5,445.38572 C31.5,448.38527 32.81218,451.05586 34.89062,452.88572 L86.20312,414.16697 C78.36384,411.23205 73.18544,404.51038 71.85937,395.55759 C57.43804,298.19359 55.82231,199.22889 71.85937,98.05759 C73.15833,89.86302 77.54738,83.3989 84.29687,80.16697 L34.875,42.87009 Z" id="path991" fill="url(#radialGradient-6)"></path>
            <path d="M40.98437,40.38572 C38.64301,40.50364 36.5167,41.41848 34.875,42.87009 L84.29687,80.16697 C86.56093,79.08285 89.09222,78.35522 91.85937,78.05759 C165.38686,70.1491 238.01459,66.0099 309.70312,65.91697 C381.39165,65.82407 452.14095,69.77736 521.8594,78.05759 C524.4546,78.36582 526.8357,79.0427 528.9844,80.02634 L578.1406,42.91697 C576.3763,41.34961 574.0565,40.38572 571.5,40.38572 L41.5,40.38572 C41.32688,40.38572 41.15529,40.37672 40.98438,40.38572 L40.98437,40.38572 Z" id="path993" fill="url(#radialGradient-7)"></path>
            <path d="M578.1406,42.91697 L528.9844,80.02634 C535.9453,83.21293 540.4607,89.7074 541.8594,98.05759 C558.8495,199.48961 553.1972,297.90263 541.8594,395.55759 C540.7955,404.72058 535.2413,411.45028 527.0781,414.30759 L578.1563,452.85447 C580.2103,451.02555 581.5,448.365 581.5,445.38572 L581.5,50.38572 C581.5,47.40223 580.1997,44.7461 578.1406,42.91697 Z" id="path995" fill="url(#radialGradient-8)"></path>
            <path d="M75,404.76072 L34.1875,452.213845 C34.51913,452.56919 34.869835,452.89447 35.25,453.19822 L96.140625,416.088845 C94.714255,415.90867 93.28447,415.740965 91.859375,415.557595 C84.304165,414.585455 78.447595,410.669925 75,404.76072 Z" id="path1019" fill="#FFFFFF" opacity="0.6"></path>
            <path d="M536.34375,408.22947 C532.8087,412.170125 527.8096,414.752375 521.8594,415.557595 C520.5607,415.73334 519.26605,415.90092 517.96875,416.07322 L577.8125,453.151345 C578.1184,452.90303 578.39765,452.63678 578.6719,452.35447 L536.34375,408.22947 Z" id="path1021" fill="#FFFFFF" opacity="0.6"></path>
            <path d="M577.7031,42.54197 L517.40625,77.54197 C518.8889,77.714045 520.37765,77.881615 521.8594,78.057595 C528.983,78.90365 534.49945,82.456975 538,87.82322 L578.75,43.495095 C578.42295,43.150825 578.07625,42.836715 577.7031,42.54197 Z" id="path1023" fill="#FFFFFF" opacity="0.6"></path>
            <path d="M35.15625,42.63572 C34.910165,42.83785 34.67866,43.06754 34.453125,43.29197 L77.34375,85.54197 C80.585735,81.70905 85.080655,79.10587 90.578125,78.22947 L35.15625,42.63572 Z" id="path1025" fill="#FFFFFF" opacity="0.6"></path>
            <polygon id="path1123" stroke="url(#linearGradient-9)" stroke-width="3" fill="#3D3729" points="6.25 1.5 607.25 1.5 607.25 15.5 6.25 15.5"></polygon>
        </g>
    </g>
</svg>