<?xml version="1.0" encoding="UTF-8"?>
<svg width="34px" height="34px" viewBox="0 0 34 34" version="1.1" xmlns="http://www.w3.org/2000/svg" xmlns:xlink="http://www.w3.org/1999/xlink">
    <title>poor-bitcoin</title>
    <g id="Page-1" stroke="none" stroke-width="1" fill="none" fill-rule="evenodd">
        <g id="poor-bitcoin" fill="#FFFFFF" fill-rule="nonzero">
            <path d="M16.555,26.038 C16.1745896,25.8952875 15.8020606,25.7323896 15.439,25.55 C15.4087261,27.101099 15.7940521,28.6320448 16.555,29.984 L16.555,26.038 Z" id="Path_3435"></path>
            <path d="M22.086,23.499 C21.7679091,23.3313 21.4026004,23.2756406 21.049,23.341 L20.6,26.034 C21.1381656,26.2756958 21.7606093,26.2383342 22.266,25.934 L22.266,23.982 C22.290853,23.7998195 22.2233638,23.6172236 22.086,23.495 L22.086,23.499 Z" id="Path_3436"></path>
            <path d="M19.735,26.819 C19.0464305,26.7336017 18.3652019,26.596888 17.697,26.41 L17.697,30.265 L22.266,30.265 L22.266,27.165 C21.9326083,27.2789133 21.5832846,27.3393277 21.231,27.344 C20.684189,27.3547387 20.1517657,27.1683906 19.731,26.819 L19.735,26.819 Z" id="Path_3437"></path>
            <path d="M16.556,32.552 L16.556,32.683 C16.5514004,32.828838 16.5564112,32.9748206 16.571,33.12 L22.271,33.12 L22.271,31.41 L17.232,31.41 C16.7930868,31.6152374 16.5247936,32.0684782 16.556,32.552 Z" id="Path_3438"></path>
            <path d="M17.126,5.14 C17.1152912,4.39504288 17.5945229,3.73127236 18.305,3.507 C18.3428909,3.20691485 18.4177941,2.91267622 18.528,2.631 L19.053,2.856 L19.579,3.078 C19.3226363,3.75802753 19.3714591,4.51550985 19.713,5.157 C20.429985,6.05964851 21.4906279,6.622764 22.64,6.711 C21.9845557,6.19548361 21.4725263,5.5202385 21.153,4.75 L22.235,4.385 C22.276,4.502 23.257,7.138 27.406,6.893 L27.406,5.14 L28.548,5.14 L28.548,6.853 C28.9501742,6.85554506 29.344391,6.9653182 29.69,7.171 L29.69,4.039 C29.625,3.648 28.856,0 22.837,0 C16.818,0 16.052,3.634 15.984,4.04 L15.984,7.17 C16.329609,6.9643182 16.7238258,6.85454506 17.126,6.852 L17.126,5.14 Z" id="Path_3439"></path>
            <path d="M17.126,10.279 L17.184,10.279 C17.1536351,10.0900181 17.135265,9.89930329 17.129,9.708 L17.129,7.995 C16.7210027,7.995 16.3439976,8.21266395 16.1399989,8.56599999 C15.9360003,8.91933602 15.9360003,9.35466398 16.1399989,9.70800001 C16.3439976,10.0613361 16.7210027,10.279 17.129,10.279 L17.126,10.279 Z" id="Path_3440"></path>
            <path d="M23.568,7.993 C21.116,7.77 19.486,7.009 18.725,5.731 C18.5540947,5.44257497 18.4295758,5.12908442 18.356,4.802 C18.2976558,4.90690779 18.267,5.02495965 18.267,5.145 L18.267,9.707 C18.267,9.869 18.346,13.707 22.836,13.707 C27.326,13.707 27.404,9.871 27.405,9.707 L27.405,8.044 C27.222,8.054 27.043,8.059 26.87,8.059 C25.747609,8.08334815 24.6356741,7.83888019 23.627,7.346 L23.568,7.993 Z M24.368,12.535 C23.3675636,12.2404479 22.3034364,12.2404479 21.303,12.535 L20.942,11.452 C22.1772654,11.0799859 23.4947346,11.0799859 24.73,11.452 L24.368,12.535 Z" id="Path_3441"></path>
            <path d="M28.548,9.708 C28.5417376,9.89930346 28.5233675,10.0900184 28.493,10.279 L28.548,10.279 C29.1787092,10.279 29.69,9.76770918 29.69,9.137 C29.69,8.50629082 29.1787092,7.995 28.548,7.995 L28.548,9.708 Z" id="Path_3442"></path>
            <path d="M25.146,22.262 C26.2032509,22.0949284 27.1878819,21.620177 27.977,20.897 L27.977,18.275 C27.977,18.104 27.882,16.562 25.693,16.562 C23.434,16.562 23.408,18.205 23.408,18.275 L23.408,22.326 C23.973052,22.1608077 24.5703288,22.1388137 25.146,22.262 Z" id="Path_3443"></path>
            <path d="M29.119,29.984 C29.882102,28.6329052 30.2675787,27.1013609 30.235,25.55 C29.8718287,25.7321536 29.4993124,25.895046 29.119,26.038 L29.119,29.984 Z" id="Path_3444"></path>
            <path d="M23.408,30.265 L27.977,30.265 L27.977,26.41 C27.3088532,26.5971174 26.6276073,26.7338346 25.939,26.819 C25.5184135,27.1687073 24.9858684,27.3550981 24.439,27.344 C24.088035,27.3391751 23.7400521,27.278759 23.408,27.165 L23.408,30.265 Z" id="Path_3445"></path>
            <path d="M27.607,12.619 C26.5220667,14.1515751 24.7083871,14.9971985 22.837,14.843 C20.9659565,14.9968339 19.1527457,14.1512518 18.068,12.619 C16.858,12.934 12.558,14.393 12.558,19.419 C12.558,24.278 17.81,25.406 19.508,25.644 L19.899,23.297 C16.9661527,22.799786 14.971565,20.0456095 15.414,17.104 L15.414,15.991 L16.558,15.991 L16.558,17.191 C16.5057546,17.6331286 16.5057546,18.0798714 16.558,18.522 L16.558,18.271 C16.558,17.284 17.274,15.416 19.985,15.416 C21.0783762,15.3306543 22.1444439,15.7850866 22.84,16.633 C23.5355524,15.7865304 24.6007763,15.3332595 25.693,15.419 C28.403,15.419 29.12,17.287 29.12,18.274 L29.12,18.525 C29.1721714,18.083536 29.1721714,17.637464 29.12,17.196 L29.12,17.133 L29.12,16.089 L30.258,16.089 L30.258,17.101 C30.6998737,20.0424728 28.7055424,22.7962953 25.773,23.294 L26.164,25.641 C27.864,25.403 33.114,24.275 33.114,19.416 C33.114,14.392 28.814,12.933 27.604,12.623 L27.607,12.619 Z" id="Path_3446"></path>
            <path d="M19.981,16.562 C17.723,16.562 17.697,18.205 17.697,18.275 L17.697,20.9 C18.4865553,21.621988 19.4711195,22.0956638 20.528,22.262 C21.1031291,22.1376987 21.7001968,22.1590103 22.265,22.324 L22.265,18.275 C22.262,18.105 22.171,16.562 19.981,16.562 Z" id="Path_3447"></path>
            <path d="M28.44,31.41 L23.408,31.41 L23.408,33.123 L29.108,33.123 C29.1229121,32.9768391 29.1279236,32.8298371 29.123,32.683 L29.123,32.552 C29.1532941,32.0667454 28.8818484,31.6128787 28.44,31.41 L28.44,31.41 Z" id="Path_3448"></path>
            <path d="M23.408,25.937 C23.9127555,26.2433743 24.536221,26.2807972 25.074,26.037 L24.625,23.344 C24.2712817,23.2793404 23.9060964,23.3353331 23.588,23.503 C23.4531487,23.6235348 23.3859018,23.8024863 23.408,23.982 L23.408,25.937 Z" id="Path_3449"></path>
            <path d="M0.97,31.385 C2.013,32.538 3.798,33.125 6.276,33.125 C8.754,33.125 10.553,32.536 11.594,31.373 C12.1486396,30.7470753 12.485776,29.9584356 12.555,29.125 L0,29.125 C0.0711254981,29.9632334 0.411383469,30.7559994 0.97,31.385 L0.97,31.385 Z" id="Path_3450"></path>
            <path d="M3.38482638,17.4800815 C5.09211261,16.772572 7.05748496,17.1632294 8.36441716,18.4698755 C9.67134936,19.7765217 10.0624369,21.7418085 9.35530117,23.4492496 C8.64816541,25.1566906 6.98207899,26.27 5.134,26.27 C2.61214316,26.2672454 0.568306574,24.2238562 0.56499978,21.702 C0.564595518,19.8539211 1.67754014,18.187591 3.38482638,17.4800815 Z M4.67035498,17.4 L3.9276456,17.4 L3.9276456,18.6428571 L2.35,18.6428571 L2.35,19.575 L2.85544426,19.575 C2.96346896,19.5671217 3.07187725,19.5823303 3.17437392,19.6197429 C3.2249326,19.6429544 3.26650284,19.6841085 3.29210483,19.7362952 C3.32299884,19.8462941 3.33470153,19.961459 3.32662548,20.0760095 L3.32662548,23.4394571 C3.33444949,23.553366 3.32274962,23.667848 3.29210483,23.7772381 C3.26866169,23.827781 3.25578085,23.8725238 3.19962038,23.8995905 C3.154692,23.9212438 3.1445522,23.9243371 3.06249402,23.9247083 L2.50766151,23.9247238 L2.35,24.8571429 L3.92584228,24.8571429 L3.92584228,26.1 L4.66855166,26.1 L4.66855166,24.8571429 L5.24818958,24.8571429 L5.24818958,26.1 L5.97286578,26.1 L5.97286578,24.8494095 C6.33904015,24.8428021 6.70204329,24.7753464 7.04893137,24.6494476 C7.36771227,24.5324615 7.64864923,24.3201993 7.85862113,24.0376857 C8.03874731,23.7414087 8.13789421,23.3969779 8.14483346,23.0434 C8.16379511,22.7582459 8.13044941,22.4718718 8.04668144,22.2004667 C7.94668197,21.9473338 7.76635373,21.7403068 7.53763054,21.6160476 C7.39340723,21.52895 7.23854311,21.4638768 7.07752684,21.4227143 C7.18586759,21.3687719 7.28552085,21.2967075 7.37275575,21.209219 C7.50127991,21.0864437 7.5987606,20.9308205 7.65613429,20.756819 C7.70872542,20.580043 7.73021486,20.3943279 7.71950804,20.2091333 C7.7182186,19.9007218 7.63531767,19.5990349 7.4804396,19.3391333 C7.30478449,19.0980775 7.06842408,18.9159811 6.79930064,18.8143714 C6.53527517,18.7084246 6.25672796,18.6500052 5.97492672,18.6414762 L5.97492672,17.4 L5.2499929,17.4 L5.2499929,18.6428571 L4.67035498,18.6428571 L4.67035498,17.4 Z M5.39818958,22.0607143 L5.39818958,23.8084476 L4.81855166,23.8084476 L4.81855166,22.0607143 L5.39818958,22.0607143 Z M6.12286578,22.0897143 C6.19376217,22.100937 6.26275522,22.1231738 6.32767118,22.1557238 C6.46659399,22.2053124 6.59047582,22.294141 6.68627384,22.4128571 C6.77872475,22.5533859 6.82929211,22.7206474 6.83131212,22.8926 C6.84415347,23.0813112 6.77515507,23.2658362 6.64428229,23.392781 C6.53076418,23.5121089 6.39416975,23.6035177 6.24420332,23.6606857 C6.20451196,23.6757062 6.16398795,23.6880665 6.12286578,23.6976952 L6.12286578,22.0897143 Z M5.39818958,19.6915524 L5.39818958,21.1277429 L4.81855166,21.1277429 L4.81855166,19.6915524 L5.39818958,19.6915524 Z M6.12286578,19.7672286 C6.2255203,19.8235676 6.31191194,19.9088355 6.37275413,20.0138667 C6.45242376,20.1348522 6.49369845,20.2800946 6.49048503,20.4281524 C6.48850056,20.5734561 6.440643,20.7137499 6.35472095,20.8261429 C6.29677293,20.9188673 6.2167128,20.9932553 6.12286578,21.0415714 L6.12286578,19.7672286 Z" id="Path_3451"></path>
        </g>
    </g>
</svg>