<svg xmlns="http://www.w3.org/2000/svg" width="33.117" height="33.123" viewBox="0 0 33.117 33.123">
  <g id="poor_1_" data-name="poor (1)" transform="translate(-3.011 -3)">
    <path id="Path_3435" data-name="Path 3435" d="M31.162,48.227a11.428,11.428,0,0,1-1.116-.488,8.694,8.694,0,0,0,1.116,4.434Z" transform="translate(-11.596 -19.189)" fill="#fff"/>
    <path id="Path_3436" data-name="Path 3436" d="M40.569,44.017a1.6,1.6,0,0,0-1.037-.158l-.449,2.693a1.8,1.8,0,0,0,1.666-.1V44.5a.552.552,0,0,0-.18-.487Z" transform="translate(-15.472 -17.518)" fill="#fff"/>
    <path id="Path_3437" data-name="Path 3437" d="M36.038,49.654A13.933,13.933,0,0,1,34,49.245V53.1h4.569V50a3.338,3.338,0,0,1-1.035.179,2.278,2.278,0,0,1-1.5-.525Z" transform="translate(-13.292 -19.835)" fill="#fff"/>
    <path id="Path_3438" data-name="Path 3438" d="M32,59.142v.131a3.323,3.323,0,0,0,.015.437l5.7,0V58H32.676A1.177,1.177,0,0,0,32,59.142Z" transform="translate(-12.433 -23.59)" fill="#fff"/>
    <path id="Path_3439" data-name="Path 3439" d="M32.142,8.14a1.687,1.687,0,0,1,1.179-1.633,3.664,3.664,0,0,1,.223-.876l.525.225.526.222a2.527,2.527,0,0,0,.134,2.079,4.143,4.143,0,0,0,2.927,1.554A4.868,4.868,0,0,1,36.169,7.75l1.082-.365c.041.117,1.022,2.753,5.171,2.508V8.14h1.142V9.853a2.261,2.261,0,0,1,1.142.318V7.039C44.641,6.648,43.872,3,37.853,3S31.068,6.634,31,7.04v3.13a2.261,2.261,0,0,1,1.142-.318Z" transform="translate(-12.005 0)" fill="#fff"/>
    <path id="Path_3440" data-name="Path 3440" d="M32.142,19.284H32.2a4.535,4.535,0,0,1-.055-.571V17a1.142,1.142,0,1,0,0,2.284Z" transform="translate(-12.005 -6.005)" fill="#fff"/>
    <path id="Path_3441" data-name="Path 3441" d="M40.3,14.6c-2.452-.223-4.082-.984-4.843-2.262a3.2,3.2,0,0,1-.369-.929.706.706,0,0,0-.089.343v4.562c0,.162.079,4,4.569,4s4.568-3.836,4.569-4V14.651c-.183.01-.362.015-.535.015a7.039,7.039,0,0,1-3.243-.713Zm.8,4.542a5.426,5.426,0,0,0-3.065,0l-.361-1.083a6.568,6.568,0,0,1,3.788,0Z" transform="translate(-13.721 -3.607)" fill="#fff"/>
    <path id="Path_3442" data-name="Path 3442" d="M52.959,18.713a4.534,4.534,0,0,1-.055.571h.055a1.142,1.142,0,1,0,0-2.284Z" transform="translate(-21.4 -6.005)" fill="#fff"/>
    <path id="Path_3443" data-name="Path 3443" d="M45.738,37.7a5.449,5.449,0,0,0,2.831-1.365V33.713c0-.171-.095-1.713-2.284-1.713C44.026,32,44,33.643,44,33.713v4.051A3.548,3.548,0,0,1,45.738,37.7Z" transform="translate(-17.581 -12.438)" fill="#fff"/>
    <path id="Path_3444" data-name="Path 3444" d="M54,52.174a8.647,8.647,0,0,0,1.116-4.434A11.567,11.567,0,0,1,54,48.228Z" transform="translate(-21.87 -19.19)" fill="#fff"/>
    <path id="Path_3445" data-name="Path 3445" d="M44,53.1h4.569V49.245a13.87,13.87,0,0,1-2.038.409,2.274,2.274,0,0,1-1.5.525A3.322,3.322,0,0,1,44,50Z" transform="translate(-17.581 -19.835)" fill="#fff"/>
    <path id="Path_3446" data-name="Path 3446" d="M40.049,25.1a5.31,5.31,0,0,1-4.77,2.224A5.31,5.31,0,0,1,30.51,25.1C29.3,25.415,25,26.874,25,31.9c0,4.859,5.252,5.987,6.95,6.225l.391-2.347a5.458,5.458,0,0,1-4.485-6.193V28.472H29l0,1.2a5.671,5.671,0,0,0,0,1.331v-.251c0-.987.716-2.855,3.427-2.855a3.355,3.355,0,0,1,2.855,1.217A3.353,3.353,0,0,1,38.135,27.9c2.71,0,3.427,1.868,3.427,2.855v.251a5.662,5.662,0,0,0,0-1.329l0-.063V28.57H42.7v1.012a5.459,5.459,0,0,1-4.485,6.193l.391,2.347c1.7-.238,6.95-1.366,6.95-6.225,0-5.024-4.3-6.483-5.51-6.793Z" transform="translate(-9.431 -9.481)" fill="#fff"/>
    <path id="Path_3447" data-name="Path 3447" d="M36.284,32C34.026,32,34,33.643,34,33.713v2.625A5.451,5.451,0,0,0,36.831,37.7a3.533,3.533,0,0,1,1.737.062V33.713C38.565,33.543,38.474,32,36.284,32Z" transform="translate(-13.292 -12.438)" fill="#fff"/>
    <path id="Path_3448" data-name="Path 3448" d="M49.032,58H44v1.713h5.7a3.259,3.259,0,0,0,.015-.44v-.131A1.176,1.176,0,0,0,49.032,58Z" transform="translate(-17.581 -23.59)" fill="#fff"/>
    <path id="Path_3449" data-name="Path 3449" d="M44,46.455a1.788,1.788,0,0,0,1.666.1l-.449-2.693a1.605,1.605,0,0,0-1.037.159A.552.552,0,0,0,44,44.5Z" transform="translate(-17.581 -17.518)" fill="#fff"/>
    <path id="Path_3450" data-name="Path 3450" d="M3.981,56.26C5.024,57.413,6.809,58,9.287,58s4.277-.589,5.318-1.752A3.873,3.873,0,0,0,15.566,54H3.011a3.9,3.9,0,0,0,.97,2.26Z" transform="translate(0 -21.875)" fill="#fff"/>
    <path id="Path_3451" data-name="Path 3451" d="M8.569,42.137A4.569,4.569,0,1,0,4,37.569,4.574,4.574,0,0,0,8.569,42.137ZM6.284,39.282H9.711V38.14H6.284V34.713H8V33.571H9.14v1.142h1.713v1.142H7.427V37h3.427v3.427H9.14v1.142H8V40.424H6.284Z" transform="translate(-0.424 -12.867)" fill="#fff"/>
  </g>
</svg>
