<svg xmlns="http://www.w3.org/2000/svg" xmlns:xlink="http://www.w3.org/1999/xlink" width="101.08" height="90.951" viewBox="0 0 101.08 90.951">
  <defs>
    <clipPath id="clip-path">
      <rect id="Rectangle_269" data-name="Rectangle 269" width="91.365" height="80.616" fill="none"/>
    </clipPath>
  </defs>
  <g id="Group_5029" data-name="Group 5029" transform="translate(-0.001 0)">
    <g id="Group_5017" data-name="Group 5017" transform="translate(6.099 0)">
      <g id="Group_5016" data-name="Group 5016" transform="translate(0)" clip-path="url(#clip-path)">
        <circle id="Ellipse_391" data-name="Ellipse 391" cx="42.582" cy="42.582" r="42.582" transform="translate(-15.778 49.052) rotate(-45)" fill="#ffe6fe"/>
        <path id="Path_3350" data-name="Path 3350" d="M307.261,112.656a42.892,42.892,0,1,1,42.892-42.892A42.941,42.941,0,0,1,307.261,112.656Zm0-85.164a42.272,42.272,0,1,0,42.272,42.271A42.32,42.32,0,0,0,307.261,27.492Z" transform="translate(-262.819 -20.712)" fill="#ddb8dc"/>
      </g>
    </g>
    <path id="Path_3351" data-name="Path 3351" d="M252.036,146.105h101.08s-18.6,10.852-50.54,10.852S252.036,146.105,252.036,146.105Z" transform="translate(-252.035 -66.006)" fill="#ddb8dc"/>
    <g id="Group_5028" data-name="Group 5028" transform="translate(4.837 17.631)">
      <g id="Group_5020" data-name="Group 5020" transform="translate(43.728 27.511)">
        <g id="Group_5018" data-name="Group 5018">
          <path id="Path_3352" data-name="Path 3352" d="M331.271,121.6h31.32l1.125-30.858-33.367-1.011Z" transform="translate(-330.349 -89.733)" fill="#e0a057"/>
          <path id="Path_3353" data-name="Path 3353" d="M363.715,95.659s-16.489,16.273-28.646,25.878C335.069,121.537,352.023,105.072,363.715,95.659Z" transform="translate(-332.142 -91.984)" fill="#d88340"/>
          <path id="Path_3354" data-name="Path 3354" d="M334.16,94.145s17.861,15.664,28.26,26.993C362.42,121.138,345.067,105.733,334.16,94.145Z" transform="translate(-331.797 -91.409)" fill="#d88340"/>
          <path id="Path_3355" data-name="Path 3355" d="M358.79,90.6a3.315,3.315,0,0,0,2,1.748c.362.065.735.018,1.1.061,1.157.135,2.191,1.155,3.326.892.782-.181,1.313-.926,2.064-1.21a5.117,5.117,0,0,1,1.395-.2,9.681,9.681,0,0,0,3.143-.894Z" transform="translate(-341.153 -90.06)" fill="#c4692d" opacity="0.2"/>
        </g>
        <g id="Group_5019" data-name="Group 5019" transform="translate(20.959 8.656)">
          <path id="Path_3356" data-name="Path 3356" d="M390.541,131.316H365.177l-.97-25.024,26.683.772Z" transform="translate(-364.17 -104.679)" fill="#f5c06b"/>
          <path id="Path_3359" data-name="Path 3359" d="M393.613,140.2l6.8-6.8.054-3.723L389.944,140.2Z" transform="translate(-373.947 -113.56)" fill="#ffdfa7"/>
          <path id="Path_3360" data-name="Path 3360" d="M375.587,135.678c-.563-1.029-.119-2.57-1.062-3.267-.6-.44-1.467-.279-2.107-.652-.373-.217-.629-.593-.99-.83-.676-.445-1.628-.346-2.246-.869-.8-.678-.734-2.146-1.69-2.58a4.043,4.043,0,0,0-2.462-.056l.46,11.858h12.178a3.614,3.614,0,0,0-.925-2.342A7.2,7.2,0,0,1,375.587,135.678Z" transform="translate(-364.482 -112.644)" fill="#e2a23a" opacity="0.3"/>
          <path id="Path_3361" data-name="Path 3361" d="M371.973,112.935H366.8V109.3l5.178.309Z" transform="translate(-365.153 -105.823)" fill="#ffdfa7"/>
          <path id="Path_3362" data-name="Path 3362" d="M364.147,105.286l16.888-1.595.065.7-16.418,1.655Z" transform="translate(-364.147 -103.691)" fill="#f5c06b"/>
          <path id="Icon_metro-qrcode" data-name="Icon metro-qrcode" d="M6.72,2.758H3.4v3.32H6.72Zm.83-.83v4.98H2.571V1.928Zm-3.32,1.66H5.89v1.66H4.231Zm10.789-.83H11.7v3.32h3.32V2.758Zm.83-.83v4.98H10.87V1.928h4.98Zm-3.32,1.66h1.66v1.66H12.53ZM6.72,11.057H3.4v3.32H6.72Zm.83-.83v4.98H2.571v-4.98Zm-3.32,1.66H5.89v1.66H4.231ZM8.38,1.928h.83v.83H8.38Zm.83.83h.83v.83H9.21Zm-.83.83h.83v.83H8.38Zm.83.83h.83v.83H9.21Zm-.83.83h.83v.83H8.38Zm.83.83h.83v.83H9.21Zm-.83.83h.83v.83H8.38Zm0,1.66h.83V9.4H8.38Zm.83.83h.83v.83H9.21Zm-.83.83h.83v.83H8.38Zm.83.83h.83v.83H9.21Zm-.83.83h.83v.83H8.38Zm.83.83h.83v.83H9.21Zm-.83.83h.83v.83H8.38Zm.83.83h.83v.83H9.21ZM15.02,8.567h.83V9.4h-.83ZM3.4,8.567h.83V9.4H3.4Zm.83-.83h.83v.83h-.83Zm-1.66,0H3.4v.83h-.83Zm3.32,0h.83v.83H5.89Zm.83.83h.83V9.4H6.72Zm.83-.83h.83v.83H7.55Zm2.49.83h.83V9.4h-.83Zm.83-.83h.83v.83h-.83Zm.83.83h.83V9.4H11.7Zm.83-.83h.83v.83h-.83Zm.83.83h.83V9.4h-.83Zm.83-.83h.83v.83h-.83Zm.83,2.49h.83v.83h-.83Zm-4.98,0h.83v.83h-.83Zm.83-.83h.83v.83h-.83Zm.83.83h.83v.83H11.7Zm1.66,0h.83v.83h-.83Zm.83-.83h.83v.83h-.83Zm.83,2.49h.83v.83h-.83Zm-4.98,0h.83v.83h-.83Zm.83-.83h.83v.83h-.83Zm1.66,0h.83v.83h-.83Zm.83.83h.83v.83h-.83Zm.83-.83h.83v.83h-.83Zm.83,2.49h.83v.83h-.83Zm-4.15-.83h.83v.83h-.83Zm.83.83h.83v.83H11.7Zm.83-.83h.83v.83h-.83Zm.83.83h.83v.83h-.83Zm-2.49.83h.83v.83h-.83Zm1.66,0h.83v.83h-.83Zm1.66,0h.83v.83h-.83Z" transform="translate(3.803 6.269)" fill="#d88340"/>
        </g>
      </g>
      <g id="Group_5025" data-name="Group 5025">
        <path id="Path_3363" data-name="Path 3363" d="M331.271,121.6h12.463c.975-1.409,1.8-2.88,1.8-2.88-.62-.166.623.074.623.074s1.866-4.643,2.332-13.816a31.816,31.816,0,0,0-2.432-14.744l-15.708-.5Z" transform="translate(-286.622 -62.222)" fill="#c4692d" opacity="0.3" style="mix-blend-mode: multiply;isolation: isolate"/>
        <path id="Path_3364" data-name="Path 3364" d="M343.923,134.162l1.244-1.325-.467,1.481Z" transform="translate(-291.778 -78.597)" fill="#c6924f"/>
        <g id="Group_5024" data-name="Group 5024">
          <path id="Path_3365" data-name="Path 3365" d="M319.834,46.791c-.738.2-2.328-1.366-3.691-1.421a4.788,4.788,0,0,1,1.511,1.441c-2.514-1.947-7.223.768-8.163,2.431a3.309,3.309,0,0,1,1.668.271c-1.535.576-3.366,2.49-3.3,4.164a3.6,3.6,0,0,1,1.237-.914c-1.772,2.95,1.116,5.261,1.552,7.436a1.112,1.112,0,0,0,.693-.8,8.8,8.8,0,0,0,2.731,4.185l8.559,1.751.694-1s.025.2.5.327a8.876,8.876,0,0,0,1.692-4.743,6.3,6.3,0,0,1,.705,1.178,6.188,6.188,0,0,0-.273-6.279,3.285,3.285,0,0,1,1.1.623c.445-4.234-1.956-6.023-1.956-6.023.078-.068.616.234.709.343C325.8,49.76,324.738,45.476,319.834,46.791Z" transform="translate(-278.077 -45.37)" fill="#8e3d0f"/>
          <path id="Path_3366" data-name="Path 3366" d="M332.814,50.655c.078-.068.617.234.71.342a4.786,4.786,0,0,0-1.584-2.37,2.917,2.917,0,0,1,.346,3.367,5.625,5.625,0,0,1-4.094,2.265l1.335,12.148.829.17.694-1s.025.2.5.327a8.876,8.876,0,0,0,1.692-4.743,6.26,6.26,0,0,1,.705,1.178,6.188,6.188,0,0,0-.273-6.279,3.273,3.273,0,0,1,1.1.623C335.216,52.443,332.814,50.655,332.814,50.655Z" transform="translate(-285.802 -46.607)" fill="#7c2f0a"/>
          <path id="Path_3367" data-name="Path 3367" d="M266.37,141.2a18.6,18.6,0,0,0,2.846-2.618c.642-.832,1.424-2.078,1.424-2.078l1.24.771s-1.116,1.423-1.545,2.112a5.146,5.146,0,0,0-.488,2.547Z" transform="translate(-262.318 -79.988)" fill="#ffa154"/>
          <path id="Path_3368" data-name="Path 3368" d="M267.518,144.874h-7.683s-.009-.852,2.669-1.446a5.361,5.361,0,0,0,2.557-1.362,1.317,1.317,0,0,1,1.132.109c.158.163-.057.437-.075.852-.012.291.389.55,1.4.081Z" transform="translate(-259.835 -82.071)" fill="#562b0d"/>
          <path id="Path_3369" data-name="Path 3369" d="M287.473,141.491a13.452,13.452,0,0,0,2.495-2.613,8.849,8.849,0,0,0,1.014-2.109l1.369.51s-.812,1.615-1.1,2.376a7.632,7.632,0,0,0-.3,2.569Z" transform="translate(-270.334 -80.09)" fill="#ffa154"/>
          <path id="Path_3370" data-name="Path 3370" d="M271.261,138.329a5.034,5.034,0,0,0,1.3.51c.5-.707,1.176-1.567,1.176-1.567L272.5,136.5S271.859,137.519,271.261,138.329Z" transform="translate(-264.175 -79.988)" fill="#ea7f37"/>
          <path id="Path_3371" data-name="Path 3371" d="M291.2,138.878a6.46,6.46,0,0,1-.491.669,5.435,5.435,0,0,0,1.754.183c.009-.024.016-.05.025-.074.283-.761,1.095-2.376,1.095-2.376l-1.369-.51A8.85,8.85,0,0,1,291.2,138.878Z" transform="translate(-271.561 -80.09)" fill="#ea7f37"/>
          <path id="Path_3372" data-name="Path 3372" d="M296.871,104.3s-.4-1.19,1.008-1.064a15.353,15.353,0,0,1,4.8,2.1c3.424,2.279,5.912,3.839,6.016,6.221s-3.94.313-7.776-2.177S296.871,104.3,296.871,104.3Z" transform="translate(-273.884 -67.349)" fill="#363638"/>
          <path id="Path_3373" data-name="Path 3373" d="M294.717,102.669a3.93,3.93,0,0,1,2.745.7,1.012,1.012,0,0,1-.528,1.406C296.233,104.952,294.717,102.669,294.717,102.669Z" transform="translate(-273.086 -67.122)" fill="#ffa154"/>
          <path id="Path_3374" data-name="Path 3374" d="M316.609,88.9c-1.969,2.7-2.492,6.64-4.149,10.993s-4.767,7.667-3,9.431,6.221.42,9.33-6.629C323.424,92.179,316.609,88.9,316.609,88.9Z" transform="translate(-278.485 -61.907)" fill="#363638"/>
          <path id="Path_3375" data-name="Path 3375" d="M332.074,78.932l-5.4,1.642c.25-1-1.173-5.178-1.173-5.178l4.725-1.437S331.082,78.231,332.074,78.932Z" transform="translate(-284.781 -56.23)" fill="#f4863d"/>
          <path id="Path_3376" data-name="Path 3376" d="M332.074,78.932l-5.4,1.642c.25-1-1.173-5.178-1.173-5.178l4.725-1.437S331.082,78.231,332.074,78.932Z" transform="translate(-284.781 -56.23)" fill="#c11313" opacity="0.3" style="mix-blend-mode: multiply;isolation: isolate"/>
          <path id="Path_3377" data-name="Path 3377" d="M302.964,115.168s-15.915-11.04-16.846-11.043a4.42,4.42,0,0,0-2.389.623c-.309.309-7.751,12.954-13.039,19.7a5.032,5.032,0,0,0,4.741,1.145s7.312-5.265,10.346-12.368c0,0,9.151,14.954,12.678,16.2s10.576.933,10.576.933Z" transform="translate(-263.958 -67.69)" fill="#c6924f"/>
          <path id="Path_3378" data-name="Path 3378" d="M339.539,84.921c1.4,3.109,3.316,7.729,2.849,16.9s-2.853,13.606-2.853,13.606-11.2-2.1-17.73-9.1c0,0,2.074-1.867,2.1-3.266.081-5.135-4.044-14.853-3.577-16.255s3.039-4.066,7.86-5.468S338.139,81.813,339.539,84.921Z" transform="translate(-282.8 -58.856)" fill="#414044"/>
          <path id="Path_3379" data-name="Path 3379" d="M312.6,56.9c-.245,2.334,1.219,4.482,1.76,6.762.957,4.03,1.53,6.889,5.037,6.978a7.538,7.538,0,0,0,3.292-.812c2.192-.967,3.169-3.586,2.911-6-.287-2.689-1.312-7.879-2.467-9.284C320.518,51.365,313.046,52.634,312.6,56.9Z" transform="translate(-279.868 -48.18)" fill="#ffa154"/>
          <path id="Path_3380" data-name="Path 3380" d="M323.94,75.005c2.192-.967,3.169-3.586,2.911-6-.07-.659-.185-1.469-.335-2.336l-1.212-.28c.158,2.033-.523,3.192-2.339,3.826a3.521,3.521,0,0,1-2.576.043l-1.213.429a1.962,1.962,0,0,1-1.561.933c-1.155,0-1.671-1.5-1.744-1.69.83,3.447,1.6,5.809,4.779,5.89A7.546,7.546,0,0,0,323.94,75.005Z" transform="translate(-281.121 -53.353)" fill="#414044" opacity="0.2"/>
          <path id="Path_3381" data-name="Path 3381" d="M322.08,74.5c3.069-1.188,3.067.685,1.984,1.059-.653.224-.853-.045-1.369.136s-.343.277-.887.619a.834.834,0,0,1-1.108-.232C320.542,75.662,320.817,74.991,322.08,74.5Z" transform="translate(-282.941 -56.288)" fill="#ffa154"/>
          <path id="Path_3382" data-name="Path 3382" d="M326.786,75.3a12.181,12.181,0,0,0,1.3-.477c2.192-.967,3.169-3.587,2.911-6-.086-.8-.242-1.829-.442-2.907l-.788.608S332,73.087,326.786,75.3Z" transform="translate(-285.268 -53.175)" fill="#ea7f37" opacity="0.3" style="mix-blend-mode: multiply;isolation: isolate"/>
          <path id="Path_3383" data-name="Path 3383" d="M318.991,64.268a3.121,3.121,0,0,1,1,.929c1.51,2.5-.854,3.283-.559,3.907.43.91,2.238.149,2.238.149-.057.7-2.167,1-2.578.069-.485-1.093,1.962-1.562.7-3.968A7.923,7.923,0,0,0,318.991,64.268Z" transform="translate(-282.307 -52.549)" fill="#ea7f37"/>
          <path id="Path_3384" data-name="Path 3384" d="M325.508,65.891a.567.567,0,1,1-.7-.567A.649.649,0,0,1,325.508,65.891Z" transform="translate(-284.368 -52.946)" fill="#562a12"/>
          <path id="Path_3385" data-name="Path 3385" d="M317.583,67.956a.524.524,0,1,1-.647-.523A.6.6,0,0,1,317.583,67.956Z" transform="translate(-281.39 -53.747)" fill="#562a12"/>
          <path id="Path_3386" data-name="Path 3386" d="M334.388,64.689c.184,1.06-.755,2.415-1.758,2.344-.625-.045-.578-.838-.762-1.9s.166-2,.781-2.108S334.2,63.628,334.388,64.689Z" transform="translate(-287.18 -52.074)" fill="#ea7f37"/>
          <path id="Path_3387" data-name="Path 3387" d="M323.159,52.468c-2.425-3.353-6.7-3.089-9.718-1.667-5.286,2.488-1.044,8.209-1.044,8.209-.307-.982-.8-3.252,1.994-5.156a5.911,5.911,0,0,1,5.538-.625l.038-.006a4.113,4.113,0,0,1,2.8,3.612c.335,2.513.743,4.55,1.743,4.645C323.636,59.241,325.7,55.977,323.159,52.468Z" transform="translate(-279.19 -47.054)" fill="#8e3d0f"/>
          <path id="Path_3388" data-name="Path 3388" d="M320.985,75.889a2.63,2.63,0,0,1,.417-.471,3.623,3.623,0,0,1,1.105-.671,4.619,4.619,0,0,1,1.76-.3.156.156,0,0,1,.143.174.172.172,0,0,1-.149.18h-.015a4.372,4.372,0,0,0-1.69.175,3.087,3.087,0,0,0-1.488.99.049.049,0,0,1-.077.012A.075.075,0,0,1,320.985,75.889Z" transform="translate(-283.059 -56.416)" fill="#ea7f37"/>
          <path id="Path_3389" data-name="Path 3389" d="M322.7,61.8a1.545,1.545,0,0,0,.13,1.207,6.143,6.143,0,0,0,3.482.1c.2-.068.141-.881.016-1a9.572,9.572,0,0,0-1.676-.215A8.925,8.925,0,0,0,322.7,61.8Z" transform="translate(-283.691 -51.597)" fill="#8e3d0f"/>
          <path id="Path_3390" data-name="Path 3390" d="M315.75,63.28a1.771,1.771,0,0,1,.444,1.09,4.329,4.329,0,0,1-2.383,1.563c-.171.028-.489-.7-.452-.846a6.869,6.869,0,0,1,1.073-.9A6.187,6.187,0,0,1,315.75,63.28Z" transform="translate(-280.166 -52.174)" fill="#8e3d0f"/>
          <path id="Path_3391" data-name="Path 3391" d="M334.067,65.8c.075.431-.306.982-.714.953-.254-.018-.235-.34-.31-.771s.068-.815.318-.857S333.992,65.369,334.067,65.8Z" transform="translate(-287.637 -52.873)" fill="#db6a2b"/>
          <path id="Path_3392" data-name="Path 3392" d="M322.733,63.272a.531.531,0,0,0,.139.3,6.139,6.139,0,0,0,3.482.1c.069-.023.1-.144.115-.286A6.912,6.912,0,0,1,322.733,63.272Z" transform="translate(-283.728 -52.171)" fill="#7c2f0a"/>
          <path id="Path_3393" data-name="Path 3393" d="M333.312,84.922c3.212-1.868,2.934-3.508,2.934-3.508a11.9,11.9,0,0,0-6.868-.069,16.147,16.147,0,0,0-5.951,3.05C324.584,86.236,329.164,87.359,333.312,84.922Z" transform="translate(-283.992 -58.857)" fill="#363638"/>
          <path id="Path_3394" data-name="Path 3394" d="M313.787,66.256c-.064.011-.145-.091-.224-.218.1.218.233.428.327.413a4.336,4.336,0,0,0,2.383-1.564.456.456,0,0,0-.015-.244A4.534,4.534,0,0,1,313.787,66.256Z" transform="translate(-280.245 -52.692)" fill="#7c2f0a"/>
          <path id="Path_3395" data-name="Path 3395" d="M333.435,102.119c-6.294,3.078-9.156,1.4-9.751.952a49.749,49.749,0,0,1,1.266,5.341,2.026,2.026,0,0,0,.709.084C328.766,108.342,333.435,102.119,333.435,102.119Z" transform="translate(-284.09 -66.928)" fill="#363638"/>
          <path id="Path_3396" data-name="Path 3396" d="M325.105,79.147a6.7,6.7,0,0,0,3-1.25c1.834-1.405,1.6-2.385,2.339-2.383.993,0,1.717,2.185,2.595,3.123.8.858-1.344,3.28-3.92,4.181-2.521.881-4.214.018-4.33-.859S324.012,79.3,325.105,79.147Z" transform="translate(-284.395 -56.821)" fill="#414044"/>
          <g id="Group_5021" data-name="Group 5021" transform="translate(16.161 35.544)">
            <path id="Path_3397" data-name="Path 3397" d="M288.864,104.136a4.979,4.979,0,0,0-1.532,1.246c-.315.4-.618,1-.43,1.237S288.864,104.136,288.864,104.136Z" transform="translate(-286.256 -103.238)" fill="#ffa154"/>
            <path id="Path_3398" data-name="Path 3398" d="M292.959,103.289c.38.754-.508,1.512-.858,2.615s-.469,1.661-.79,1.649-.284-.381-.205-1.163c.056-.564.344-1.126.118-1.188-.353-.1-1.657,1.471-2.076,2.024s-.991,1.76-1.341,1.618-.048-.879.539-1.84.95-1.137.756-1.278-.732.6-1.132,1.1-1.134,1.782-1.481,1.542.137-1.071.626-1.794c.411-.608.964-1.147.922-1.217-.059-.1-.455.33-.923.929s-.861,1.416-1.152,1.2.462-1.452.773-1.883a11.065,11.065,0,0,1,1.688-1.962,8.653,8.653,0,0,1,3.109-.952A1.686,1.686,0,0,1,292.959,103.289Z" transform="translate(-285.896 -102.688)" fill="#ffa154"/>
          </g>
          <g id="Group_5022" data-name="Group 5022" transform="translate(29.425 24.028)">
            <path id="Path_3399" data-name="Path 3399" d="M341.267,84.425c5.8,2.955-4.908,24.944-10.979,22.435-3.976-1.643.3-7.347,2.631-11.505C336.028,89.8,337.547,82.528,341.267,84.425Z" transform="translate(-315.406 -84.117)" fill="#414044"/>
            <path id="Path_3400" data-name="Path 3400" d="M310.1,105.484s7,8.5,13.031,8.326c0,0,.7-6.85-.821-6.849s-10.961-5.9-13.263-5.117C306.622,102.665,306.457,103.481,310.1,105.484Z" transform="translate(-307.285 -90.825)" fill="#414044"/>
          </g>
          <path id="Path_3401" data-name="Path 3401" d="M310.19,115.031s-8.037-11.148-8.865-11.254a4.5,4.5,0,0,0-2.8.933c-.311.417-5.4,13.589-8.815,20.741,0,0,1.039,1.258,4.253.639l.985-1.572-.245,1.405c.383-.1.791-.221,1.228-.373,0,0,3.944-5.024,5.394-8.653,0,0,5.443,9.64,8.5,12.383,2.028,1.818,12.438,1.042,13.892-.2s3.577-5.025,3.577-5.025C320.265,122.169,314.514,119.2,310.19,115.031Z" transform="translate(-271.184 -67.553)" fill="#ddab65"/>
          <path id="Path_3402" data-name="Path 3402" d="M335.619,78.637c-.878-.938-1.6-3.12-2.595-3.123-.649,0-.548.754-1.757,1.89a1.816,1.816,0,0,1,.624.474c.348.41,1.987,3.223,1.929,3.808v0C335.292,80.611,336.182,79.239,335.619,78.637Z" transform="translate(-286.971 -56.821)" fill="#363638"/>
          <path id="Path_3403" data-name="Path 3403" d="M340.468,86.966a4.751,4.751,0,0,0-.4-.713l-.065.162c2.743,5.063-5.4,21.549-11,21.451l0,.048a9.784,9.784,0,0,1-4.736-1.311,10.325,10.325,0,0,1-1.529,1.775c6.532,7,17.73,9.095,17.73,9.095s2.386-4.431,2.853-13.6S341.868,90.074,340.468,86.966Z" transform="translate(-283.729 -60.9)" fill="#363638"/>
          <g id="Group_5023" data-name="Group 5023" transform="translate(42.832 20.978)">
            <path id="Path_3404" data-name="Path 3404" d="M330.4,79.2l-.125.1-.083.061a3.72,3.72,0,0,1,1.06,1.226A24.552,24.552,0,0,1,332.5,83.67q.168-.093.328-.192c-.254-.652-.915-2.334-1.227-3.05A2.576,2.576,0,0,0,330.4,79.2Z" transform="translate(-329.395 -79.198)" fill="#363638"/>
            <path id="Path_3405" data-name="Path 3405" d="M329.194,79.994c-.092.054-.187.107-.289.161a3.961,3.961,0,0,1,.817,1.046A26.113,26.113,0,0,1,331,84.447c.119-.045.237-.094.354-.146-.154-.4-.933-2.445-1.279-3.254A2.5,2.5,0,0,0,329.194,79.994Z" transform="translate(-328.905 -79.5)" fill="#363638"/>
          </g>
          <path id="Path_3406" data-name="Path 3406" d="M327.351,128.309c.62-.21-1.456-2.8-1.456-2.8s5.389,4.556,10.265,6.01c0,0-1.238,3.834-3.21,4.666a23.19,23.19,0,0,1-4.59,1.072c3.41-.022,7.085-.575,7.906-1.279,1.454-1.246,3.577-5.025,3.577-5.025-7.033-1.882-12.784-4.848-17.108-9.02C322.735,121.932,326.731,128.518,327.351,128.309Z" transform="translate(-283.729 -74.454)" fill="#c6924f"/>
          <path id="Path_3407" data-name="Path 3407" d="M308.44,121.478a25.717,25.717,0,0,0,1.661-5.655,17.711,17.711,0,0,1-.622,4.255s1.342-1.354,1.654-1.144-2.382,3.216-2.382,3.216Z" transform="translate(-278.299 -72.133)" fill="#c6924f"/>
          <path id="Path_3408" data-name="Path 3408" d="M306.772,104.879c-.572-.664-.989-1.082-1.146-1.1a4.5,4.5,0,0,0-2.8.933c-.109.145-.8,1.842-1.794,4.293a.971.971,0,0,0,.581-.455s-.083.671.355.759.845-.492,1.344-1.549c0,0,.064.353.56.292s.8-1.319,1.636-2.258A3.316,3.316,0,0,1,306.772,104.879Z" transform="translate(-275.485 -67.553)" fill="#c6924f"/>
          <path id="Path_3409" data-name="Path 3409" d="M306.533,102.356c.246.7-.839,1.523-1.8,2.438.251-.262-.468.635-.657.91-.453.66-.621,1.132-.827,1.078-.269-.07-.082-.662.173-1.175.217-.438.5-.811.388-.843-.2-.056-.828,1.031-1.193,1.646s-.737,1.776-1.1,1.671-.153-.823.341-1.876.659-1.235.572-1.3c-.115-.087-.572.722-.923,1.283s-.962,1.957-1.331,1.752.034-1.113.453-1.911c.352-.67.853-1.287.8-1.354-.068-.092-.422.391-.832,1.059s-.724,1.551-1.035,1.362.322-1.542.592-2.018A8.624,8.624,0,0,1,301.671,103a9.208,9.208,0,0,1,3.537-1.272A1.375,1.375,0,0,1,306.533,102.356Z" transform="translate(-274.896 -66.781)" fill="#ffa154"/>
          <path id="Path_3410" data-name="Path 3410" d="M308.931,101.691c1.481-.115,2.983.6,2.3,1.642-.821,1.249-2.109.118-2.109.118Z" transform="translate(-278.485 -66.76)" fill="#ffa154"/>
          <path id="Path_3411" data-name="Path 3411" d="M330.1,109.463s-.875-.522-.585-.759.7.349.7.349-.11-.825.18-.939.7.939.7.939Z" transform="translate(-286.281 -69.201)" fill="#414044"/>
          <path id="Path_3412" data-name="Path 3412" d="M335.935,116.586a12.23,12.23,0,0,1-4.19-.532,8.575,8.575,0,0,1-2.569,2.879,7.649,7.649,0,0,0,2.27.3l0-.048C332.852,119.211,334.417,118.2,335.935,116.586Z" transform="translate(-286.176 -72.221)" fill="#4a494c"/>
          <path id="Path_3413" data-name="Path 3413" d="M289.07,144.874h-7.024s.2-.582,2.345-1.247c1.756-.544,1.686-1.308,2.221-1.561a1.317,1.317,0,0,1,1.132.109c.158.163-.057.437-.075.852-.012.291.389.55,1.4.081Z" transform="translate(-268.272 -82.071)" fill="#562b0d"/>
          <path id="Path_3414" data-name="Path 3414" d="M297.685,122.58a14.853,14.853,0,0,0-.822-3.445c-.695,1.69-1.441,3.487-2.192,5.252C294.671,124.387,297.607,123.434,297.685,122.58Z" transform="translate(-273.068 -73.392)" fill="#efb872"/>
          <path id="Path_3415" data-name="Path 3415" d="M316.938,54.761c-3.339.86-3.395,3.16-2.987,4.976a2.1,2.1,0,0,1-1.561-2.084C312.274,55.836,315.359,54,316.938,54.761Z" transform="translate(-279.798 -48.87)" fill="#8e3d0f"/>
          <path id="Path_3416" data-name="Path 3416" d="M329.607,59.388c.335,2.513.743,4.55,1.743,4.645-.75-1.917.647-4.583-.523-7.511a6.179,6.179,0,0,1-2.044.695A4.692,4.692,0,0,1,329.607,59.388Z" transform="translate(-286.027 -49.606)" fill="#7c2f0a"/>
        </g>
      </g>
      <g id="Group_5027" data-name="Group 5027" transform="translate(53.716 58.209)">
        <path id="Path_3417" data-name="Path 3417" d="M364.429,149.657H346.456l.557-10.42h16.858Z" transform="translate(-346.456 -139.237)" fill="#ffdfa7"/>
        <path id="Path_3418" data-name="Path 3418" d="M364.429,149.657H346.456l17.415-10.42Z" transform="translate(-346.456 -139.237)" fill="#ffdfa7" opacity="0.15" style="mix-blend-mode: multiply;isolation: isolate"/>
        <path id="Path_3419" data-name="Path 3419" d="M363.906,139.237l.272,10.094h-17.4l.272-10.094-.557,10.42h17.973Z" transform="translate(-346.469 -139.237)" fill="#f4ca86" opacity="0.6" style="mix-blend-mode: multiply;isolation: isolate"/>
        <g id="Group_5026" data-name="Group 5026" transform="translate(3.063 0.477)">
          <path id="Path_3420" data-name="Path 3420" d="M354.877,142.779c.017-.041,0-.063-.056-.07a.878.878,0,0,0-.222.017,2.607,2.607,0,0,0-.318.082,2.87,2.87,0,0,0-.334.133,1.416,1.416,0,0,0-.275.169.392.392,0,0,0-.143.186l0,1.267h-.309a.672.672,0,0,1-.036-.167c-.007-.074-.014-.164-.019-.268s-.007-.215-.01-.335,0-.241,0-.364,0-.244.01-.362.012-.225.017-.321.014-.179.019-.244a.814.814,0,0,1,.022-.133.649.649,0,0,1,.092-.055.238.238,0,0,1,.1-.027c.046,0,.075.031.092.087a.67.67,0,0,1,.024.19c0,.07,0,.14-.012.208a1.108,1.108,0,0,0-.015.138,4.068,4.068,0,0,1,.669-.417,1.282,1.282,0,0,1,.471-.138.43.43,0,0,1,.306.089.613.613,0,0,1,.179.268,1.535,1.535,0,0,1,.085.4c.014.152.022.314.024.482s0,.34,0,.514,0,.343.007.5a.418.418,0,0,1-.06.027.083.083,0,0,1-.038,0,.465.465,0,0,0-.053-.012.678.678,0,0,0-.1-.012,1.776,1.776,0,0,1-.051-.418c0-.157,0-.316,0-.48s0-.326,0-.487A2.1,2.1,0,0,0,354.877,142.779Z" transform="translate(-352.063 -140.873)" fill="#664039"/>
          <path id="Path_3421" data-name="Path 3421" d="M356.9,144.092a1.355,1.355,0,0,1,.058-.589,1.473,1.473,0,0,1,.275-.507,1.36,1.36,0,0,1,.444-.347,1.191,1.191,0,0,1,.569-.121.853.853,0,0,1,.14.015,1.552,1.552,0,0,1,.186.045,1.477,1.477,0,0,1,.2.08.847.847,0,0,1,.167.116.519.519,0,0,1,.111.152.331.331,0,0,1,.017.188.9.9,0,0,1-.352.148,2.759,2.759,0,0,1-.406.058c-.138.012-.273.022-.4.032a1.182,1.182,0,0,0-.345.068.459.459,0,0,0-.227.179.51.51,0,0,0-.05.347.544.544,0,0,0,.184.3.6.6,0,0,0,.3.116,1.1,1.1,0,0,0,.362-.017,2.773,2.773,0,0,0,.374-.1c.123-.041.239-.087.345-.133s.2-.087.265-.116a.114.114,0,0,1,.082.036.116.116,0,0,1,.034.082.872.872,0,0,1-.285.287,1.759,1.759,0,0,1-.427.205,2.012,2.012,0,0,1-.5.1,1.607,1.607,0,0,1-.487-.036,1.026,1.026,0,0,1-.4-.2A.693.693,0,0,1,356.9,144.092Zm1.313-1.284a1.064,1.064,0,0,0-.162.014.842.842,0,0,0-.188.051.633.633,0,0,0-.155.1.2.2,0,0,0-.065.154l.925-.154a.327.327,0,0,0-.154-.125A.555.555,0,0,0,358.218,142.808Z" transform="translate(-353.485 -140.964)" fill="#664039"/>
          <path id="Path_3422" data-name="Path 3422" d="M361.057,144.092a1.355,1.355,0,0,1,.058-.589,1.482,1.482,0,0,1,.275-.507,1.366,1.366,0,0,1,.444-.347,1.194,1.194,0,0,1,.57-.121.867.867,0,0,1,.14.015,1.543,1.543,0,0,1,.185.045,1.479,1.479,0,0,1,.2.08.843.843,0,0,1,.166.116.509.509,0,0,1,.111.152.321.321,0,0,1,.017.188.9.9,0,0,1-.352.148,2.756,2.756,0,0,1-.405.058c-.137.012-.272.022-.4.032a1.173,1.173,0,0,0-.345.068.457.457,0,0,0-.227.179.507.507,0,0,0-.051.347.551.551,0,0,0,.184.3.6.6,0,0,0,.3.116,1.092,1.092,0,0,0,.362-.017,2.778,2.778,0,0,0,.375-.1c.123-.041.239-.087.345-.133s.2-.087.265-.116a.119.119,0,0,1,.116.118.871.871,0,0,1-.285.287,1.759,1.759,0,0,1-.427.205,2.018,2.018,0,0,1-.5.1,1.606,1.606,0,0,1-.487-.036,1.027,1.027,0,0,1-.4-.2A.694.694,0,0,1,361.057,144.092Zm1.313-1.284a1.055,1.055,0,0,0-.161.014.847.847,0,0,0-.189.051.629.629,0,0,0-.154.1.2.2,0,0,0-.065.154l.925-.154a.329.329,0,0,0-.155-.125A.555.555,0,0,0,362.37,142.808Z" transform="translate(-355.062 -140.964)" fill="#664039"/>
          <path id="Path_3423" data-name="Path 3423" d="M366.992,143.231a3.461,3.461,0,0,1-.517.33,1.458,1.458,0,0,1-.5.157.863.863,0,0,1-.454-.073.931.931,0,0,1-.381-.366.986.986,0,0,1,.007-.459,1.158,1.158,0,0,1,.2-.393,1.331,1.331,0,0,1,.335-.311,1.8,1.8,0,0,1,.42-.208,1.65,1.65,0,0,1,.461-.082,1.275,1.275,0,0,1,.451.065c0-.038,0-.1.007-.172s.007-.164.012-.263.009-.2.014-.3.012-.208.017-.306.012-.181.017-.259.009-.133.012-.169c0-.061.012-.113.019-.164a.349.349,0,0,1,.048-.13.24.24,0,0,1,.089-.087.319.319,0,0,1,.154-.032c0,.3-.007.587-.024.871s-.034.567-.048.855-.019.579-.017.876a8.2,8.2,0,0,0,.06.943.227.227,0,0,1-.038.153.174.174,0,0,1-.133.046.163.163,0,0,1-.135-.058.3.3,0,0,1-.063-.138.771.771,0,0,1-.017-.171Zm-1.525-.145a.322.322,0,0,0,.1.244.31.31,0,0,0,.256.043,1.029,1.029,0,0,0,.241-.043,3.079,3.079,0,0,0,.335-.111,2.854,2.854,0,0,0,.326-.154.632.632,0,0,0,.215-.169v-.618a.135.135,0,0,0-.029-.089.165.165,0,0,0-.07-.05.27.27,0,0,0-.089-.019c-.031,0-.058,0-.079,0a.716.716,0,0,0-.234.012,1.422,1.422,0,0,0-.27.092,1.7,1.7,0,0,0-.273.152,1.294,1.294,0,0,0-.232.205.87.87,0,0,0-.157.244A.494.494,0,0,0,365.466,143.086Z" transform="translate(-356.609 -140.006)" fill="#664039"/>
          <path id="Path_3424" data-name="Path 3424" d="M351.56,150.093a.524.524,0,0,1-.116-.033.082.082,0,0,1-.048-.08.167.167,0,0,1,.036-.1c.024-.031.048-.065.078-.1a.892.892,0,0,0,.079-.106.277.277,0,0,0,.046-.126c0-.031,0-.082.012-.152s.009-.144.014-.232.012-.179.017-.272.012-.189.017-.275.007-.164.012-.232,0-.118,0-.152a.618.618,0,0,1,.07-.068.333.333,0,0,1,.089-.063.169.169,0,0,1,.087-.017c.027,0,.048.027.063.07l-.029,1.467a.667.667,0,0,1,.1,0c.06,0,.133,0,.22,0s.184,0,.29-.007.207-.015.306-.024.19-.027.273-.043a.6.6,0,0,0,.19-.07V148a.079.079,0,0,1,.053-.046.364.364,0,0,1,.1-.024.8.8,0,0,1,.109-.007.784.784,0,0,1,.084,0c0,.058,0,.147,0,.268s.009.258.014.411.01.311.017.48.012.328.017.481.01.287.015.41.007.21.009.268a3.5,3.5,0,0,0,.065.478,1.545,1.545,0,0,0,.167.449c-.065.022-.13.041-.2.058a1.157,1.157,0,0,1-.263.024,2.782,2.782,0,0,1-.179-.688c-.029-.244-.048-.478-.053-.705-.128,0-.246,0-.35,0a2.6,2.6,0,0,0-.3.009,2.052,2.052,0,0,0-.309.046c-.106.024-.222.058-.352.1a3.669,3.669,0,0,0-.007.562,4.327,4.327,0,0,0,.082.6l-.37.185Z" transform="translate(-351.396 -143.015)" fill="#664039"/>
          <path id="Path_3425" data-name="Path 3425" d="M356.142,148.623a1.339,1.339,0,0,0,.268.031c.111,0,.236,0,.371,0s.278,0,.425-.009.287-.007.42-.007.254,0,.365.012a1.066,1.066,0,0,1,.255.046v.231a2.879,2.879,0,0,1-.345.022l-.471.007c-.166,0-.333,0-.5.014a2.646,2.646,0,0,0-.437.053c-.022.1-.038.188-.048.256s-.017.128-.022.179a1.409,1.409,0,0,0,0,.143q0,.069.007.145c0,.05.007.109.012.176s0,.149,0,.246a4.164,4.164,0,0,0,.463-.024c.15-.017.3-.034.447-.056s.3-.041.446-.055a3.944,3.944,0,0,1,.456-.024v.253l-1.779.222.026.763c.232,0,.444,0,.633-.019l.538-.043c.169-.014.338-.029.5-.041s.343-.022.529-.022a.3.3,0,0,1-.022.1.414.414,0,0,1-.061.1.236.236,0,0,1-.084.07.077.077,0,0,1-.089-.007c-.171.019-.362.038-.569.058s-.418.037-.628.056-.418.036-.616.051l-.518.043Z" transform="translate(-353.192 -143.279)" fill="#664039"/>
          <path id="Path_3426" data-name="Path 3426" d="M360.853,151.363a2.374,2.374,0,0,0,.065-.42c.015-.174.027-.365.034-.57s.014-.415.017-.632v-.618c0-.193,0-.364-.005-.516s0-.266,0-.338l.375.009-.046,2.73,2.454.068c.053.014.074.043.069.082a.2.2,0,0,1-.069.118.5.5,0,0,1-.169.094.434.434,0,0,1-.222.014Z" transform="translate(-354.989 -143.145)" fill="#664039"/>
          <path id="Path_3427" data-name="Path 3427" d="M367.618,148.8c.039,0,.094,0,.169.007s.157.014.246.029.181.037.275.061a1.285,1.285,0,0,1,.259.1.661.661,0,0,1,.19.145.3.3,0,0,1,.075.2.745.745,0,0,1-.13.439,1.326,1.326,0,0,1-.345.328,2.165,2.165,0,0,1-.478.227,4.3,4.3,0,0,1-.531.14,4.129,4.129,0,0,1-.5.073q-.243.021-.406.022l-.022,1.042c0,.022-.017.036-.048.043a.42.42,0,0,1-.113.012c-.043,0-.087,0-.125,0a.319.319,0,0,0-.082,0c0-.179,0-.357,0-.533s0-.36,0-.551c.017-.234.029-.439.038-.62a3.409,3.409,0,0,1,.048-.468.981.981,0,0,1,.123-.328.583.583,0,0,1,.251-.213,1.388,1.388,0,0,1,.432-.113A5.306,5.306,0,0,1,367.618,148.8Zm-1.105.755c0,.038-.014.082-.027.135s-.024.106-.033.162a1.2,1.2,0,0,0-.024.164.37.37,0,0,0,.017.14.183.183,0,0,0,.079.1.258.258,0,0,0,.167.017c.072,0,.166,0,.282-.012s.241-.024.372-.046a3.08,3.08,0,0,0,.393-.089,1.712,1.712,0,0,0,.355-.145.856.856,0,0,0,.258-.208.433.433,0,0,0,.1-.285.366.366,0,0,0-.121-.2.7.7,0,0,0-.234-.133,1.5,1.5,0,0,0-.309-.065,2.07,2.07,0,0,0-.34,0,1.975,1.975,0,0,0-.338.048,1.391,1.391,0,0,0-.292.1.68.68,0,0,0-.212.144A.3.3,0,0,0,366.513,149.557Z" transform="translate(-356.961 -143.347)" fill="#664039"/>
        </g>
      </g>
    </g>
  </g>
</svg>
