<svg xmlns="http://www.w3.org/2000/svg" width="15.705" height="15.705" viewBox="0 0 15.705 15.705">
  <path id="Icon_metro-qrcode" data-name="Icon metro-qrcode" d="M7.478,2.91H3.552V6.836H7.478Zm.982-.982V7.817H2.571V1.928ZM4.534,3.891H6.5V5.854H4.534Zm12.76-.982H13.368V6.836h3.926Zm.982-.982V7.817H12.386V1.928ZM14.349,3.891h1.963V5.854H14.349ZM7.478,12.725H3.552v3.926H7.478Zm.982-.982v5.889H2.571V11.743ZM4.534,13.707H6.5V15.67H4.534ZM9.442,1.928h.982V2.91H9.442Zm.982.982H11.4v.982h-.982Zm-.982.982h.982v.982H9.442Zm.982.982H11.4v.982h-.982Zm-.982.982h.982v.982H9.442Zm.982.982H11.4v.982h-.982Zm-.982.982h.982V8.8H9.442Zm0,1.963h.982v.982H9.442Zm.982.982H11.4v.982h-.982Zm-.982.982h.982v.982H9.442Zm.982.982H11.4v.982h-.982Zm-.982.982h.982v.982H9.442Zm.982.982H11.4v.982h-.982Zm-.982.982h.982v.982H9.442Zm.982.982H11.4v.982h-.982ZM17.294,9.78h.982v.982h-.982Zm-13.742,0h.982v.982H3.552ZM4.534,8.8h.982V9.78H4.534Zm-1.963,0h.982V9.78H2.571ZM6.5,8.8h.982V9.78H6.5Zm.982.982H8.46v.982H7.478ZM8.46,8.8h.982V9.78H8.46ZM11.4,9.78h.982v.982H11.4Zm.982-.982h.982V9.78h-.982Zm.982.982h.982v.982h-.982Zm.982-.982h.982V9.78h-.982Zm.982.982h.982v.982h-.982Zm.982-.982h.982V9.78h-.982Zm.982,2.945h.982v.982h-.982Zm-5.889,0h.982v.982H11.4Zm.982-.982h.982v.982h-.982Zm.982.982h.982v.982h-.982Zm1.963,0h.982v.982h-.982Zm.982-.982h.982v.982h-.982Zm.982,2.945h.982v.982h-.982Zm-5.889,0h.982v.982H11.4Zm.982-.982h.982v.982h-.982Zm1.963,0h.982v.982h-.982Zm.982.982h.982v.982h-.982Zm.982-.982h.982v.982h-.982Zm.982,2.945h.982v.982h-.982Zm-4.908-.982h.982v.982h-.982Zm.982.982h.982v.982h-.982Zm.982-.982h.982v.982h-.982Zm.982.982h.982v.982h-.982Zm-2.945.982h.982v.982h-.982Zm1.963,0h.982v.982h-.982Zm1.963,0h.982v.982h-.982Z" transform="translate(-2.571 -1.928)" fill="#fff"/>
</svg>
