<?xml version="1.0" encoding="UTF-8"?>
<svg width="44px" height="35px" viewBox="0 0 44 35" version="1.1" xmlns="http://www.w3.org/2000/svg" xmlns:xlink="http://www.w3.org/1999/xlink">
    <title>user-group</title>
    <g id="Page-1" stroke="none" stroke-width="1" fill="none" fill-rule="evenodd">
        <g id="user-group">
            <g id="user-group-2" fill="#FFFFFF" fill-rule="nonzero">
                <path d="M5.938,11.877 C8.12449532,11.877 9.897,10.1044953 9.897,7.918 C9.897,5.73150468 8.12449532,3.959 5.938,3.959 C3.75150468,3.959 1.979,5.73150468 1.979,7.918 C1.98120488,10.1035814 3.75241862,11.8747951 5.938,11.877 Z M33.651,11.877 C35.8374953,11.877 37.61,10.1044953 37.61,7.918 C37.61,5.73150468 35.8374953,3.959 33.651,3.959 C31.4645047,3.959 29.692,5.73150468 29.692,7.918 C29.6942049,10.1035814 31.4654186,11.8747951 33.651,11.877 Z M35.63,13.8559958 L31.672,13.8559958 C30.6262439,13.8549121 29.6227989,14.2688781 28.882,15.007 C31.4236121,16.3900141 33.1504598,18.9052053 33.528,21.774002 L37.61,21.774002 C38.1350262,21.7745314 38.6387014,21.5662009 39.0099511,21.1949511 C39.3812009,20.8237014 39.5895314,20.3200262 39.589002,19.795 L39.589002,17.815 C39.5867961,15.6298085 37.8161908,13.8587559 35.631,13.8559958 L35.63,13.8559958 Z M19.794,13.8560024 C23.6202287,13.8560024 26.722,10.7542287 26.722,6.928 C26.722,3.10177125 23.6202287,0 19.794,0 C15.9677713,0 12.8659986,3.10177125 12.8659986,6.928 C12.8652035,8.76583719 13.5949972,10.5286155 14.8946383,11.828069 C16.1942793,13.1275225 17.9571629,13.8570617 19.795,13.8560024 L19.794,13.8560024 Z M24.545,15.835 L24.032,15.835 C21.3611548,17.1548294 18.2278452,17.1548294 15.557,15.835 L15.044,15.835 C11.1088762,15.836104 7.91910398,19.0258762 7.918,22.961 L7.918,24.743 C7.91855193,26.3825048 9.24749525,27.7114481 10.887,27.712 L28.7,27.712 C30.3395048,27.7114481 31.6684481,26.3825048 31.669,24.743 L31.669,22.962 C31.6678972,19.0280471 28.4799521,15.8387594 24.546,15.836 L24.545,15.835 Z M10.707,15.006 C9.96620109,14.2678781 8.96275606,13.8539121 7.917,13.8549958 L3.959,13.8549958 C1.77302859,13.8572058 0.0016536733,15.6290281 -2.02438611e-06,17.815 L-2.02438611e-06,19.794 C-0.000531403406,20.3190262 0.207799132,20.8227014 0.579048881,21.1939511 C0.95029863,21.5652009 1.45397384,21.7735314 1.979,21.773002 L6.056,21.773002 C6.43872657,18.9047684 8.16691589,16.3912411 10.708,15.007 L10.707,15.006 Z" id="Icon_awesome-users"></path>
            </g>
            <g id="verified-2" stroke-linecap="round" stroke-linejoin="round" transform="translate(33.000000, 24.000000)" stroke="#FFFFFF" stroke-width="2">
                <path d="M10,4.53950775 L10,4.99933226 C10.000264,7.21384072 8.54362636,9.16467858 6.42019134,9.79367914 C4.29675631,10.4226797 2.01251087,9.57996034 0.806467482,7.72262594 C-0.399575907,5.86529155 -0.240032797,3.43592074 1.19855799,1.75224439 C2.63714878,0.0685680448 5.01198979,-0.468215678 7.034928,0.433053584" id="Path_3452"></path>
                <polyline id="Path_3453" points="10 1 5.38465904 6 4 4.50079843"></polyline>
            </g>
        </g>
    </g>
</svg>