<svg xmlns="http://www.w3.org/2000/svg" width="32.896" height="26.317" viewBox="0 0 32.896 26.317">
  <path id="Icon_awesome-user-check" data-name="Icon awesome-user-check" d="M11.514,13.158A6.579,6.579,0,1,0,4.934,6.579,6.579,6.579,0,0,0,11.514,13.158ZM16.119,14.8h-.858a8.947,8.947,0,0,1-7.494,0H6.908A6.91,6.91,0,0,0,0,21.711V23.85a2.468,2.468,0,0,0,2.467,2.467H20.56a2.468,2.468,0,0,0,2.467-2.467V21.711A6.91,6.91,0,0,0,16.119,14.8Zm16.6-6.6L31.292,6.759a.61.61,0,0,0-.864-.005L25.042,12.1,22.7,9.745a.61.61,0,0,0-.864-.005L20.4,11.174a.61.61,0,0,0-.005.864l4.2,4.23a.61.61,0,0,0,.864.005l7.263-7.206A.614.614,0,0,0,32.721,8.2Z" fill="#fff"/>
</svg>
